<svg width="41" height="41" viewBox="0 0 41 41" fill="none" xmlns="http://www.w3.org/2000/svg">
<mask id="mask0_7085_28990" style="mask-type:alpha" maskUnits="userSpaceOnUse" x="0" y="0" width="41" height="41">
<circle cx="20.5" cy="20.5" r="20.5" fill="#4318FF"/>
</mask>
<g mask="url(#mask0_7085_28990)">
<circle cx="20.5" cy="20.5" r="20.5" fill="#F0F0F0"/>
<path d="M14.744 26V16.352H11.448V14.8H19.944V16.352H16.648V26H14.744ZM25.1304 26.192C24.3197 26.192 23.5997 26.048 22.9704 25.76C22.341 25.472 21.8504 25.0613 21.4984 24.528C21.1464 23.9947 20.965 23.36 20.9544 22.624H22.9864C22.9864 22.9973 23.0717 23.3333 23.2424 23.632C23.4237 23.92 23.669 24.1493 23.9784 24.32C24.2984 24.4907 24.6824 24.576 25.1304 24.576C25.5144 24.576 25.845 24.5173 26.1224 24.4C26.4104 24.272 26.629 24.096 26.7784 23.872C26.9384 23.6373 27.0184 23.3653 27.0184 23.056C27.0184 22.704 26.933 22.416 26.7624 22.192C26.6024 21.9573 26.3784 21.76 26.0904 21.6C25.8024 21.44 25.4717 21.3013 25.0984 21.184C24.725 21.056 24.3304 20.9227 23.9144 20.784C23.029 20.4853 22.3624 20.1067 21.9144 19.648C21.4664 19.1787 21.2424 18.5547 21.2424 17.776C21.2424 17.1253 21.397 16.5653 21.7064 16.096C22.0157 15.6267 22.4477 15.264 23.0024 15.008C23.5677 14.7413 24.2184 14.608 24.9544 14.608C25.701 14.608 26.3517 14.7413 26.9064 15.008C27.4717 15.2747 27.9144 15.648 28.2344 16.128C28.565 16.5973 28.7357 17.1627 28.7464 17.824H26.6984C26.6877 17.5467 26.613 17.2907 26.4744 17.056C26.3357 16.8107 26.133 16.6133 25.8664 16.464C25.6104 16.304 25.2957 16.224 24.9224 16.224C24.6024 16.2133 24.3144 16.2667 24.0584 16.384C23.813 16.4907 23.6157 16.6507 23.4664 16.864C23.3277 17.0667 23.2584 17.3227 23.2584 17.632C23.2584 17.9307 23.3224 18.1813 23.4504 18.384C23.589 18.576 23.7864 18.7413 24.0424 18.88C24.2984 19.008 24.597 19.1307 24.9384 19.248C25.2797 19.3653 25.653 19.4933 26.0584 19.632C26.613 19.8133 27.1144 20.0373 27.5624 20.304C28.021 20.56 28.3837 20.896 28.6504 21.312C28.917 21.728 29.0504 22.2667 29.0504 22.928C29.0504 23.504 28.901 24.0427 28.6024 24.544C28.3037 25.0347 27.8664 25.4347 27.2904 25.744C26.7144 26.0427 25.9944 26.192 25.1304 26.192Z" fill="black"/>
</g>
</svg>
