<svg width="24" height="24" viewBox="0 0 24 24" fill="none" xmlns="http://www.w3.org/2000/svg">
<path d="M24 2.78351C23.1 3.27835 22.15 3.58763 21.15 3.7732C22.15 3.03093 22.95 1.85567 23.3 0.43299C22.35 1.1134 21.3 1.60825 20.15 1.91753C19.25 0.742268 17.95 0 16.55 0C13.85 0 11.65 2.72165 11.65 6.06186C11.65 6.5567 11.7 6.98969 11.8 7.42268C7.75 7.17526 4.1 4.76289 1.65 1.05155C1.25 1.97938 1 2.96907 1 4.08247C1 6.18557 1.85 8.04124 3.2 9.15464C2.4 9.09278 1.65 8.84536 0.95 8.41237V8.47423C0.95 11.4433 2.65 13.9175 4.9 14.4742C4.5 14.5979 4.05 14.6598 3.6 14.6598C3.3 14.6598 2.95 14.5979 2.65 14.5361C3.3 16.9485 5.1 18.7423 7.25 18.7423C5.55 20.3505 3.45 21.3402 1.15 21.3402C0.75 21.3402 0.35 21.3402 0 21.2784C2.2 23.0103 4.75 24 7.55 24C16.6 24 21.55 14.7216 21.55 6.68041C21.55 6.43299 21.55 6.12371 21.55 5.87629C22.5 5.07216 23.35 4.02062 24 2.78351Z" fill="#161C2D"/>
</svg>
