<svg width="24" height="24" viewBox="0 0 24 24" fill="none" xmlns="http://www.w3.org/2000/svg">
<path d="M24 12.0724C23.999 5.6496 19.0009 0.35177 12.6264 0.0167007C6.25194 -0.318369 0.732449 4.42662 0.0663487 10.8143C-0.599751 17.202 3.82071 22.9964 10.1255 24V15.5625H7.07909V12.0724H10.1255V9.41232C10.1255 6.38627 11.9172 4.71477 14.6576 4.71477C15.5575 4.72733 16.4554 4.80602 17.344 4.95022V7.92193H15.8305C15.3081 7.85212 14.7825 8.02516 14.4021 8.39218C14.0217 8.75921 13.8279 9.28038 13.8754 9.8085V12.0724H17.2037L16.6713 15.5625H13.8754V24C19.7069 23.0718 24.0009 18.0131 24 12.0724Z" fill="#161C2D"/>
</svg>
