<svg width="16" height="17" viewBox="0 0 16 17" fill="none" xmlns="http://www.w3.org/2000/svg">
<path d="M7.99967 1.43359C4.31301 1.43359 1.33301 4.41359 1.33301 8.10026C1.33301 11.7869 4.31301 14.7669 7.99967 14.7669C11.6863 14.7669 14.6663 11.7869 14.6663 8.10026C14.6663 4.41359 11.6863 1.43359 7.99967 1.43359ZM7.99967 13.4336C5.05967 13.4336 2.66634 11.0403 2.66634 8.10026C2.66634 5.16026 5.05967 2.76693 7.99967 2.76693C10.9397 2.76693 13.333 5.16026 13.333 8.10026C13.333 11.0403 10.9397 13.4336 7.99967 13.4336ZM10.393 4.76693L7.99967 7.16026L5.60634 4.76693L4.66634 5.70693L7.05967 8.10026L4.66634 10.4936L5.60634 11.4336L7.99967 9.04026L10.393 11.4336L11.333 10.4936L8.93967 8.10026L11.333 5.70693L10.393 4.76693Z" fill="#595959"/>
</svg>
