<svg width="100" height="100" viewBox="0 0 100 100" fill="none" xmlns="http://www.w3.org/2000/svg">
<rect width="100" height="100" rx="5" fill="#E2E6EC"/>
<path fill-rule="evenodd" clip-rule="evenodd" d="M28.666 36.9998C28.666 34.6066 30.6061 32.6665 32.9993 32.6665H66.9993C69.3926 32.6665 71.3327 34.6066 71.3327 36.9998V63.6665C71.3327 66.0597 69.3926 67.9998 66.9993 67.9998H32.9993C30.6061 67.9998 28.666 66.0597 28.666 63.6665V36.9998ZM32.9993 34.6665C31.7107 34.6665 30.666 35.7112 30.666 36.9998V63.6665C30.666 64.9552 31.7107 65.9998 32.9993 65.9998H66.9993C68.288 65.9998 69.3327 64.9552 69.3327 63.6665V36.9998C69.3327 35.7112 68.288 34.6665 66.9993 34.6665H32.9993Z" fill="#B2B9C4"/>
<ellipse cx="38.6654" cy="41.9998" rx="4.33333" ry="4.33333" fill="#B2B9C4"/>
<path d="M34.332 60.333V58.3567C34.332 57.9147 34.5076 57.4907 34.8202 57.1782L40.2083 51.7901C40.8374 51.161 41.8496 51.1369 42.5079 51.7353L43.8393 52.9456C44.4908 53.538 45.4908 53.5212 46.1222 52.9074L55.8204 43.4786C56.4738 42.8433 57.5163 42.8506 58.1607 43.495L65.8439 51.1782C66.1564 51.4907 66.332 51.9147 66.332 52.3567V60.333C66.332 61.2535 65.5858 61.9997 64.6654 61.9997H35.9987C35.0782 61.9997 34.332 61.2535 34.332 60.333Z" fill="#B2B9C4"/>
</svg>
