<svg width="24" height="25" viewBox="0 0 24 25" fill="none" xmlns="http://www.w3.org/2000/svg">
<path d="M20.8391 7.5325C21.2291 7.1425 21.2291 6.5125 20.8391 6.1225L18.0091 3.2925C17.6191 2.9025 16.9891 2.9025 16.5991 3.2925L12.1091 7.7825L8.21914 3.8925C7.43914 3.1125 6.16914 3.1125 5.38914 3.8925L3.48914 5.7925C2.70914 6.5725 2.70914 7.8425 3.48914 8.6225L7.37914 12.5125L2.86914 17.0225V21.2625H7.10914L11.6291 16.7425L15.5191 20.6325C16.4691 21.5825 17.7491 21.2325 18.3491 20.6325L20.2491 18.7325C21.0291 17.9525 21.0291 16.6825 20.2491 15.9025L16.3591 12.0125L20.8391 7.5325ZM4.90914 7.2025L6.79914 5.3025L8.06914 6.5725L6.88914 7.7625L8.29914 9.1725L9.48914 7.9825L10.6891 9.1825L8.78914 11.0825L4.90914 7.2025ZM16.1391 14.6425L14.9491 15.8325L16.3591 17.2425L17.5491 16.0525L18.8191 17.3225L16.9191 19.2225L13.0291 15.3325L14.9291 13.4325L16.1391 14.6425ZM6.27914 19.2625H4.86914V17.8525L14.4791 8.2425L15.8891 9.6525L6.27914 19.2625ZM15.8891 6.8225L17.2991 5.4125L18.7091 6.8225L17.2991 8.2325L15.8891 6.8225Z" fill="#262626"/>
</svg>
