<svg width="24" height="25" viewBox="0 0 24 25" fill="none" xmlns="http://www.w3.org/2000/svg">
<path d="M22.4279 10.7247L13.4179 1.71469C12.6679 0.964694 11.3479 0.954694 10.5879 1.71469L1.58793 10.7147C0.80793 11.4947 0.80793 12.7547 1.58793 13.5347L10.5879 22.5347C10.9779 22.9247 11.4879 23.1147 11.9979 23.1147C12.5079 23.1147 13.0179 22.9247 13.4079 22.5347L22.3979 13.5447C23.1879 12.7847 23.1979 11.5247 22.4279 10.7247ZM12.0079 21.1247L3.00793 12.1247L12.0079 3.12469L21.0079 12.1247L12.0079 21.1247ZM7.99793 11.1347V15.1347H9.99793V12.1347H13.9979V14.6347L17.4979 11.1347L13.9979 7.63469V10.1347H8.99793C8.44793 10.1347 7.99793 10.5847 7.99793 11.1347Z" fill="black"/>
</svg>
