<svg width="24" height="25" viewBox="0 0 24 25" fill="none" xmlns="http://www.w3.org/2000/svg">
<g clip-path="url(#clip0_6572_112957)">
<path d="M21 0.616211H3C1.3455 0.616211 0 1.96171 0 3.61621V21.6162C0 23.2707 1.3455 24.6162 3 24.6162H21C22.6545 24.6162 24 23.2707 24 21.6162V3.61621C24 1.96171 22.6545 0.616211 21 0.616211Z" fill="#1976D2"/>
<path fill-rule="evenodd" clip-rule="evenodd" d="M20.25 12.6162H16.5V9.61621C16.5 8.78821 17.172 8.86621 18 8.86621H19.5V5.11621H16.5C15.3065 5.11621 14.1619 5.59032 13.318 6.43423C12.4741 7.27814 12 8.42274 12 9.61621V12.6162H9V16.3662H12V24.6162H16.5V16.3662H18.75L20.25 12.6162Z" fill="#FAFAFA"/>
</g>
<defs>
<clipPath id="clip0_6572_112957">
<rect width="24" height="24" fill="white" transform="translate(0 0.616211)"/>
</clipPath>
</defs>
</svg>
