<svg width="16" height="16" viewBox="0 0 16 16" fill="none" xmlns="http://www.w3.org/2000/svg">
<path fill-rule="evenodd" clip-rule="evenodd" d="M3.64427 2.92805C3.83933 3.12351 3.83902 3.44009 3.64356 3.63515C2.52449 4.752 1.83301 6.29479 1.83301 8C1.83301 9.7252 2.54076 11.2841 3.68303 12.4039C3.88022 12.5973 3.88337 12.9138 3.69005 13.111C3.49675 13.3082 3.18018 13.3113 2.98299 13.118C1.65677 11.8179 0.833008 10.0047 0.833008 8C0.833008 6.01855 1.63781 4.22411 2.93716 2.92735C3.13261 2.73228 3.4492 2.73259 3.64427 2.92805ZM12.4106 2.97631C12.6078 2.78299 12.9243 2.78614 13.1177 2.98333C14.3844 4.27551 15.1663 6.04695 15.1663 8C15.1663 9.97633 14.3657 11.7666 13.0723 13.0625C12.8773 13.258 12.5607 13.2583 12.3653 13.0633C12.1698 12.8682 12.1695 12.5516 12.3645 12.3561C13.4785 11.24 14.1663 9.7008 14.1663 8C14.1663 6.31915 13.4945 4.7962 12.4036 3.68338C12.2103 3.48619 12.2134 3.16962 12.4106 2.97631ZM5.53916 4.99171C5.72785 5.19334 5.71735 5.50975 5.51573 5.69843C4.88312 6.29043 4.49967 7.10013 4.49967 7.98813C4.49967 8.88647 4.89213 9.70487 5.53805 10.2986C5.74135 10.4855 5.75466 10.8017 5.56778 11.0051C5.38091 11.2083 5.0646 11.2217 4.8613 11.0348C4.02612 10.2671 3.49967 9.18827 3.49967 7.98813C3.49967 6.802 4.01399 5.73419 4.83245 4.96828C5.03407 4.77959 5.35048 4.79009 5.53916 4.99171ZM10.4949 5.01706C10.6858 4.81751 11.0023 4.81047 11.2019 5.00135C12 5.76476 12.4997 6.81907 12.4997 7.98813C12.4997 9.1712 11.988 10.2365 11.1733 11.002C10.9721 11.1911 10.6556 11.1813 10.4665 10.98C10.2775 10.7787 10.2873 10.4623 10.4885 10.2733C11.1182 9.68167 11.4997 8.87387 11.4997 7.98813C11.4997 7.1128 11.1271 6.31364 10.5106 5.72399C10.3111 5.53312 10.3041 5.21661 10.4949 5.01706Z" fill="#0F0D13"/>
<path d="M9.10453 6.9674C9.70173 7.40587 10.0003 7.62507 10.0003 8C10.0003 8.37493 9.70173 8.59413 9.10453 9.0326C8.93973 9.1536 8.77619 9.2676 8.62593 9.36253C8.49413 9.44587 8.34486 9.532 8.19026 9.6166C7.59453 9.94267 7.29659 10.1057 7.02946 9.9252C6.76226 9.74467 6.73799 9.3668 6.68946 8.61107C6.67573 8.39733 6.66699 8.1878 6.66699 8C6.66699 7.8122 6.67573 7.60267 6.68946 7.38893C6.73799 6.63318 6.76226 6.25531 7.02946 6.0748C7.29659 5.89429 7.59453 6.05733 8.19026 6.38339C8.34486 6.46799 8.49413 6.55415 8.62593 6.63746C8.77619 6.7324 8.93973 6.8464 9.10453 6.9674Z" fill="#0F0D13"/>
</svg>
