<svg width="24" height="25" viewBox="0 0 24 25" fill="none" xmlns="http://www.w3.org/2000/svg">
<path d="M21.8055 10.6577H21V10.6162H12V14.6162H17.6515C16.827 16.9447 14.6115 18.6162 12 18.6162C8.6865 18.6162 6 15.9297 6 12.6162C6 9.30271 8.6865 6.61621 12 6.61621C13.5295 6.61621 14.921 7.19321 15.9805 8.13571L18.809 5.30721C17.023 3.64271 14.634 2.61621 12 2.61621C6.4775 2.61621 2 7.09371 2 12.6162C2 18.1387 6.4775 22.6162 12 22.6162C17.5225 22.6162 22 18.1387 22 12.6162C22 11.9457 21.931 11.2912 21.8055 10.6577Z" fill="#FFC107"/>
<path d="M3.15332 7.96171L6.43882 10.3712C7.32782 8.17021 9.48082 6.61621 12.0003 6.61621C13.5298 6.61621 14.9213 7.19321 15.9808 8.13571L18.8093 5.30721C17.0233 3.64271 14.6343 2.61621 12.0003 2.61621C8.15932 2.61621 4.82832 4.78471 3.15332 7.96171Z" fill="#FF3D00"/>
<path d="M12.0002 22.6166C14.5832 22.6166 16.9302 21.6281 18.7047 20.0206L15.6097 17.4016C14.6057 18.1621 13.3577 18.6166 12.0002 18.6166C9.39916 18.6166 7.19066 16.9581 6.35866 14.6436L3.09766 17.1561C4.75266 20.3946 8.11366 22.6166 12.0002 22.6166Z" fill="#4CAF50"/>
<path d="M21.8055 10.6577H21V10.6162H12V14.6162H17.6515C17.2555 15.7347 16.536 16.6992 15.608 17.4017L15.6095 17.4007L18.7045 20.0197C18.4855 20.2187 22 17.6162 22 12.6162C22 11.9457 21.931 11.2912 21.8055 10.6577Z" fill="#1976D2"/>
</svg>
