<svg width="20" height="20" viewBox="0 0 20 20" fill="none" xmlns="http://www.w3.org/2000/svg">
<g clip-path="url(#clip0_7119_117410)">
<path fill-rule="evenodd" clip-rule="evenodd" d="M9.99967 2.49967C5.85754 2.49967 2.49967 5.85754 2.49967 9.99967C2.49967 14.1418 5.85754 17.4997 9.99967 17.4997C14.1418 17.4997 17.4997 14.1418 17.4997 9.99967C17.4997 5.85754 14.1418 2.49967 9.99967 2.49967ZM0.833008 9.99967C0.833008 4.93706 4.93706 0.833008 9.99967 0.833008C15.0623 0.833008 19.1663 4.93706 19.1663 9.99967C19.1663 15.0623 15.0623 19.1663 9.99967 19.1663C4.93706 19.1663 0.833008 15.0623 0.833008 9.99967Z" fill="#434343"/>
<path fill-rule="evenodd" clip-rule="evenodd" d="M10.0003 9.16699C10.4606 9.16699 10.8337 9.54009 10.8337 10.0003V13.3337C10.8337 13.7939 10.4606 14.167 10.0003 14.167C9.54009 14.167 9.16699 13.7939 9.16699 13.3337V10.0003C9.16699 9.54009 9.54009 9.16699 10.0003 9.16699Z" fill="#434343"/>
<path fill-rule="evenodd" clip-rule="evenodd" d="M9.16699 6.66634C9.16699 6.2061 9.54009 5.83301 10.0003 5.83301H10.0087C10.4689 5.83301 10.842 6.2061 10.842 6.66634C10.842 7.12658 10.4689 7.49967 10.0087 7.49967H10.0003C9.54009 7.49967 9.16699 7.12658 9.16699 6.66634Z" fill="#434343"/>
</g>
<defs>
<clipPath id="clip0_7119_117410">
<rect width="20" height="20" fill="white"/>
</clipPath>
</defs>
</svg>
