<svg width="17" height="16" viewBox="0 0 17 16" fill="none" xmlns="http://www.w3.org/2000/svg">
<g opacity="0.7">
<path d="M12.0665 11.1046C11.5447 11.6263 10.5472 12.6239 9.70906 13.462C8.92801 14.243 7.66252 14.2431 6.88147 13.462C6.05908 12.6396 5.07833 11.6589 4.52401 11.1046C2.44122 9.02177 2.44122 5.64489 4.52401 3.5621C6.60681 1.4793 9.98369 1.4793 12.0665 3.5621C14.1493 5.64489 14.1493 9.02177 12.0665 11.1046Z" stroke="#161C2D" stroke-linecap="round" stroke-linejoin="round"/>
<path d="M10.2952 7.33333C10.2952 8.4379 9.39982 9.33333 8.29525 9.33333C7.19068 9.33333 6.29525 8.4379 6.29525 7.33333C6.29525 6.22876 7.19068 5.33333 8.29525 5.33333C9.39982 5.33333 10.2952 6.22876 10.2952 7.33333Z" stroke="#161C2D" stroke-linecap="round" stroke-linejoin="round"/>
</g>
</svg>
