<svg width="25" height="25" viewBox="0 0 25 25" fill="none" xmlns="http://www.w3.org/2000/svg">
<path fill-rule="evenodd" clip-rule="evenodd" d="M5.96689 4.52293C6.25949 4.81612 6.25902 5.29099 5.96583 5.58359C4.28722 7.25886 3.25 9.57304 3.25 12.1309C3.25 14.7187 4.31163 17.0571 6.02503 18.7368C6.32082 19.0268 6.32554 19.5016 6.03557 19.7974C5.74561 20.0932 5.27076 20.0979 4.97497 19.8079C2.98564 17.8578 1.75 15.138 1.75 12.1309C1.75 9.15869 2.95721 6.46702 4.90623 4.52188C5.19941 4.22928 5.67429 4.22975 5.96689 4.52293ZM19.1164 4.59532C19.4122 4.30535 19.887 4.31007 20.177 4.60586C22.0771 6.54412 23.25 9.20129 23.25 12.1309C23.25 15.0954 22.0491 17.7808 20.109 19.7247C19.8164 20.0179 19.3415 20.0184 19.0484 19.7258C18.7552 19.4332 18.7547 18.9583 19.0473 18.6651C20.7182 16.9909 21.75 14.6821 21.75 12.1309C21.75 9.60959 20.7422 7.32516 19.1059 5.65593C18.8159 5.36014 18.8206 4.88529 19.1164 4.59532ZM8.80923 7.61843C9.09226 7.92087 9.07652 8.39548 8.77408 8.67851C7.82517 9.5665 7.25 10.7811 7.25 12.1131C7.25 13.4606 7.83869 14.6882 8.80756 15.5788C9.11251 15.8591 9.13248 16.3335 8.85216 16.6385C8.57185 16.9434 8.09739 16.9634 7.79244 16.6831C6.53967 15.5315 5.75 13.9133 5.75 12.1131C5.75 10.3339 6.52148 8.73214 7.74916 7.58328C8.0516 7.30025 8.52621 7.31599 8.80923 7.61843ZM16.2429 7.65645C16.5292 7.35712 17.0039 7.34657 17.3033 7.63288C18.5005 8.778 19.25 10.3595 19.25 12.1131C19.25 13.8877 18.4825 15.4857 17.2604 16.6339C16.9586 16.9176 16.4839 16.9028 16.2003 16.6009C15.9167 16.299 15.9315 15.8244 16.2333 15.5408C17.1778 14.6534 17.75 13.4417 17.75 12.1131C17.75 10.8001 17.1911 9.60132 16.2664 8.71685C15.9671 8.43054 15.9566 7.95578 16.2429 7.65645Z" fill="#262626"/>
<path d="M14.1563 10.582C15.0521 11.2397 15.5 11.5685 15.5 12.1309C15.5 12.6933 15.0521 13.0221 14.1563 13.6798C13.9091 13.8613 13.6638 14.0323 13.4384 14.1747C13.2407 14.2997 13.0168 14.4289 12.7849 14.5558C11.8913 15.0449 11.4444 15.2895 11.0437 15.0187C10.6429 14.7479 10.6065 14.1811 10.5337 13.0475C10.5131 12.7269 10.5 12.4126 10.5 12.1309C10.5 11.8492 10.5131 11.5349 10.5337 11.2143C10.6065 10.0806 10.6429 9.51382 11.0437 9.24306C11.4444 8.9723 11.8913 9.21685 12.7849 9.70595C13.0168 9.83284 13.2407 9.96209 13.4384 10.0871C13.6638 10.2295 13.9091 10.4005 14.1563 10.582Z" fill="#262626"/>
</svg>
