<svg width="32" height="32" viewBox="0 0 32 32" fill="none" xmlns="http://www.w3.org/2000/svg">
<mask id="mask0_7119_129940" style="mask-type:alpha" maskUnits="userSpaceOnUse" x="0" y="2" width="32" height="28">
<path d="M11.4618 11.6214C11.4618 13.4623 10.0292 14.9546 8.26192 14.9546C6.49468 14.9546 5.06205 13.4623 5.06205 11.6214C5.06205 9.78057 6.49468 8.28825 8.26192 8.28825C10.0292 8.28825 11.4618 9.78057 11.4618 11.6214Z" fill="#B4DBFF"/>
<path fill-rule="evenodd" clip-rule="evenodd" d="M0 6.00019C0 4.15932 1.43263 2.66699 3.19987 2.66699H28.7989C30.5661 2.66699 31.9987 4.15932 31.9987 6.00019V25.9994C31.9987 27.8403 30.5661 29.3326 28.7989 29.3326H26.6867C26.6797 29.3326 26.6726 29.3326 26.6656 29.3326H3.92915C3.92312 29.3326 3.9171 29.3326 3.91108 29.3326H3.19988C1.43263 29.3326 0 27.8403 0 25.9994V6.00019ZM3.19987 5.16689H28.7989C29.2407 5.16689 29.5988 5.53997 29.5988 6.00019V16.3866L22.6467 9.33343L10.8191 21.3329L7.33494 17.7982L2.39991 22.805V6.00019C2.39991 5.53997 2.75806 5.16689 3.19987 5.16689Z" fill="#B4DBFF"/>
</mask>
<g mask="url(#mask0_7119_129940)">
<rect y="-0.000976562" width="31.9987" height="31.9987" fill="#B4DBFF"/>
</g>
</svg>
