<svg width="16" height="17" viewBox="0 0 16 17" fill="none" xmlns="http://www.w3.org/2000/svg">
<path d="M7.33398 5.16634H8.66732V6.49967H7.33398V5.16634ZM7.33398 7.83301H8.66732V11.833H7.33398V7.83301ZM8.00065 1.83301C4.32065 1.83301 1.33398 4.81967 1.33398 8.49967C1.33398 12.1797 4.32065 15.1663 8.00065 15.1663C11.6807 15.1663 14.6673 12.1797 14.6673 8.49967C14.6673 4.81967 11.6807 1.83301 8.00065 1.83301ZM8.00065 13.833C5.06065 13.833 2.66732 11.4397 2.66732 8.49967C2.66732 5.55967 5.06065 3.16634 8.00065 3.16634C10.9407 3.16634 13.334 5.55967 13.334 8.49967C13.334 11.4397 10.9407 13.833 8.00065 13.833Z" fill="#B3261E"/>
</svg>
