<svg width="24" height="25" viewBox="0 0 24 25" fill="none" xmlns="http://www.w3.org/2000/svg">
<path d="M11 7.13086H13V9.13086H11V7.13086ZM11 11.1309H13V17.1309H11V11.1309ZM12 2.13086C6.48 2.13086 2 6.61086 2 12.1309C2 17.6509 6.48 22.1309 12 22.1309C17.52 22.1309 22 17.6509 22 12.1309C22 6.61086 17.52 2.13086 12 2.13086ZM12 20.1309C7.59 20.1309 4 16.5409 4 12.1309C4 7.72086 7.59 4.13086 12 4.13086C16.41 4.13086 20 7.72086 20 12.1309C20 16.5409 16.41 20.1309 12 20.1309Z" fill="#006CF0"/>
</svg>
