<svg width="52" height="53" viewBox="0 0 52 53" fill="none" xmlns="http://www.w3.org/2000/svg">
<g clip-path="url(#clip0_6372_142858)">
<path d="M43.6105 18.4821C43.6105 36.934 25.9996 52.8712 25.9996 52.8712C25.9996 52.8712 8.38867 36.934 8.38867 18.4821C8.38867 16.1691 8.84424 13.8788 9.72938 11.7419C10.6145 9.60501 11.9119 7.66338 13.5474 6.02786C15.1829 4.39234 17.1245 3.09498 19.2614 2.20985C21.3984 1.32471 23.6887 0.869141 26.0016 0.869141C28.3146 0.869141 30.6049 1.32471 32.7418 2.20985C34.8787 3.09498 36.8204 4.39234 38.4559 6.02786C40.0914 7.66338 41.3888 9.60501 42.2739 11.7419C43.159 13.8788 43.6146 16.1691 43.6146 18.4821H43.6105Z" fill="#006CF0"/>
<path d="M38.5088 17.1211H36.2338C35.9569 14.8036 34.9092 12.6464 33.2588 10.9961C31.6084 9.34571 29.4513 8.29795 27.1338 8.02109V5.74609H24.6963V8.02109C22.3788 8.29795 20.2216 9.34571 18.5713 10.9961C16.9209 12.6464 15.8731 14.8036 15.5963 17.1211H13.3213V19.5586H15.5963C15.8731 21.8761 16.9209 24.0333 18.5713 25.6836C20.2216 27.334 22.3788 28.3817 24.6963 28.6586V30.9336H27.1338V28.6586C29.4513 28.3817 31.6084 27.334 33.2588 25.6836C34.9092 24.0333 35.9569 21.8761 36.2338 19.5586H38.5088V17.1211ZM27.1338 26.1927V24.0923H24.6963V26.1886C23.0309 25.9284 21.4911 25.1462 20.2988 23.9547C19.1065 22.7632 18.3234 21.2238 18.0622 19.5586H20.1585V17.1211H18.0622C18.3226 15.4551 19.1054 13.9149 20.2977 12.7225C21.4901 11.5302 23.0303 10.7474 24.6963 10.487V12.5833H27.1338V10.487C28.799 10.7482 30.3384 11.5314 31.5299 12.7236C32.7214 13.9159 33.5036 15.4557 33.7638 17.1211H31.8504V19.5586H33.7638C33.5036 21.224 32.7214 22.7638 31.5299 23.9561C30.3384 25.1483 28.799 25.9315 27.1338 26.1927Z" fill="white"/>
</g>
<defs>
<clipPath id="clip0_6372_142858">
<rect width="52" height="52" fill="white" transform="translate(0 0.871094)"/>
</clipPath>
</defs>
</svg>
