<svg width="32" height="33" viewBox="0 0 32 33" fill="none" xmlns="http://www.w3.org/2000/svg">
<g clip-path="url(#clip0_6607_24751)">
<path d="M25.7201 23.553L24.0001 21.833V15.1663C24.0001 11.073 21.8134 7.64634 18.0001 6.73967V5.83301C18.0001 4.72634 17.1067 3.83301 16.0001 3.83301C14.8934 3.83301 14.0001 4.72634 14.0001 5.83301V6.73967C10.1734 7.64634 8.00007 11.0597 8.00007 15.1663V21.833L6.28007 23.553C5.44007 24.393 6.02674 25.833 7.2134 25.833H24.7734C25.9734 25.833 26.5601 24.393 25.7201 23.553ZM21.3334 23.1663H10.6667V15.1663C10.6667 11.8597 12.6801 9.16634 16.0001 9.16634C19.3201 9.16634 21.3334 11.8597 21.3334 15.1663V23.1663ZM16.0001 29.833C17.4667 29.833 18.6667 28.633 18.6667 27.1663H13.3334C13.3334 28.633 14.5201 29.833 16.0001 29.833Z" fill="#A3AED0"/>
</g>
<defs>
<clipPath id="clip0_6607_24751">
<rect width="32" height="32" fill="white" transform="translate(0 0.5)"/>
</clipPath>
</defs>
</svg>
