<svg width="24" height="25" viewBox="0 0 24 25" fill="none" xmlns="http://www.w3.org/2000/svg">
<path d="M6.54 5.13086C6.6 6.02086 6.75 6.89086 6.99 7.72086L5.79 8.92086C5.38 7.72086 5.12 6.45086 5.03 5.13086H6.54ZM16.4 17.1509C17.25 17.3909 18.12 17.5409 19 17.6009V19.0909C17.68 19.0009 16.41 18.7409 15.2 18.3409L16.4 17.1509ZM7.5 3.13086H4C3.45 3.13086 3 3.58086 3 4.13086C3 13.5209 10.61 21.1309 20 21.1309C20.55 21.1309 21 20.6809 21 20.1309V16.6409C21 16.0909 20.55 15.6409 20 15.6409C18.76 15.6409 17.55 15.4409 16.43 15.0709C16.33 15.0309 16.22 15.0209 16.12 15.0209C15.86 15.0209 15.61 15.1209 15.41 15.3109L13.21 17.5109C10.38 16.0609 8.06 13.7509 6.62 10.9209L8.82 8.72086C9.1 8.44086 9.18 8.05086 9.07 7.70086C8.7 6.58086 8.5 5.38086 8.5 4.13086C8.5 3.58086 8.05 3.13086 7.5 3.13086Z" fill="black"/>
</svg>
