<svg width="32" height="32" viewBox="0 0 32 32" fill="none" xmlns="http://www.w3.org/2000/svg">
<path d="M18.827 6.66667L21.267 9.33333H26.667V25.3333H5.33366V9.33333H10.7337L13.1737 6.66667H18.827ZM20.0003 4H12.0003L9.56033 6.66667H5.33366C3.86699 6.66667 2.66699 7.86667 2.66699 9.33333V25.3333C2.66699 26.8 3.86699 28 5.33366 28H26.667C28.1337 28 29.3337 26.8 29.3337 25.3333V9.33333C29.3337 7.86667 28.1337 6.66667 26.667 6.66667H22.4403L20.0003 4ZM16.0003 13.3333C18.2003 13.3333 20.0003 15.1333 20.0003 17.3333C20.0003 19.5333 18.2003 21.3333 16.0003 21.3333C13.8003 21.3333 12.0003 19.5333 12.0003 17.3333C12.0003 15.1333 13.8003 13.3333 16.0003 13.3333ZM16.0003 10.6667C12.3203 10.6667 9.33366 13.6533 9.33366 17.3333C9.33366 21.0133 12.3203 24 16.0003 24C19.6803 24 22.667 21.0133 22.667 17.3333C22.667 13.6533 19.6803 10.6667 16.0003 10.6667Z" fill="white"/>
</svg>
