<svg width="60" height="60" viewBox="0 0 60 60" fill="none" xmlns="http://www.w3.org/2000/svg">
<g clip-path="url(#clip0_6607_21761)">
<path d="M58.6924 0C59.7066 0.46968 60.0133 1.27596 59.9977 2.36718C59.9507 5.65494 59.9805 8.92861 59.9805 12.2101C59.9805 12.9929 59.6424 13.569 58.9381 13.8994C58.6467 14.044 58.3189 14.0985 57.9965 14.0562C57.674 14.0138 57.3714 13.8764 57.1273 13.6614C56.6577 13.2841 56.4637 12.7706 56.4652 12.1678C56.4652 10.3517 56.4652 8.53564 56.4652 6.71955V6.00407L45.7129 16.5249C51.4663 23.8722 49.6038 33.305 43.6783 38.3728C37.7215 43.4673 28.9303 43.4454 23.1315 38.3133C17.2248 33.0842 15.932 24.9337 19.7572 18.5664C20.7691 19.0579 21.6641 19.7604 22.3819 20.6268C22.457 20.716 22.3819 20.9837 22.3099 21.1403C20.1688 25.8872 20.7557 30.3382 24.0847 34.2631C27.4669 38.2476 31.8836 39.6378 36.9045 38.1145C41.9254 36.5912 44.9022 33.042 45.5642 27.8191C46.5299 20.1947 40.354 13.6818 32.6881 14.0794C32.297 14.0767 31.9071 14.1214 31.5268 14.2125C31.0213 14.3691 30.7677 14.1514 30.4516 13.7992C29.7504 13.0164 28.985 12.2915 28.1915 11.4884C33.6929 9.6206 38.6418 10.6116 43.2166 14.0434L53.9344 3.55391C53.6809 3.53512 53.5259 3.51477 53.371 3.51477C51.5539 3.51477 49.7384 3.51477 47.9229 3.51477C46.8648 3.51477 46.1684 3.01847 45.9555 2.12295C45.7583 1.29162 46.1762 0.569878 47.1356 0.0876735C47.1653 0.0720175 47.181 0.031312 47.2045 0.0015656L58.6924 0Z" fill="#595959"/>
<path d="M0 25.0798C0.270764 23.8477 0.436665 22.5827 0.827942 21.3913C3.06918 14.5606 9.78819 10.0391 16.8171 10.573C20.3895 10.8332 23.771 12.2866 26.4185 14.7C29.0661 17.1133 30.8263 20.3465 31.4164 23.8806C32.0206 27.5378 31.2943 30.9258 29.4851 34.1806C28.472 33.7028 27.574 33.0118 26.8526 32.1547C26.7696 32.0561 26.7994 31.7884 26.8713 31.6444C29.7371 25.7702 27.3174 19.5705 22.8631 16.3422C15.6918 11.1522 5.30572 15.334 3.74061 24.0481C2.50417 30.9649 6.97569 37.3948 13.8919 38.4954C15.18 38.7005 16.5307 38.5346 17.8501 38.4845C18.1787 38.4704 18.3728 38.5126 18.5966 38.76C19.3526 39.596 20.1429 40.4023 20.9975 41.301L17.6012 42.0759V49.3372H18.1553C19.6578 49.3372 21.1618 49.3372 22.6643 49.3372C23.8069 49.3372 24.5972 50.0589 24.6019 51.0844C24.6066 52.1099 23.8194 52.8473 22.6816 52.8504C21.0053 52.8504 19.3291 52.8504 17.6028 52.8504C17.5934 53.0712 17.5762 53.2575 17.5762 53.4453C17.5762 54.989 17.5762 56.5311 17.5762 58.0732C17.5762 59.2083 16.839 60.0005 15.8139 59.9974C14.7887 59.9942 14.0672 59.2005 14.0641 58.0607C14.0641 56.3464 14.0641 54.6321 14.0641 52.8504H12.1593C11.0638 52.8504 9.96818 52.8582 8.88043 52.8504C7.79268 52.8426 7.01951 52.0786 7.03203 51.075C7.04299 50.0965 7.81459 49.3528 8.86321 49.3403C10.3861 49.3294 11.9089 49.3403 13.4318 49.3403H14.0281V42.1996C12.4238 41.6924 10.8165 41.3667 9.36874 40.6967C4.02702 38.2183 0.917154 34.0194 0.107992 28.1593C0.0845159 27.9903 0.0359975 27.8243 0 27.6568L0 25.0798Z" fill="#595959"/>
</g>
<defs>
<clipPath id="clip0_6607_21761">
<rect width="60" height="60" fill="white"/>
</clipPath>
</defs>
</svg>
