<svg width="60" height="60" viewBox="0 0 60 60" fill="none" xmlns="http://www.w3.org/2000/svg">
<g clip-path="url(#clip0_6607_23220)">
<g clip-path="url(#clip1_6607_23220)">
<path d="M0 48.1641C0.364453 47.509 0.930469 47.3191 1.66055 47.3332C3.47578 47.366 5.29336 47.3438 7.10859 47.3438H7.73438V46.6594C7.73438 43.9641 7.73438 41.2688 7.73438 38.5734C7.73438 37.432 8.14102 37.0312 9.29766 37.0312H17.1094V36.3855C17.1094 33.6902 17.1094 30.9949 17.1094 28.2996C17.1094 27.109 17.4996 26.7199 18.6926 26.7188H41.3098C42.5027 26.7188 42.8918 27.109 42.893 28.3008C42.893 30.9766 42.893 33.652 42.893 36.327V37.0301H50.7047C51.8613 37.0301 52.2668 37.4309 52.2668 38.5734C52.2668 41.2688 52.2668 43.9641 52.2668 46.6594V47.3438H55.8809C56.7012 47.3438 57.5215 47.3742 58.3418 47.3344C59.0719 47.298 59.6379 47.509 60.0023 48.1641V60H0V48.1641ZM2.37188 57.6223H57.6141V49.6875H56.9332C53.477 49.6875 50.0203 49.6875 46.5633 49.6875C45.6035 49.6875 45.0539 49.2563 45.0551 48.5156C45.0563 47.775 45.6047 47.3438 46.5656 47.3438C47.2289 47.3438 47.8934 47.3438 48.5578 47.3438H49.8773V39.4055H10.1168V42.1875H19.5199C19.6758 42.1875 19.8328 42.1816 19.9887 42.1875C20.7059 42.2355 21.2074 42.7254 21.2016 43.3594C21.1957 43.9934 20.6918 44.475 19.9699 44.5184C19.8141 44.5277 19.657 44.5184 19.5012 44.5184H10.1109V47.3309H10.834C19.2715 47.3309 27.709 47.3309 36.1465 47.3309C36.419 47.3211 36.6918 47.3415 36.9598 47.3918C37.2097 47.4493 37.4329 47.5896 37.593 47.79C37.7531 47.9903 37.8407 48.2389 37.8417 48.4954C37.8426 48.7518 37.7568 49.0011 37.5982 49.2026C37.4396 49.4042 37.2175 49.5461 36.968 49.6055C36.7006 49.6582 36.4281 49.6798 36.1559 49.6699C25.1402 49.6699 14.1246 49.6699 3.10898 49.6699H2.3707L2.37188 57.6223ZM19.4813 36.9891H40.4988V29.0941H19.4789L19.4813 36.9891Z" fill="#595959"/>
<path d="M30.4689 0C31.3115 0.326953 31.7474 1.00898 32.1154 1.78828C32.8478 3.33867 33.6388 4.86328 34.3771 6.41016C34.4386 6.56961 34.5449 6.70789 34.6831 6.80832C34.8214 6.90874 34.9858 6.96704 35.1564 6.97617C36.9541 7.21055 38.7459 7.49414 40.547 7.74141C42.0423 7.94766 42.8814 8.79609 42.6459 10.0523C42.5568 10.5293 42.2392 11.025 41.8912 11.3824C40.5693 12.7371 39.1959 14.0449 37.833 15.3551C37.7145 15.4517 37.6267 15.5807 37.5803 15.7264C37.5339 15.872 37.5309 16.028 37.5716 16.1754C37.9173 18.034 38.2338 19.8984 38.542 21.7641C38.7681 23.1305 38.1681 24.157 36.9646 24.3094C36.483 24.3703 35.9099 24.2145 35.4658 23.993C33.7713 23.1551 32.1177 22.2352 30.4267 21.3855C30.2938 21.3287 30.1506 21.2994 30.006 21.2994C29.8614 21.2994 29.7183 21.3287 29.5853 21.3855C27.8451 22.2645 26.1341 23.1996 24.3998 24.0902C23.2736 24.668 22.0173 24.2859 21.5978 23.1984C21.4403 22.7391 21.4001 22.2476 21.4806 21.7688C21.7607 19.8996 22.0888 18.0363 22.4322 16.1766C22.4715 16.03 22.4675 15.8752 22.4208 15.7309C22.374 15.5866 22.2863 15.4589 22.1685 15.3633C20.7755 14.0234 19.3916 12.675 18.0166 11.318C17.0662 10.3805 17.0369 9.01758 18.0107 8.30156C18.4255 7.9957 18.9974 7.8457 19.5201 7.75898C21.3084 7.46016 23.1048 7.21172 24.9025 6.9668C25.0537 6.95738 25.1989 6.90462 25.3209 6.81485C25.4429 6.72508 25.5364 6.60207 25.5904 6.46055C26.3474 4.87852 27.1502 3.31758 27.9025 1.73438C28.2658 0.965625 28.7111 0.314063 29.5314 0H30.4689ZM23.8584 21.7195C25.5962 20.8066 27.2228 19.9688 28.8283 19.1016C29.6216 18.6727 30.3693 18.6715 31.1627 19.1016C32.6017 19.882 34.0595 20.625 35.5103 21.3891C35.6861 21.4816 35.8619 21.5648 36.1326 21.6973C35.815 19.8281 35.5466 18.0762 35.2115 16.3371C35.0193 15.3398 35.2513 14.5547 35.999 13.8598C37.1709 12.7699 38.2994 11.6332 39.4443 10.5141C39.5767 10.3852 39.6998 10.2445 39.8486 10.084C39.7854 10.0438 39.7178 10.0112 39.647 9.98672C37.949 9.74063 36.2486 9.47578 34.5494 9.26367C33.5509 9.13945 32.8607 8.69063 32.4271 7.76016C31.7357 6.27656 30.9845 4.82109 30.2556 3.35391C30.183 3.20859 30.0916 3.07148 29.9779 2.87813C29.8677 3.08555 29.7927 3.21914 29.7248 3.35625C28.9888 4.85859 28.2423 6.35742 27.5111 7.86797C27.1314 8.65547 26.5373 9.1125 25.6713 9.22617C25.0338 9.30938 24.3963 9.40195 23.7599 9.49453C22.5705 9.66797 21.3834 9.8461 20.0931 10.0336C20.2947 10.248 20.4177 10.3852 20.5513 10.5199C21.7396 11.6789 22.9197 12.8461 24.1209 13.9898C24.7607 14.5992 24.9728 15.3176 24.8134 16.1684C24.763 16.4367 24.7138 16.7051 24.6681 16.9746C24.4056 18.5156 24.1408 20.0449 23.8584 21.7195Z" fill="#595959"/>
<path d="M9.28835 13.3589C8.72351 13.3589 8.15867 13.3741 7.59382 13.3589C6.83445 13.3331 6.32703 12.8468 6.33406 12.187C6.34109 11.5273 6.84499 11.0316 7.61726 11.0152C8.74695 10.9987 9.87664 10.9964 11.0052 11.0152C11.7598 11.028 12.2778 11.5331 12.2696 12.187C12.2614 12.8409 11.7446 13.3237 10.9805 13.346C10.418 13.3718 9.8532 13.3589 9.28835 13.3589Z" fill="black"/>
<path d="M50.6768 11.016C51.2417 11.016 51.8065 11.0042 52.3702 11.016C53.1354 11.037 53.6511 11.5058 53.6593 12.1656C53.6675 12.8253 53.1366 13.3374 52.3432 13.3515C51.2346 13.3671 50.1249 13.3671 49.0139 13.3515C48.2522 13.3398 47.7343 12.8605 47.7249 12.2007C47.7108 11.5234 48.244 11.0288 49.0409 11.016C49.5858 11.0054 50.1319 11.016 50.6768 11.016Z" fill="black"/>
<path d="M50.8856 19.2643C50.6395 19.5889 50.4532 19.9545 50.1602 20.1901C49.9922 20.3325 49.7773 20.4075 49.5571 20.4006C49.3369 20.3937 49.1272 20.3053 48.9684 20.1526C47.9911 19.2303 47.0313 18.287 46.1184 17.3026C45.7317 16.8866 45.8618 16.1952 46.2672 15.819C46.7243 15.3959 47.3969 15.3877 47.9079 15.8706C48.7563 16.6768 49.5801 17.5112 50.3876 18.3561C50.5844 18.5682 50.6794 18.8823 50.8856 19.2643Z" fill="black"/>
<path d="M14.085 16.8668C13.9971 17.0156 13.8729 17.3531 13.6455 17.5933C12.8955 18.3867 12.1221 19.1531 11.3323 19.9148C10.7334 20.5008 10.0643 20.5242 9.57445 20.0191C9.1057 19.5445 9.12796 18.8472 9.66351 18.2941C10.4498 17.4738 11.2537 16.6828 12.0635 15.8929C12.4409 15.525 12.9026 15.3855 13.4041 15.6105C13.8448 15.8109 14.085 16.1718 14.085 16.8668Z" fill="black"/>
<path d="M10.3313 3.85059C10.7543 4.10605 11.0906 4.23848 11.3332 4.46816C12.1266 5.21699 12.8953 5.9916 13.6559 6.77676C14.1961 7.3334 14.2301 8.02129 13.773 8.50176C13.3043 9.00449 12.5895 8.99512 12.0152 8.43496C11.202 7.64863 10.4062 6.84473 9.61641 6.03496C9.24492 5.65527 9.07383 5.15957 9.36445 4.70371C9.58242 4.36387 9.98672 4.14473 10.3313 3.85059Z" fill="black"/>
<path d="M46.9604 8.95264C46.6885 8.7499 46.2421 8.57998 46.1003 8.27061C45.9491 7.93897 45.9186 7.33311 46.1249 7.09873C47.0175 6.09557 47.9621 5.13995 48.9549 4.23584C49.3745 3.84795 49.9897 3.95108 50.3917 4.33662C50.7936 4.72217 50.9307 5.35264 50.5522 5.76514C49.6323 6.76826 48.6503 7.71279 47.6741 8.66201C47.5335 8.79561 47.2874 8.82373 46.9604 8.95264Z" fill="black"/>
<path d="M42.6843 48.5306C42.6778 48.7564 42.6047 48.9752 42.4743 49.1596C42.3438 49.344 42.1617 49.4858 41.9509 49.567C41.7401 49.6483 41.51 49.6654 41.2895 49.6163C41.069 49.5672 40.868 49.4541 40.7116 49.291C40.5552 49.128 40.4505 48.9224 40.4106 48.7001C40.3707 48.4777 40.3974 48.2485 40.4874 48.0413C40.5773 47.8341 40.7265 47.6581 40.9162 47.5354C41.1058 47.4127 41.3276 47.3487 41.5534 47.3517C41.8588 47.3608 42.1483 47.4895 42.3598 47.71C42.5713 47.9304 42.6878 48.2251 42.6843 48.5306Z" fill="black"/>
<path d="M26.4751 43.3849C26.4699 43.6147 26.3968 43.8378 26.2648 44.0261C26.1328 44.2143 25.948 44.3592 25.7337 44.4425C25.5194 44.5257 25.2852 44.5435 25.0608 44.4936C24.8364 44.4438 24.6318 44.3285 24.4729 44.1624C24.3139 43.9962 24.2078 43.7867 24.168 43.5603C24.1281 43.3339 24.1563 43.1008 24.249 42.8903C24.3416 42.6799 24.4945 42.5017 24.6884 42.3782C24.8824 42.2548 25.1085 42.1915 25.3384 42.1966C25.6429 42.2146 25.9292 42.3471 26.1401 42.5675C26.3509 42.7879 26.4706 43.0799 26.4751 43.3849Z" fill="black"/>
</g>
</g>
<defs>
<clipPath id="clip0_6607_23220">
<rect width="60" height="60" fill="white"/>
</clipPath>
<clipPath id="clip1_6607_23220">
<rect width="60" height="60" fill="white"/>
</clipPath>
</defs>
</svg>
