<svg width="60" height="60" viewBox="0 0 60 60" fill="none" xmlns="http://www.w3.org/2000/svg">
<g clip-path="url(#clip0_6607_23090)">
<path d="M14.8755 38.4796C14.2724 38.5937 13.6613 38.6779 13.0457 38.7318C10.4918 38.8266 8.31535 37.2221 8.29561 35.1543C8.25612 30.779 8.23198 26.4055 8.31097 22.032C8.36801 18.7282 11.8214 15.7714 15.8825 15.6802C20.9705 15.5621 26.0672 15.5621 31.1552 15.6444C35.9293 15.7303 39.273 18.6853 39.2884 22.6795C39.3038 26.6738 39.2643 30.7146 39.306 34.7321C39.3367 37.773 35.8986 39.4383 32.9959 38.4885C32.8832 38.47 32.7687 38.4598 32.6537 38.4581V39.2505C32.6537 44.2733 32.6734 49.2943 32.6405 54.3154C32.6405 55.478 32.4562 56.6407 32.3553 57.8231H43.7489V2.1465H42.8844C40.6136 2.1465 38.3406 2.1465 36.0676 2.1465C35.0539 2.1465 34.433 1.71541 34.4528 1.05357C34.4725 0.391736 35.0737 0 36.0412 0C43.4907 0 50.9379 0 58.383 0C59.5085 0 59.9605 0.379215 59.9978 1.30579C59.9978 1.43815 59.9978 1.57231 59.9978 1.70647V58.2828C60.0066 58.5053 60 58.7281 59.9781 58.95C59.8903 59.5975 59.4296 59.9517 58.6375 59.9946C58.4181 60.0054 58.1987 59.9946 57.9793 59.9946H1.63455C0.607745 59.9839 0 59.585 0 58.9214C0 58.2578 0.607745 57.8481 1.63894 57.8481C5.93776 57.8481 10.2359 57.8481 14.5332 57.8481H15.5425C14.7263 56.664 14.8843 55.4494 14.8843 54.2528C14.8843 49.2323 14.8843 44.2107 14.8843 39.1879L14.8755 38.4796ZM30.0274 41.7512C30.0274 37.178 30.0274 32.6035 30.0274 28.0279C30.0145 27.783 30.027 27.5377 30.0647 27.2945C30.0822 27.1606 30.1319 27.0308 30.211 26.9126C30.2901 26.7943 30.3969 26.6899 30.5255 26.6054C30.6541 26.5208 30.8018 26.4577 30.9603 26.4198C31.1188 26.3818 31.2849 26.3697 31.4492 26.384C31.77 26.3888 32.0754 26.4971 32.2984 26.6852C32.5213 26.8734 32.6436 27.126 32.6383 27.3875C32.6668 27.7202 32.6537 28.0565 32.6537 28.391C32.6537 30.5375 32.6383 32.6751 32.6537 34.8162C32.669 36.0379 33.7507 36.7838 35.1 36.5638C36.0785 36.3975 36.6512 35.7285 36.6556 34.6874C36.6643 31.854 36.6643 29.0201 36.6556 26.1855C36.6556 24.826 36.7236 23.4594 36.6051 22.1054C36.3857 19.6011 34.1281 17.8124 31.074 17.7766C26.2003 17.7193 21.3274 17.7193 16.4552 17.7766C13.2431 17.8159 10.9197 19.8104 10.9021 22.4273C10.8736 26.554 10.8889 30.6824 10.9021 34.8108C10.9021 35.9181 11.7051 36.5996 12.9162 36.5889C14.0834 36.5746 14.8557 35.8734 14.8667 34.8144C14.8667 33.3834 14.8667 31.9524 14.8667 30.5304C14.8667 29.5251 14.8514 28.5216 14.8667 27.5181C14.8821 26.8187 15.3933 26.3823 16.1502 26.3715C16.9072 26.3608 17.4557 26.8062 17.4864 27.5414C17.4864 27.7435 17.4864 27.9438 17.4864 28.1442C17.4864 37.1833 17.4864 46.2207 17.4864 55.2562C17.4864 55.5031 17.471 55.7499 17.4864 55.9932C17.541 56.4678 17.7963 56.9122 18.2085 57.2503C18.6208 57.5884 19.1644 57.7991 19.7462 57.8464C20.3241 57.8874 20.9013 57.7618 21.3772 57.4915C21.8531 57.2211 22.1976 56.8232 22.3505 56.3671C22.4271 56.0618 22.4566 55.7499 22.4383 55.4387C22.4383 49.6801 22.4383 43.9227 22.4383 38.1665C22.4223 37.9002 22.4533 37.6333 22.5304 37.3741C22.6176 37.1446 22.7986 36.9463 23.0432 36.8123C23.2879 36.6783 23.5814 36.6166 23.875 36.6375C24.1686 36.6584 24.4446 36.7607 24.657 36.9272C24.8694 37.0938 25.0055 37.3146 25.0426 37.553C25.0697 37.7753 25.077 37.9988 25.0645 38.222V55.292C25.0535 55.5372 25.0601 55.7827 25.0843 56.0272C25.1492 56.4858 25.4004 56.9135 25.798 57.2422C26.1956 57.571 26.7167 57.7817 27.2783 57.841C27.8288 57.8956 28.3857 57.7948 28.856 57.5552C29.3264 57.3156 29.6817 56.9518 29.8629 56.5245C29.9873 56.1609 30.0406 55.7836 30.0208 55.4065C30.0311 50.8559 30.0333 46.3042 30.0274 41.7512ZM46.4826 57.807H57.3233V2.19122H46.4848V7.02084C46.577 7.05483 46.623 7.08702 46.6713 7.08702C47.4655 7.08702 48.2576 7.09776 49.0518 7.10491C50.1006 7.11385 50.6864 7.49486 50.6907 8.17816C50.6951 8.86146 50.1093 9.25141 49.0672 9.25141C48.2027 9.25141 47.3405 9.25141 46.4914 9.25141V13.3655H47.426C48.9048 13.3655 50.3836 13.353 51.8602 13.3655C52.6807 13.3781 53.1766 13.7913 53.1941 14.3905C53.2117 14.9897 52.74 15.4119 51.9282 15.4834C51.5733 15.504 51.2174 15.5094 50.8619 15.4995C49.4182 15.4995 47.9767 15.4995 46.487 15.4995V19.5725C47.3646 19.5725 48.2027 19.5725 49.043 19.5725C50.0896 19.5725 50.682 19.9678 50.6907 20.6457C50.6995 21.3237 50.1181 21.719 49.0738 21.719C48.2115 21.719 47.3471 21.719 46.5155 21.719V25.8331C48.2883 25.8331 49.9843 25.8331 51.6803 25.8331C52.6325 25.8331 53.1678 26.2087 53.1941 26.8473C53.2205 27.5163 52.6676 27.9528 51.7044 27.9671C50.3616 27.9868 49.0211 27.9671 47.6784 27.9671H46.5133V32.0347C47.426 32.0347 48.2685 32.0258 49.1176 32.0347C50.1027 32.049 50.682 32.4461 50.6995 33.0919C50.7171 33.7734 50.14 34.1651 49.0935 34.174C48.229 34.174 47.3646 34.174 46.5199 34.174V38.2882C48.3388 38.2882 50.0896 38.2774 51.8404 38.2882C52.6544 38.2882 53.1722 38.7014 53.2029 39.2917C53.2336 39.9177 52.7246 40.3864 51.8865 40.4132C50.9036 40.4472 49.9119 40.4257 48.9311 40.4257H46.5002V44.4987C47.4019 44.4987 48.2554 44.488 49.0935 44.4987C50.1291 44.5148 50.7149 44.9298 50.6929 45.6059C50.671 46.2821 50.1115 46.6255 49.1023 46.6363C48.2247 46.6363 47.369 46.6363 46.5089 46.6363V50.7504C48.2642 50.7504 49.9689 50.7504 51.6649 50.7504C52.6412 50.7504 53.2007 51.1582 53.2007 51.8236C53.2007 52.489 52.6368 52.8736 51.6495 52.8969C51.2393 52.8969 50.829 52.8969 50.4187 52.8969H46.4914L46.4826 57.807Z" fill="#595959"/>
<path d="M31.8423 6.6041C31.8371 7.90517 31.3591 9.1758 30.4687 10.2555C29.5782 11.3352 28.3153 12.1756 26.8394 12.6705C25.3635 13.1654 23.7408 13.2925 22.1763 13.036C20.6117 12.7794 19.1756 12.1506 18.0491 11.229C16.9227 10.3074 16.1565 9.13429 15.8473 7.85787C15.5381 6.58144 15.6999 5.25895 16.3121 4.05742C16.9243 2.85588 17.9595 1.82921 19.287 1.10707C20.6145 0.384921 22.1746 -0.000304814 23.7705 4.18219e-05C24.834 -0.00305463 25.8877 0.165822 26.8705 0.496898C27.8534 0.827975 28.746 1.31468 29.4967 1.92885C30.2474 2.54302 30.8412 3.27246 31.2438 4.07496C31.6465 4.87746 31.8499 5.73709 31.8423 6.6041ZM29.2095 6.57906C29.2073 5.70247 28.8868 4.84605 28.2883 4.11781C27.6898 3.38957 26.8402 2.82215 25.8467 2.4871C24.8531 2.15206 23.7601 2.06441 22.7055 2.23521C21.6509 2.40601 20.682 2.82761 19.9209 3.44683C19.1599 4.06605 18.6408 4.85514 18.4292 5.71458C18.2176 6.57403 18.3229 7.46531 18.7319 8.27601C19.1408 9.08672 19.8351 9.78052 20.7271 10.2699C21.6192 10.7593 22.669 11.0224 23.7442 11.0259C24.4622 11.0292 25.1739 10.9165 25.8382 10.6943C26.5026 10.4722 27.1063 10.1449 27.6147 9.73148C28.123 9.31804 28.5259 8.82659 28.8 8.28552C29.0741 7.74444 29.214 7.16446 29.2117 6.57906H29.2095Z" fill="#595959"/>
</g>
<defs>
<clipPath id="clip0_6607_23090">
<rect width="60" height="60" fill="white"/>
</clipPath>
</defs>
</svg>
