<svg width="60" height="60" viewBox="0 0 60 60" fill="none" xmlns="http://www.w3.org/2000/svg">
<g clip-path="url(#clip0_6607_24486)">
<g clip-path="url(#clip1_6607_24486)">
<path d="M0 48.1641C0.364453 47.509 0.930469 47.3191 1.66055 47.3332C3.47578 47.366 5.29336 47.3438 7.10859 47.3438H7.73438V46.6594C7.73438 43.9641 7.73438 41.2688 7.73438 38.5734C7.73438 37.432 8.14102 37.0312 9.29766 37.0312H17.1094V36.3855C17.1094 33.6902 17.1094 30.9949 17.1094 28.2996C17.1094 27.109 17.4996 26.7199 18.6926 26.7188H41.3098C42.5027 26.7188 42.8918 27.109 42.893 28.3008C42.893 30.9766 42.893 33.652 42.893 36.327V37.0301H50.7047C51.8613 37.0301 52.2668 37.4309 52.2668 38.5734C52.2668 41.2688 52.2668 43.9641 52.2668 46.6594V47.3438H55.8809C56.7012 47.3438 57.5215 47.3742 58.3418 47.3344C59.0719 47.298 59.6379 47.509 60.0023 48.1641V60H0V48.1641ZM2.37188 57.6223H57.6141V49.6875H56.9332C53.477 49.6875 50.0203 49.6875 46.5633 49.6875C45.6035 49.6875 45.0539 49.2563 45.0551 48.5156C45.0563 47.775 45.6047 47.3438 46.5656 47.3438C47.2289 47.3438 47.8934 47.3438 48.5578 47.3438H49.8773V39.4055H10.1168V42.1875H19.5199C19.6758 42.1875 19.8328 42.1816 19.9887 42.1875C20.7059 42.2355 21.2074 42.7254 21.2016 43.3594C21.1957 43.9934 20.6918 44.475 19.9699 44.5184C19.8141 44.5277 19.657 44.5184 19.5012 44.5184H10.1109V47.3309H10.834C19.2715 47.3309 27.709 47.3309 36.1465 47.3309C36.419 47.3211 36.6918 47.3415 36.9598 47.3918C37.2097 47.4493 37.4329 47.5896 37.593 47.79C37.7531 47.9903 37.8407 48.2389 37.8417 48.4954C37.8426 48.7518 37.7568 49.0011 37.5982 49.2026C37.4396 49.4042 37.2175 49.5461 36.968 49.6055C36.7006 49.6582 36.4281 49.6798 36.1559 49.6699C25.1402 49.6699 14.1246 49.6699 3.10898 49.6699H2.3707L2.37188 57.6223ZM19.4813 36.9891H40.4988V29.0941H19.4789L19.4813 36.9891Z" fill="white"/>
<path d="M30.4679 0C31.3105 0.326953 31.7464 1.00898 32.1144 1.78828C32.8468 3.33867 33.6379 4.86328 34.3761 6.41016C34.4376 6.56961 34.5439 6.70789 34.6821 6.80832C34.8204 6.90874 34.9848 6.96704 35.1554 6.97617C36.9531 7.21055 38.7449 7.49414 40.5461 7.74141C42.0414 7.94766 42.8804 8.79609 42.6449 10.0523C42.5558 10.5293 42.2382 11.025 41.8902 11.3824C40.5683 12.7371 39.1949 14.0449 37.832 15.3551C37.7135 15.4517 37.6257 15.5807 37.5793 15.7264C37.5329 15.872 37.5299 16.028 37.5707 16.1754C37.9164 18.034 38.2328 19.8984 38.541 21.7641C38.7671 23.1305 38.1671 24.157 36.9636 24.3094C36.482 24.3703 35.9089 24.2145 35.4648 23.993C33.7703 23.1551 32.1168 22.2352 30.4257 21.3855C30.2928 21.3287 30.1497 21.2994 30.005 21.2994C29.8604 21.2994 29.7173 21.3287 29.5843 21.3855C27.8441 22.2645 26.1332 23.1996 24.3988 24.0902C23.2726 24.668 22.0164 24.2859 21.5968 23.1984C21.4394 22.7391 21.3991 22.2476 21.4796 21.7688C21.7597 19.8996 22.0879 18.0363 22.4312 16.1766C22.4705 16.03 22.4666 15.8752 22.4198 15.7309C22.373 15.5866 22.2854 15.4589 22.1675 15.3633C20.7746 14.0234 19.3906 12.675 18.0156 11.318C17.0652 10.3805 17.0359 9.01758 18.0097 8.30156C18.4246 7.9957 18.9964 7.8457 19.5191 7.75898C21.3074 7.46016 23.1039 7.21172 24.9015 6.9668C25.0527 6.95738 25.1979 6.90462 25.3199 6.81485C25.4419 6.72508 25.5355 6.60207 25.5894 6.46055C26.3464 4.87852 27.1492 3.31758 27.9015 1.73438C28.2648 0.965625 28.7101 0.314063 29.5304 0H30.4679ZM23.8574 21.7195C25.5953 20.8066 27.2218 19.9688 28.8273 19.1016C29.6207 18.6727 30.3683 18.6715 31.1617 19.1016C32.6007 19.882 34.0586 20.625 35.5093 21.3891C35.6851 21.4816 35.8609 21.5648 36.1316 21.6973C35.814 19.8281 35.5457 18.0762 35.2105 16.3371C35.0183 15.3398 35.2504 14.5547 35.998 13.8598C37.1699 12.7699 38.2984 11.6332 39.4433 10.5141C39.5757 10.3852 39.6988 10.2445 39.8476 10.084C39.7845 10.0438 39.7168 10.0112 39.6461 9.98672C37.948 9.74063 36.2476 9.47578 34.5484 9.26367C33.55 9.13945 32.8597 8.69063 32.4261 7.76016C31.7347 6.27656 30.9836 4.82109 30.2546 3.35391C30.182 3.20859 30.0906 3.07148 29.9769 2.87813C29.8668 3.08555 29.7918 3.21914 29.7238 3.35625C28.9879 4.85859 28.2414 6.35742 27.5101 7.86797C27.1304 8.65547 26.5363 9.1125 25.6703 9.22617C25.0328 9.30938 24.3953 9.40195 23.7589 9.49453C22.5695 9.66797 21.3824 9.8461 20.0922 10.0336C20.2937 10.248 20.4168 10.3852 20.5504 10.5199C21.7386 11.6789 22.9187 12.8461 24.1199 13.9898C24.7597 14.5992 24.9718 15.3176 24.8125 16.1684C24.7621 16.4367 24.7129 16.7051 24.6671 16.9746C24.4046 18.5156 24.1398 20.0449 23.8574 21.7195Z" fill="white"/>
<path d="M9.28835 13.3589C8.72351 13.3589 8.15867 13.3741 7.59382 13.3589C6.83445 13.3331 6.32703 12.8468 6.33406 12.187C6.34109 11.5273 6.84499 11.0316 7.61726 11.0152C8.74695 10.9987 9.87664 10.9964 11.0052 11.0152C11.7598 11.028 12.2778 11.5331 12.2696 12.187C12.2614 12.8409 11.7446 13.3237 10.9805 13.346C10.418 13.3718 9.8532 13.3589 9.28835 13.3589Z" fill="white"/>
<path d="M50.6768 11.016C51.2417 11.016 51.8065 11.0042 52.3702 11.016C53.1354 11.037 53.6511 11.5058 53.6593 12.1656C53.6675 12.8253 53.1366 13.3374 52.3432 13.3515C51.2346 13.3671 50.1249 13.3671 49.0139 13.3515C48.2522 13.3398 47.7343 12.8605 47.7249 12.2007C47.7108 11.5234 48.244 11.0288 49.0409 11.016C49.5858 11.0054 50.1319 11.016 50.6768 11.016Z" fill="white"/>
<path d="M50.8856 19.2643C50.6395 19.5889 50.4532 19.9545 50.1602 20.1901C49.9922 20.3325 49.7773 20.4075 49.5571 20.4006C49.3369 20.3937 49.1272 20.3053 48.9684 20.1526C47.9911 19.2303 47.0313 18.287 46.1184 17.3026C45.7317 16.8866 45.8618 16.1952 46.2672 15.819C46.7243 15.3959 47.3969 15.3877 47.9079 15.8706C48.7563 16.6768 49.5801 17.5112 50.3876 18.3561C50.5844 18.5682 50.6794 18.8823 50.8856 19.2643Z" fill="white"/>
<path d="M14.084 16.8668C13.9961 17.0156 13.8719 17.3531 13.6446 17.5933C12.8946 18.3867 12.1211 19.1531 11.3313 19.9148C10.7325 20.5008 10.0633 20.5242 9.57347 20.0191C9.10472 19.5445 9.12699 18.8472 9.66253 18.2941C10.4489 17.4738 11.2528 16.6828 12.0625 15.8929C12.4399 15.525 12.9016 15.3855 13.4032 15.6105C13.8438 15.8109 14.084 16.1718 14.084 16.8668Z" fill="white"/>
<path d="M10.3322 3.85059C10.7553 4.10605 11.0916 4.23848 11.3342 4.46816C12.1275 5.21699 12.8963 5.9916 13.6568 6.77676C14.1971 7.3334 14.2311 8.02129 13.774 8.50176C13.3053 9.00449 12.5904 8.99512 12.0162 8.43496C11.2029 7.64863 10.4072 6.84473 9.61738 6.03496C9.2459 5.65527 9.0748 5.15957 9.36543 4.70371C9.5834 4.36387 9.9877 4.14473 10.3322 3.85059Z" fill="white"/>
<path d="M46.9604 8.95264C46.6885 8.7499 46.2421 8.57998 46.1003 8.27061C45.9491 7.93897 45.9186 7.33311 46.1249 7.09873C47.0175 6.09557 47.9621 5.13995 48.9549 4.23584C49.3745 3.84795 49.9897 3.95108 50.3917 4.33662C50.7936 4.72217 50.9307 5.35264 50.5522 5.76514C49.6323 6.76826 48.6503 7.71279 47.6741 8.66201C47.5335 8.79561 47.2874 8.82373 46.9604 8.95264Z" fill="white"/>
<path d="M42.6843 48.5306C42.6778 48.7564 42.6047 48.9752 42.4743 49.1596C42.3438 49.344 42.1617 49.4858 41.9509 49.567C41.7401 49.6483 41.51 49.6654 41.2895 49.6163C41.069 49.5672 40.868 49.4541 40.7116 49.291C40.5552 49.128 40.4505 48.9224 40.4106 48.7001C40.3707 48.4777 40.3974 48.2485 40.4874 48.0413C40.5773 47.8341 40.7265 47.6581 40.9162 47.5354C41.1058 47.4127 41.3276 47.3487 41.5534 47.3517C41.8588 47.3608 42.1483 47.4895 42.3598 47.71C42.5713 47.9304 42.6878 48.2251 42.6843 48.5306Z" fill="white"/>
<path d="M26.4751 43.3849C26.4699 43.6147 26.3968 43.8378 26.2648 44.0261C26.1328 44.2143 25.948 44.3592 25.7337 44.4425C25.5194 44.5257 25.2852 44.5435 25.0608 44.4936C24.8364 44.4438 24.6318 44.3285 24.4729 44.1624C24.3139 43.9962 24.2078 43.7867 24.168 43.5603C24.1281 43.3339 24.1563 43.1008 24.249 42.8903C24.3416 42.6799 24.4945 42.5017 24.6884 42.3782C24.8824 42.2548 25.1085 42.1915 25.3384 42.1966C25.6429 42.2146 25.9292 42.3471 26.1401 42.5675C26.3509 42.7879 26.4706 43.0799 26.4751 43.3849Z" fill="white"/>
</g>
</g>
<defs>
<clipPath id="clip0_6607_24486">
<rect width="60" height="60" fill="white"/>
</clipPath>
<clipPath id="clip1_6607_24486">
<rect width="60" height="60" fill="white"/>
</clipPath>
</defs>
</svg>
