<svg width="60" height="60" viewBox="0 0 60 60" fill="none" xmlns="http://www.w3.org/2000/svg">
<g clip-path="url(#clip0_6607_22849)">
<path d="M57.9935 18.0291H2.00317V22.4713C2.00317 23.5063 1.70437 23.9737 1.03163 23.9971C0.358902 24.0204 0 23.5213 0 22.4646V8.34686C0 6.21509 1.21025 5.00814 3.32193 5.00814H8.99758C8.99758 4.3404 8.99758 3.72441 8.99758 3.10675C9.02262 1.33556 10.318 7.54343e-05 12.004 7.54343e-05C13.69 7.54343e-05 14.9821 1.33556 15.0088 3.0984C15.0088 3.70104 15.0088 4.30368 15.0088 4.95306H21.0083C21.0083 4.33873 21.0083 3.72274 21.0083 3.10508C21.0183 1.33556 22.3103 7.54343e-05 23.993 7.54343e-05C25.6757 7.54343e-05 26.9794 1.33556 26.9977 3.09005C26.9977 3.69269 26.9977 4.297 26.9977 4.94972H32.9972C32.9972 4.34541 32.9972 3.72942 32.9972 3.11342C33.0156 1.34725 34.301 7.54343e-05 35.982 7.54343e-05C37.663 7.54343e-05 38.975 1.32221 38.9967 3.08171C38.9967 3.70104 38.9967 4.32037 38.9967 4.96808H44.9962C44.9962 4.37379 44.9962 3.77783 44.9962 3.18354C45.0046 1.3606 46.2666 0.0117609 47.971 7.54343e-05C49.707 -0.0116101 50.9841 1.33556 50.9941 3.19856C50.9941 3.77783 50.9941 4.35543 50.9941 4.99813H53.468C54.6549 4.99813 55.8418 4.9831 57.0286 4.99813C57.8086 5.00499 58.555 5.31642 59.1086 5.86595C59.6622 6.41549 59.9791 7.15961 59.9917 7.93953C59.9917 8.1265 59.9917 8.31514 59.9917 8.50211V48.4331C60.0062 48.6619 60.0006 48.8914 59.975 49.1192C59.8781 49.6567 59.5426 49.9823 58.9901 49.9806C58.4375 49.9789 58.1037 49.6551 58.0085 49.1142C57.9842 48.8863 57.9792 48.6568 57.9935 48.4281C57.9935 38.5555 57.9935 28.6824 57.9935 18.8087V18.0291ZM9.00426 6.99802C7.05784 6.99802 5.18821 6.99802 3.31859 6.99802C2.33703 6.99802 2.00651 7.33189 2.00651 8.30846C2.00651 10.6823 2.00651 13.0567 2.00651 15.4316C2.00651 15.6102 2.02988 15.7888 2.0399 15.9491H57.9918C57.9918 13.2781 58.0002 10.6556 57.9918 8.03135C57.9918 7.3803 57.5828 7.01304 56.9084 7.00135C56.0337 6.98633 55.159 7.00135 54.2843 7.00135H50.9957C50.9957 7.64406 50.9957 8.22332 50.9957 8.80092C50.9857 10.6589 49.7054 12.0128 47.9726 11.9994C46.2683 11.9894 45.0063 10.6389 44.9979 8.81595C44.9979 8.22165 44.9979 7.62736 44.9979 7.03307H38.9984C38.9984 7.57728 38.97 8.09311 38.9984 8.60728C39.1353 10.7658 37.496 12.0111 35.977 12.0044C34.4879 12.0044 32.857 10.7624 32.9889 8.63565C33.0223 8.1048 32.9889 7.56894 32.9889 7.05144H26.9994C26.9994 7.70582 26.9994 8.30846 26.9994 8.91277C26.9794 10.6706 25.6757 12.0044 23.9947 11.9994C22.3137 11.9944 21.0233 10.6639 21.0066 8.89274C21.0066 8.27507 21.0066 7.65908 21.0066 7.05644H15.0004C15.0004 7.74923 15.0138 8.39193 15.0004 9.03797C14.9612 9.80729 14.6272 10.532 14.0678 11.0615C13.5084 11.5911 12.7665 11.8848 11.9962 11.8818C11.2259 11.8788 10.4864 11.5793 9.93109 11.0454C9.37582 10.5115 9.0475 9.7842 9.01427 9.0146C8.99257 8.3769 9.00426 7.73253 9.00426 6.99802ZM11.0074 5.98472C11.0074 6.92289 11.0074 7.8594 11.0074 8.79758C11.0074 9.53711 11.388 9.98449 11.9907 9.99451C12.5933 10.0045 12.9922 9.55213 13.0023 8.82596C13.0089 6.95072 13.0089 5.07603 13.0023 3.2019C13.0023 2.46238 12.62 2.01499 12.0174 2.00664C11.4147 1.99829 11.0158 2.44735 11.0158 3.17519C10.9974 4.11003 11.0041 5.04821 11.0041 5.98472H11.0074ZM23.0048 5.98472C23.0048 6.92289 23.0048 7.8594 23.0048 8.79591C23.0048 9.53377 23.3904 9.98283 23.993 9.9895C24.5956 9.99618 24.9946 9.54379 24.9946 8.82095C25.0013 6.94682 25.0013 5.07214 24.9946 3.19689C24.9946 2.45737 24.609 2.00998 24.0047 2.00497C23.4004 1.99996 23.0031 2.44735 23.0031 3.17352C22.9947 4.11504 23.0014 5.05322 23.0014 5.98973L23.0048 5.98472ZM37.0019 6.00809C37.0019 5.07158 37.0019 4.1334 37.0019 3.19689C37.0019 2.4557 36.6213 2.00831 36.0187 1.99829C35.4161 1.98828 35.0088 2.43734 35.0054 3.16684C34.9987 5.04209 34.9987 6.91677 35.0054 8.7909C35.0054 9.53043 35.386 9.97949 35.987 9.9895C36.5879 9.99952 36.9886 9.53544 37.0019 8.75752C37.0019 7.84605 36.9986 6.92957 36.9986 6.00976L37.0019 6.00809ZM48.9992 6.03313C48.9992 5.07492 48.9992 4.11671 48.9992 3.1585C48.9992 2.43233 48.5869 1.98995 47.9793 1.99829C47.3717 2.00664 47.0094 2.44735 47.0061 3.1418C46.9983 5.03374 46.9983 6.92902 47.0061 8.82763C47.0061 9.55046 47.4201 9.99618 48.026 9.99618C48.607 9.98116 48.9926 9.54212 48.9992 8.851C49.0026 7.91282 48.9959 6.97465 48.9959 6.03814L48.9992 6.03313Z" fill="white"/>
<path d="M32.9988 36.9843H37.0052V36.3917C37.0052 35.0162 37.0052 33.6423 37.0052 32.2667C37.0052 31.3586 37.349 31.0064 38.2354 31.0014C39.4223 31.0014 40.6092 31.0014 41.7961 31.0014C42.6441 31.0014 42.9963 31.3669 42.9996 32.2317C42.9996 33.7908 42.9996 35.3517 42.9996 36.9993C43.6273 36.9993 44.2216 36.9993 44.8159 36.9993C46.7306 37.0094 47.9875 38.2564 47.9976 40.1711C48.0042 44.3579 48.0042 48.5446 47.9976 52.7314C47.9976 53.6629 47.652 54.0051 46.7105 54.0051H13.2826C12.3444 54.0051 12.0039 53.6629 12.0039 52.723C12.0039 48.5363 12.0039 44.3495 12.0039 40.1628C12.0039 38.263 13.2759 37.0144 15.1923 37.006C15.7715 37.006 16.3491 37.006 17.0001 37.006V32.7191C17.0001 32.4887 17.0001 32.26 17.0001 32.0313C17.0352 31.4003 17.3958 31.0114 18.0218 31.0014C19.3338 30.9813 20.6454 30.9813 21.9563 31.0014C22.6241 31.0114 22.988 31.4187 22.993 32.1432C22.993 33.7257 22.993 35.315 22.993 36.9426H26.9993V35.926C26.9993 34.6756 26.9993 33.4219 26.9993 32.1766C26.9993 31.3619 27.3682 31.008 28.1879 30.9963C29.3953 30.9874 30.6034 30.9874 31.8119 30.9963C32.6266 30.9963 32.9805 31.3653 32.9938 32.1849C33.0038 33.7691 32.9988 35.3467 32.9988 36.9843ZM14.0221 51.9534H45.976V45.0473C45.3717 45.0707 45.2916 45.1158 44.6155 45.8102C43.0681 47.4044 40.9431 47.4028 39.3756 45.8102C39.3021 45.7351 39.2303 45.66 39.1552 45.5865C38.3206 44.7785 37.6729 44.7802 36.8366 45.5865C36.688 45.7317 36.5494 45.8887 36.3992 46.0322C35.7528 46.6516 34.8922 46.9973 33.9971 46.9973C33.1019 46.9973 32.2413 46.6516 31.5949 46.0322C31.443 45.8887 31.3061 45.7317 31.1559 45.5865C30.3212 44.7785 29.6735 44.7802 28.8372 45.5949C28.6887 45.7401 28.5518 45.897 28.3999 46.0389C27.7535 46.6582 26.8929 47.004 25.9977 47.004C25.1026 47.004 24.242 46.6582 23.5956 46.0389C23.4604 45.9087 23.3352 45.7685 23.2016 45.6366C22.3236 44.7685 21.6759 44.7702 20.7945 45.6449C20.6609 45.7768 20.5374 45.9187 20.4005 46.0473C19.7529 46.6652 18.8916 47.0092 17.9964 47.0073C17.1012 47.0055 16.2413 46.6579 15.5963 46.0372C15.3887 45.8059 15.1656 45.5889 14.9285 45.3879C14.6401 45.2118 14.3388 45.0578 14.0271 44.9271L14.0221 51.9534ZM14.0054 42.9723C15.2207 43.0758 16.1104 43.615 16.8883 44.438C17.6378 45.2309 18.3273 45.2059 19.1102 44.4614C19.2904 44.2944 19.454 44.0991 19.6377 43.9305C20.2846 43.3279 21.1372 42.9949 22.0214 42.9995C22.9056 43.0042 23.7546 43.3461 24.3952 43.9556C24.5771 44.1225 24.7407 44.3161 24.9227 44.4881C25.6672 45.1859 26.3216 45.1925 27.0594 44.5048C27.243 44.3378 27.4083 44.1459 27.5886 43.9739C28.0883 43.4796 28.7295 43.1531 29.4232 43.0398C30.1169 42.9264 30.8286 43.0318 31.4597 43.3412C31.8833 43.5596 32.2693 43.8442 32.6032 44.1843C33.7133 45.2894 34.2942 45.3061 35.3676 44.1993C35.441 44.1258 35.5095 44.0474 35.5846 43.9756C36.2359 43.3459 37.1074 42.9957 38.0133 42.9994C38.9192 43.0031 39.7878 43.3606 40.4339 43.9956C40.6276 44.1843 40.8045 44.3913 41.0065 44.5715C41.6592 45.1542 42.352 45.2009 42.9529 44.5849C43.8026 43.7152 44.7174 43.0224 45.9961 42.989V40.4716C45.9961 39.278 45.719 38.9992 44.5321 38.9992H15.4861C15.3192 38.9992 15.1522 38.9909 14.9853 38.9992C14.3944 39.046 14.0171 39.4049 14.0021 40.0008C13.9887 40.9824 14.0054 41.959 14.0054 42.9723ZM20.9514 36.976V33.033H19.04V36.976H20.9514ZM29.0459 33.0229V36.9626H30.9539V33.0229H29.0459ZM40.9481 36.971V33.053H39.03V36.9743L40.9481 36.971Z" fill="white"/>
<path d="M29.936 60.0001H3.44243C1.17885 60.0001 0.000313576 58.8349 0.000313576 56.5913V27.5261C-0.0111259 27.3185 -0.00666132 27.1104 0.0136681 26.9035C0.100472 26.3593 0.425988 26.0421 0.97686 26.0087C1.23008 25.998 1.47757 26.086 1.6672 26.2541C1.85683 26.4223 1.9738 26.6575 1.99347 26.9101C2.00991 27.1178 2.01381 27.3263 2.00515 27.5345V56.5312C2.00515 57.7214 2.28393 57.9986 3.47582 57.9986H56.5231C57.715 57.9986 57.9938 57.7198 57.9938 56.5329C57.9938 55.4277 57.9938 54.3243 57.9938 53.2209C57.9938 52.4496 58.3978 51.9855 59.0221 52.0039C59.6464 52.0223 59.987 52.4697 59.9903 53.2159C59.997 54.4245 59.997 55.6331 59.9903 56.8417C59.9803 58.7448 58.72 59.9968 56.8003 59.9984C47.8461 60.0018 38.8913 60.0023 29.936 60.0001Z" fill="white"/>
<path d="M20.0183 29.9968C17.9935 30.0068 16.461 28.0269 17.1905 26.1456C17.6913 24.8451 18.4726 23.6415 19.2037 22.4396C19.2811 22.3 19.394 22.1832 19.5309 22.101C19.6678 22.0189 19.8239 21.9743 19.9836 21.9718C20.1432 21.9693 20.3007 22.0088 20.4401 22.0866C20.5796 22.1643 20.6961 22.2774 20.7779 22.4146C21.5191 23.6332 22.307 24.8552 22.8161 26.1756C23.5372 28.0303 22.0148 29.9884 20.0183 29.9968ZM20.1285 24.9436H19.8731C19.596 25.5813 19.2505 26.2007 19.0769 26.8651C19.0067 27.1338 19.2304 27.6413 19.4708 27.7832C19.6365 27.8636 19.8183 27.9053 20.0025 27.9053C20.1867 27.9053 20.3684 27.8636 20.5342 27.7832C20.7745 27.6396 20.9949 27.1322 20.9231 26.8634C20.7495 26.199 20.4056 25.5797 20.1285 24.9436Z" fill="white"/>
<path d="M29.9754 29.997C28.0056 29.9836 26.4799 28.0572 27.171 26.2276C27.6718 24.8921 28.4764 23.6451 29.2292 22.4098C29.3119 22.2731 29.4291 22.1607 29.5691 22.0838C29.709 22.007 29.8668 21.9683 30.0265 21.9719C30.1861 21.9755 30.342 22.0211 30.4784 22.1041C30.6148 22.1871 30.7269 22.3046 30.8034 22.4448C31.5212 23.6284 32.2824 24.8153 32.7899 26.0957C33.5527 28.0071 32.027 30.012 29.9754 29.997ZM30.1273 24.9372L29.8652 24.9472C29.5898 25.5882 29.2443 26.2126 29.0723 26.8803C29.0039 27.1457 29.2392 27.6349 29.4796 27.7951C29.6356 27.8763 29.8084 27.9201 29.9843 27.923C30.1602 27.9259 30.3343 27.8878 30.4929 27.8118C30.7433 27.6582 30.9937 27.1691 30.9336 26.9087C30.7583 26.2276 30.4078 25.5916 30.1273 24.9372Z" fill="white"/>
<path d="M39.9845 29.9971C37.9813 29.9887 36.4672 28.0322 37.1817 26.1759C37.6908 24.8554 38.4787 23.6335 39.2233 22.4182C39.3044 22.2808 39.4203 22.1673 39.5594 22.089C39.6985 22.0108 39.8558 21.9707 40.0153 21.9727C40.1748 21.9748 40.331 22.0189 40.4681 22.1006C40.6051 22.1823 40.7181 22.2988 40.7957 22.4382C41.5169 23.6218 42.2764 24.807 42.7856 26.0858C43.5468 27.9988 42.036 30.0054 39.9845 29.9971ZM40.1364 24.9523L39.8743 24.9356C39.5938 25.59 39.2433 26.2243 39.0663 26.9054C38.9979 27.1658 39.25 27.655 39.5004 27.8102C39.6588 27.8863 39.8326 27.9248 40.0084 27.9227C40.1841 27.9207 40.357 27.8782 40.5136 27.7985C40.759 27.6316 40.9944 27.1491 40.9276 26.8854C40.7557 26.2093 40.4118 25.5933 40.1364 24.9523Z" fill="white"/>
</g>
<defs>
<clipPath id="clip0_6607_22849">
<rect width="60" height="60" fill="white"/>
</clipPath>
</defs>
</svg>
