<svg width="16" height="17" viewBox="0 0 16 17" fill="none" xmlns="http://www.w3.org/2000/svg">
<path d="M7.99967 1.83301C4.31967 1.83301 1.33301 4.81967 1.33301 8.49967C1.33301 12.1797 4.31967 15.1663 7.99967 15.1663C11.6797 15.1663 14.6663 12.1797 14.6663 8.49967C14.6663 4.81967 11.6797 1.83301 7.99967 1.83301ZM7.99967 13.833C5.05301 13.833 2.66634 11.4463 2.66634 8.49967C2.66634 5.55301 5.05301 3.16634 7.99967 3.16634C10.9463 3.16634 13.333 5.55301 13.333 8.49967C13.333 11.4463 10.9463 13.833 7.99967 13.833Z" fill="#8C8C8C"/>
<path d="M7.99967 11.833C9.84062 11.833 11.333 10.3406 11.333 8.49967C11.333 6.65873 9.84062 5.16634 7.99967 5.16634C6.15873 5.16634 4.66634 6.65873 4.66634 8.49967C4.66634 10.3406 6.15873 11.833 7.99967 11.833Z" fill="#8C8C8C"/>
</svg>
