<svg width="32" height="32" viewBox="0 0 32 32" fill="none" xmlns="http://www.w3.org/2000/svg">
<path fill-rule="evenodd" clip-rule="evenodd" d="M10.666 5.33333C10.666 4.59733 11.2167 4 11.8967 4H20.102C20.782 4 21.3327 4.59733 21.3327 5.33333C21.3327 6.06933 20.782 6.66667 20.102 6.66667H11.8967C11.2167 6.66667 10.666 6.06933 10.666 5.33333ZM13.0367 28H18.962C23.1233 28 25.2047 28 26.6993 27.0373C27.3424 26.6239 27.8979 26.0879 28.334 25.46C29.3327 24.02 29.3327 22.0133 29.3327 18C29.3327 13.9867 29.3327 11.9813 28.3327 10.54C27.897 9.91215 27.342 9.37619 26.6993 8.96267C25.2047 8 23.1233 8 18.962 8H13.0367C8.87535 8 6.79402 8 5.29935 8.96267C4.65671 9.37622 4.10173 9.91218 3.66602 10.54C2.66602 11.98 2.66602 13.9867 2.66602 17.9973V18C2.66602 22.0133 2.66602 24.0187 3.66468 25.46C4.09668 26.084 4.65135 26.62 5.29935 27.0373C6.79402 28 8.87535 28 13.0367 28ZM10.4433 18C10.4433 15.04 12.9313 12.6427 15.9993 12.6427C19.0673 12.6427 21.5553 15.0413 21.5553 18C21.5553 20.9587 19.066 23.3573 15.9993 23.3573C12.9313 23.3573 10.4433 20.9573 10.4433 18ZM12.666 18C12.666 16.224 14.1593 14.7867 15.9993 14.7867C17.8393 14.7867 19.3327 16.2253 19.3327 18C19.3327 19.7747 17.8393 21.2133 15.9993 21.2133C14.1593 21.2133 12.666 19.7747 12.666 18ZM24.1473 12.6427C23.534 12.6427 23.0367 13.1227 23.0367 13.7147C23.0367 14.3053 23.534 14.7853 24.1473 14.7853H24.8887C25.502 14.7853 25.9993 14.3053 25.9993 13.7147C25.9993 13.1227 25.502 12.6427 24.8887 12.6427H24.1473Z" fill="#006CF0"/>
</svg>
