<svg width="20" height="20" viewBox="0 0 20 20" fill="none" xmlns="http://www.w3.org/2000/svg">
<path d="M12.9077 8.02533C12.7577 5.70033 11.816 3.43366 10.0493 1.66699C8.26602 3.45033 7.28268 5.71699 7.09102 8.02533C8.15768 8.59199 9.14102 9.32533 9.99935 10.217C10.8577 9.33366 11.841 8.60033 12.9077 8.02533ZM10.041 4.32533C10.566 5.18366 10.9327 6.14199 11.1243 7.14199C10.7327 7.39199 10.366 7.66699 10.0077 7.95866C9.65768 7.67533 9.28268 7.40033 8.89935 7.15033C9.10768 6.15033 9.49102 5.19199 10.041 4.32533ZM9.99935 12.8753C9.31602 11.8337 8.44935 10.9253 7.44935 10.2087C7.34102 10.1337 7.22435 10.0753 7.11602 9.99199C7.22435 10.067 7.34102 10.1337 7.44102 10.2003C5.81602 9.02533 3.82435 8.33366 1.66602 8.33366C1.66602 12.767 4.46602 16.517 8.35768 17.9087C8.88268 18.1003 9.43268 18.242 9.99935 18.3337C10.566 18.2337 11.1077 18.092 11.641 17.9087C15.5327 16.517 18.3327 12.767 18.3327 8.33366C14.8493 8.33366 11.791 10.142 9.99935 12.8753ZM11.0993 16.3337C10.7327 16.4587 10.366 16.5587 9.99102 16.642C9.62435 16.567 9.26602 16.467 8.92435 16.342C6.18268 15.3587 4.17435 13.017 3.54935 10.217C4.46602 10.4337 5.34102 10.8087 6.14935 11.3253L6.13268 11.3337C6.24102 11.4087 6.34935 11.4837 6.45768 11.542L6.51602 11.5753C7.34102 12.1753 8.04935 12.917 8.60768 13.7837L9.99935 15.917L11.391 13.792C11.966 12.917 12.6827 12.167 13.4994 11.5753L13.5577 11.5337C13.6327 11.492 13.7077 11.442 13.7827 11.392L13.7744 11.3753C14.591 10.8337 15.4993 10.4337 16.4493 10.2087C15.8243 13.017 13.8243 15.3587 11.0993 16.3337ZM7.49102 10.2337C7.47435 10.2253 7.45768 10.2087 7.44935 10.2003C7.44935 10.2003 7.45768 10.2003 7.45768 10.2087C7.46602 10.217 7.47435 10.2253 7.49102 10.2337Z" fill="#605D64"/>
</svg>
