<svg width="150" height="20" viewBox="0 0 150 20" fill="none" xmlns="http://www.w3.org/2000/svg">
<path d="M4.46028 19.4472L6.87241 4.04077H0.696289L1.25294 0.623047H17.7138L17.1836 4.04077H11.0075L8.56886 19.4472H4.46028Z" fill="#232323"/>
<path d="M16.4106 19.4472L19.3793 0.623047H23.3819L22.2156 8.15271C23.1698 6.76426 24.5924 6.07004 26.4832 6.07004C27.8969 6.07004 28.9749 6.51505 29.7171 7.40508C30.4769 8.29511 30.7067 9.71026 30.4062 11.6505L29.1869 19.4472H25.1844L26.3772 11.7306C26.6599 10.0396 26.121 9.19405 24.7603 9.19405C23.859 9.19405 23.1345 9.48776 22.5867 10.0752C22.0389 10.6448 21.6855 11.4369 21.5264 12.4516L20.4131 19.4472H16.4106Z" fill="#232323"/>
<path d="M39.2523 19.7409C37.8916 19.7409 36.7076 19.4917 35.7004 18.9933C34.6931 18.4771 33.9156 17.7739 33.3678 16.8839C32.82 15.9761 32.5461 14.9169 32.5461 13.7065C32.5461 12.2113 32.8553 10.894 33.4738 9.75477C34.11 8.59772 34.9759 7.69879 36.0715 7.05797C37.1848 6.39935 38.4483 6.07004 39.862 6.07004C41.311 6.07004 42.4685 6.39045 43.3344 7.03127C44.2003 7.65429 44.8011 8.49982 45.1369 9.56786C45.4726 10.6181 45.561 11.784 45.4019 13.0657L45.2959 13.7599H36.257C36.2747 14.7033 36.5751 15.4332 37.1583 15.9494C37.7414 16.4656 38.572 16.7237 39.6499 16.7237C40.3921 16.7237 41.1078 16.6169 41.797 16.4033C42.5038 16.1897 43.1312 15.8782 43.679 15.4688L44.5537 18.1122C43.9175 18.6106 43.1312 19.0111 42.1946 19.3137C41.258 19.5985 40.2773 19.7409 39.2523 19.7409ZM39.8355 8.74013C38.8812 8.74013 38.139 9.03384 37.6089 9.62126C37.0788 10.1909 36.7253 10.8762 36.5486 11.6772H42.3271C42.3801 10.8406 42.2034 10.1464 41.797 9.59456C41.4082 9.02494 40.7544 8.74013 39.8355 8.74013Z" fill="#232323"/>
<path d="M54.4447 19.4472L57.4135 0.623047H61.5221L60.3293 8.17941H68.9971L70.2164 0.623047H74.325L71.3562 19.4472H67.2476L68.4669 11.6238H59.7726L58.5533 19.4472H54.4447Z" fill="#232323"/>
<path d="M81.8602 19.7409C80.4995 19.7409 79.3155 19.4917 78.3083 18.9933C77.301 18.4771 76.5235 17.7739 75.9756 16.8839C75.4278 15.9761 75.1539 14.9169 75.1539 13.7065C75.1539 12.2113 75.4632 10.894 76.0817 9.75477C76.7178 8.59772 77.5837 7.69879 78.6794 7.05797C79.7926 6.39935 81.0561 6.07004 82.4698 6.07004C83.9189 6.07004 85.0764 6.39045 85.9423 7.03127C86.8082 7.65429 87.409 8.49982 87.7447 9.56786C88.0805 10.6181 88.1688 11.784 88.0098 13.0657L87.9038 13.7599H78.8649C78.8826 14.7033 79.183 15.4332 79.7661 15.9494C80.3493 16.4656 81.1798 16.7237 82.2578 16.7237C83 16.7237 83.7157 16.6169 84.4049 16.4033C85.1117 16.1897 85.739 15.8782 86.2868 15.4688L87.1616 18.1122C86.5254 18.6106 85.739 19.0111 84.8025 19.3137C83.8659 19.5985 82.8851 19.7409 81.8602 19.7409ZM82.4433 8.74013C81.4891 8.74013 80.7469 9.03384 80.2168 9.62126C79.6866 10.1909 79.3332 10.8762 79.1565 11.6772H84.935C84.988 10.8406 84.8113 10.1464 84.4049 9.59456C84.0161 9.02494 83.3623 8.74013 82.4433 8.74013Z" fill="#232323"/>
<path d="M93.8368 19.7409C93.0239 19.7409 92.2817 19.554 91.6102 19.1802C90.9387 18.7886 90.4085 18.2813 90.0198 17.6582C89.631 17.0352 89.4366 16.3588 89.4366 15.629C89.4366 14.2405 90.0198 13.2348 91.1861 12.6118C92.3701 11.9709 94.2167 11.6505 96.726 11.6505H98.5285L98.5815 11.3034C98.7052 10.5736 98.5727 10.0129 98.1839 9.62126C97.8128 9.22965 97.1767 9.03384 96.2754 9.03384C94.7203 9.03384 93.2183 9.46996 91.7692 10.3422L90.9475 7.61869C91.6367 7.15588 92.5114 6.78206 93.5717 6.49725C94.6497 6.21244 95.7364 6.07004 96.8321 6.07004C98.3165 6.07004 99.4828 6.34595 100.331 6.89777C101.179 7.44959 101.754 8.19721 102.054 9.14064C102.354 10.0663 102.407 11.1076 102.213 12.2647L101.1 19.4472H97.3622L97.6538 17.5247C97.2297 18.2902 96.6819 18.8509 96.0103 19.2069C95.3388 19.5629 94.6143 19.7409 93.8368 19.7409ZM95.1886 17.0441C95.9485 17.0441 96.5847 16.8127 97.0971 16.3499C97.6273 15.8693 97.9542 15.2285 98.0779 14.4274L98.2104 13.7332H96.8056C95.5156 13.7332 94.6055 13.8578 94.0753 14.107C93.5452 14.3384 93.2801 14.7567 93.2801 15.362C93.2801 15.896 93.4568 16.3143 93.8103 16.6169C94.1814 16.9017 94.6408 17.0441 95.1886 17.0441Z" fill="#232323"/>
<path d="M109.042 19.7409C107.416 19.7409 106.25 19.2959 105.543 18.4059C104.836 17.498 104.616 16.1897 104.881 14.4808L107.054 0.623047H111.057L108.883 14.4274C108.689 15.7981 109.201 16.4834 110.421 16.4834C110.597 16.4834 110.783 16.4745 110.977 16.4567C111.172 16.4389 111.366 16.4211 111.56 16.4033L111.03 19.4739C110.447 19.6519 109.784 19.7409 109.042 19.7409Z" fill="#232323"/>
<path d="M119.86 19.7409C118.5 19.7409 117.316 19.4917 116.308 18.9933C115.301 18.4771 114.524 17.7739 113.976 16.8839C113.428 15.9761 113.154 14.9169 113.154 13.7065C113.154 12.2113 113.463 10.894 114.082 9.75477C114.718 8.59772 115.584 7.69879 116.68 7.05797C117.793 6.39935 119.056 6.07004 120.47 6.07004C121.919 6.07004 123.077 6.39045 123.942 7.03127C124.808 7.65429 125.409 8.49982 125.745 9.56786C126.081 10.6181 126.169 11.784 126.01 13.0657L125.904 13.7599H116.865C116.883 14.7033 117.183 15.4332 117.766 15.9494C118.35 16.4656 119.18 16.7237 120.258 16.7237C121 16.7237 121.716 16.6169 122.405 16.4033C123.112 16.1897 123.739 15.8782 124.287 15.4688L125.162 18.1122C124.526 18.6106 123.739 19.0111 122.803 19.3137C121.866 19.5985 120.885 19.7409 119.86 19.7409ZM120.444 8.74013C119.489 8.74013 118.747 9.03384 118.217 9.62126C117.687 10.1909 117.333 10.8762 117.157 11.6772H122.935C122.988 10.8406 122.812 10.1464 122.405 9.59456C122.016 9.02494 121.362 8.74013 120.444 8.74013Z" fill="#232323"/>
<path d="M127.331 19.4472L129.398 6.33705H133.321L132.95 8.57993C133.357 7.8501 133.913 7.27158 134.62 6.84436C135.327 6.39935 136.166 6.14124 137.138 6.07004L138.358 5.98993L138.225 9.38095L135.681 9.64796C134.62 9.75477 133.852 10.0663 133.374 10.5825C132.915 11.0987 132.606 11.8641 132.447 12.8788L131.413 19.4472H127.331Z" fill="#232323"/>
<path d="M143.665 19.7409C142.534 19.7409 141.465 19.6074 140.458 19.3404C139.451 19.0734 138.602 18.6907 137.913 18.1923L139.079 15.6023C139.716 16.0295 140.44 16.3677 141.253 16.6169C142.066 16.8483 142.861 16.964 143.639 16.964C144.398 16.964 144.964 16.8305 145.335 16.5635C145.724 16.2965 145.918 15.9583 145.918 15.5489C145.918 14.9614 145.503 14.5876 144.672 14.4274L142.26 13.9735C141.218 13.7955 140.414 13.4128 139.848 12.8254C139.283 12.2202 139 11.4636 139 10.5558C139 9.75477 139.23 9.01604 139.689 8.33962C140.166 7.64539 140.864 7.09357 141.783 6.68416C142.702 6.27474 143.833 6.07004 145.176 6.07004C146.007 6.07004 146.855 6.19464 147.721 6.44385C148.604 6.67526 149.364 7.03127 150 7.51189L148.887 10.0485C148.304 9.63906 147.668 9.33645 146.978 9.14064C146.307 8.92704 145.635 8.82023 144.964 8.82023C144.169 8.82023 143.568 8.96264 143.161 9.24745C142.773 9.53226 142.578 9.89717 142.578 10.3422C142.578 10.5914 142.658 10.8139 142.817 11.0097C142.994 11.1877 143.276 11.3123 143.665 11.3835L146.051 11.8374C148.348 12.2647 149.497 13.4039 149.497 15.2552C149.497 16.697 148.958 17.8095 147.88 18.5928C146.819 19.3582 145.415 19.7409 143.665 19.7409Z" fill="#232323"/>
</svg>
