<svg width="180" height="24" viewBox="0 0 180 24" fill="none" xmlns="http://www.w3.org/2000/svg">
<path d="M5.35175 23.1823L8.24631 4.69453H0.834961L1.50294 0.593262H21.2559L20.6198 4.69453H13.2084L10.282 23.1823H5.35175Z" fill="white"/>
<path d="M19.6921 23.1823L23.2546 0.593262H28.0577L26.6581 9.62886C27.8032 7.96272 29.5103 7.12965 31.7793 7.12965C33.4757 7.12965 34.7693 7.66367 35.6599 8.73171C36.5717 9.79974 36.8474 11.4979 36.4869 13.8262L35.0237 23.1823H30.2207L31.652 13.9224C31.9913 11.8931 31.3446 10.8785 29.7117 10.8785C28.6302 10.8785 27.7608 11.2309 27.1034 11.9358C26.4461 12.6194 26.022 13.5699 25.8311 14.7875L24.4952 23.1823H19.6921Z" fill="white"/>
<path d="M47.1022 23.5347C45.4694 23.5347 44.0486 23.2357 42.8399 22.6376C41.6312 22.0181 40.6981 21.1743 40.0407 20.1063C39.3834 19.0169 39.0547 17.7459 39.0547 16.2934C39.0547 14.4991 39.4258 12.9184 40.168 11.5513C40.9314 10.1629 41.9704 9.08416 43.2852 8.31517C44.6211 7.52482 46.1373 7.12965 47.8338 7.12965C49.5726 7.12965 50.9616 7.51414 52.0007 8.28313C53.0398 9.03076 53.7607 10.0454 54.1637 11.327C54.5666 12.5873 54.6726 13.9864 54.4817 15.5244L54.3545 16.3575H43.5079C43.5291 17.4896 43.8896 18.3654 44.5893 18.9849C45.2891 19.6043 46.2858 19.9141 47.5793 19.9141C48.47 19.9141 49.3288 19.7859 50.1558 19.5296C51.004 19.2732 51.7568 18.8994 52.4142 18.4081L53.4639 21.5802C52.7005 22.1783 51.7568 22.6589 50.6329 23.022C49.509 23.3638 48.3321 23.5347 47.1022 23.5347ZM47.802 10.3338C46.6569 10.3338 45.7662 10.6862 45.1301 11.3911C44.4939 12.0747 44.0698 12.8971 43.8577 13.8583H50.792C50.8556 12.8543 50.6435 12.0213 50.1558 11.3591C49.6893 10.6755 48.9047 10.3338 47.802 10.3338Z" fill="white"/>
<path d="M65.3331 23.1823L68.8956 0.593262H73.8259L72.3946 9.6609H82.7959L84.2591 0.593262H89.1894L85.6268 23.1823H80.6965L82.1597 13.7942H71.7266L70.2634 23.1823H65.3331Z" fill="white"/>
<path d="M98.2316 23.5347C96.5988 23.5347 95.178 23.2357 93.9693 22.6376C92.7606 22.0181 91.8276 21.1743 91.1702 20.1063C90.5128 19.0169 90.1841 17.7459 90.1841 16.2934C90.1841 14.4991 90.5552 12.9184 91.2974 11.5513C92.0608 10.1629 93.0999 9.08416 94.4146 8.31517C95.7506 7.52482 97.2668 7.12965 98.9632 7.12965C100.702 7.12965 102.091 7.51414 103.13 8.28313C104.169 9.03076 104.89 10.0454 105.293 11.327C105.696 12.5873 105.802 13.9864 105.611 15.5244L105.484 16.3575H94.6373C94.6585 17.4896 95.019 18.3654 95.7188 18.9849C96.4186 19.6043 97.4152 19.9141 98.7088 19.9141C99.5994 19.9141 100.458 19.7859 101.285 19.5296C102.133 19.2732 102.886 18.8994 103.544 18.4081L104.593 21.5802C103.83 22.1783 102.886 22.6589 101.762 23.022C100.638 23.3638 99.4616 23.5347 98.2316 23.5347ZM98.9314 10.3338C97.7863 10.3338 96.8957 10.6862 96.2595 11.3911C95.6233 12.0747 95.1992 12.8971 94.9872 13.8583H101.921C101.985 12.8543 101.773 12.0213 101.285 11.3591C100.819 10.6755 100.034 10.3338 98.9314 10.3338Z" fill="white"/>
<path d="M112.604 23.5347C111.628 23.5347 110.737 23.3104 109.932 22.8618C109.126 22.3919 108.49 21.7831 108.023 21.0355C107.557 20.2879 107.323 19.4762 107.323 18.6004C107.323 16.9342 108.023 15.7274 109.423 14.9797C110.843 14.2107 113.059 13.8262 116.071 13.8262H118.234L118.297 13.4097C118.446 12.5339 118.287 11.8611 117.82 11.3911C117.375 10.9212 116.611 10.6862 115.53 10.6862C113.664 10.6862 111.861 11.2096 110.122 12.2562L109.136 8.98804C109.963 8.43266 111.013 7.98408 112.285 7.64231C113.579 7.30054 114.883 7.12965 116.198 7.12965C117.979 7.12965 119.379 7.46074 120.397 8.12293C121.414 8.78511 122.104 9.68226 122.464 10.8144C122.825 11.9251 122.888 13.1747 122.655 14.5632L121.319 23.1823H116.834L117.184 20.8753C116.675 21.7938 116.018 22.4667 115.212 22.8939C114.406 23.3211 113.537 23.5347 112.604 23.5347ZM114.226 20.2986C115.138 20.2986 115.901 20.0209 116.516 19.4655C117.152 18.8887 117.544 18.1198 117.693 17.1585L117.852 16.3255H116.166C114.618 16.3255 113.526 16.475 112.89 16.774C112.254 17.0517 111.936 17.5537 111.936 18.28C111.936 18.9208 112.148 19.4228 112.572 19.7859C113.017 20.1277 113.568 20.2986 114.226 20.2986Z" fill="white"/>
<path d="M130.85 23.5347C128.899 23.5347 127.5 23.0007 126.651 21.9326C125.803 20.8432 125.538 19.2732 125.856 17.2226L128.464 0.593262H133.268L130.659 17.1585C130.426 18.8033 131.041 19.6257 132.504 19.6257C132.716 19.6257 132.939 19.615 133.172 19.5936C133.405 19.5723 133.639 19.5509 133.872 19.5296L133.236 23.2143C132.536 23.4279 131.741 23.5347 130.85 23.5347Z" fill="white"/>
<path d="M143.832 23.5347C142.199 23.5347 140.778 23.2357 139.57 22.6376C138.361 22.0181 137.428 21.1743 136.77 20.1063C136.113 19.0169 135.784 17.7459 135.784 16.2934C135.784 14.4991 136.155 12.9184 136.898 11.5513C137.661 10.1629 138.7 9.08416 140.015 8.31517C141.351 7.52482 142.867 7.12965 144.563 7.12965C146.302 7.12965 147.691 7.51414 148.73 8.28313C149.769 9.03076 150.49 10.0454 150.893 11.327C151.296 12.5873 151.402 13.9864 151.211 15.5244L151.084 16.3575H140.238C140.259 17.4896 140.619 18.3654 141.319 18.9849C142.019 19.6043 143.015 19.9141 144.309 19.9141C145.2 19.9141 146.058 19.7859 146.885 19.5296C147.734 19.2732 148.487 18.8994 149.144 18.4081L150.194 21.5802C149.43 22.1783 148.487 22.6589 147.363 23.022C146.239 23.3638 145.062 23.5347 143.832 23.5347ZM144.532 10.3338C143.387 10.3338 142.496 10.6862 141.86 11.3911C141.224 12.0747 140.799 12.8971 140.587 13.8583H147.522C147.585 12.8543 147.373 12.0213 146.885 11.3591C146.419 10.6755 145.634 10.3338 144.532 10.3338Z" fill="white"/>
<path d="M152.796 23.1823L155.277 7.45006H159.985L159.54 10.1415C160.027 9.26573 160.695 8.5715 161.544 8.05884C162.392 7.52482 163.399 7.21509 164.565 7.12965L166.029 7.03353L165.87 11.1027L162.816 11.4232C161.544 11.5513 160.621 11.9251 160.049 12.5446C159.497 13.1641 159.126 14.0826 158.935 15.3001L157.695 23.1823H152.796Z" fill="white"/>
<path d="M172.398 23.5347C171.04 23.5347 169.757 23.3745 168.549 23.0541C167.34 22.7337 166.322 22.2744 165.495 21.6763L166.895 18.5683C167.658 19.081 168.528 19.4868 169.503 19.7859C170.478 20.0636 171.433 20.2024 172.366 20.2024C173.278 20.2024 173.956 20.0422 174.401 19.7218C174.868 19.4014 175.101 18.9955 175.101 18.5042C175.101 17.7993 174.603 17.3508 173.606 17.1585L170.712 16.6138C169.461 16.4002 168.496 15.941 167.817 15.2361C167.139 14.5098 166.799 13.602 166.799 12.5126C166.799 11.5513 167.075 10.6649 167.626 9.85315C168.199 9.02008 169.036 8.35789 170.139 7.8666C171.242 7.3753 172.599 7.12965 174.211 7.12965C175.207 7.12965 176.225 7.27918 177.264 7.57823C178.324 7.85592 179.236 8.28313 180 8.85987L178.664 11.9038C177.964 11.4125 177.201 11.0493 176.374 10.8144C175.568 10.558 174.762 10.4299 173.956 10.4299C173.002 10.4299 172.281 10.6008 171.793 10.9425C171.327 11.2843 171.093 11.7222 171.093 12.2562C171.093 12.5553 171.189 12.8223 171.38 13.0573C171.592 13.2709 171.931 13.4204 172.398 13.5058L175.26 14.0505C178.017 14.5632 179.395 15.9303 179.395 18.1518C179.395 19.882 178.749 21.2171 177.455 22.1569C176.183 23.0754 174.497 23.5347 172.398 23.5347Z" fill="white"/>
</svg>
