<svg width="41" height="41" viewBox="0 0 41 41" fill="none" xmlns="http://www.w3.org/2000/svg">
<g clip-path="url(#clip0_6607_24125)">
<path d="M23.4875 26.7262C22.6371 27.5831 21.7816 28.4352 20.9304 29.2915C20.3154 29.9101 19.706 30.5347 19.0905 31.1533C18.3649 31.8818 17.6336 32.6042 16.9093 33.3341C16.1683 34.0805 15.4375 34.8382 14.6931 35.5803C14.122 36.1504 13.7629 36.793 13.8003 37.6399C13.8297 38.2979 13.7947 38.9602 13.7891 39.6215C13.7884 39.7381 13.8014 39.8544 13.8278 39.9679C13.8326 39.9887 13.8421 40.0081 13.8554 40.0248C13.868 40.0405 13.8838 40.0534 13.9018 40.0625C13.9197 40.0716 13.9394 40.0767 13.9595 40.0774L14.7851 40.1042L15.3922 40.1108H16.4172C16.5409 40.107 16.6635 40.085 16.7809 40.0454L17.366 39.848L17.3576 39.8509H17.3618L17.5524 39.7569L17.8886 39.5143H17.9049L17.9114 39.4993C17.9517 39.479 17.9897 39.4543 18.0245 39.4255L18.0352 39.4166C18.4349 39.0265 18.8356 38.6373 19.2306 38.2415C20.073 37.3983 20.9136 36.5523 21.7522 35.7035C22.2285 35.2222 22.6992 34.7348 23.1723 34.2502H23.1863L23.1909 34.2366C23.2923 34.1425 23.3978 34.0547 23.4945 33.9545C24.0741 33.3639 24.6525 32.772 25.2297 32.1788H25.2419V32.1671L25.2914 32.1201L25.2951 32.1168C25.3665 32.0416 25.4384 31.9669 25.5104 31.8917L25.5258 31.8837L26.0861 31.3168L26.6362 30.7528L26.7431 30.6588L27.5636 29.8283H27.5776V29.8142L27.8046 29.5792L27.862 29.5322L28.3682 29.0152L28.42 28.9682L29.0513 28.3365L29.8989 27.4801L29.9638 27.419L30.1777 27.192H30.1907L30.1949 27.1793L31.3059 26.0513L31.3652 26.0005L31.4058 25.962L31.4109 25.9563L32.2318 25.1263L32.2986 25.0657C32.371 24.9909 32.4429 24.9157 32.5148 24.841L32.5279 24.8325L32.6983 24.6521L32.7282 24.6239C32.8053 24.5595 32.8875 24.5002 32.9575 24.4293C33.2923 24.0909 33.6211 23.7473 33.9559 23.4098C34.8948 22.4632 35.8348 21.5183 36.7759 20.5752C37.4193 19.9289 38.0703 19.2901 38.7096 18.6396C38.9641 18.3807 39.1961 18.0987 39.4385 17.8275L39.452 17.8223V17.8082L39.6827 17.5022C39.9474 17.1895 40.0942 16.793 40.0974 16.3822C40.1189 15.5653 40.1011 14.7428 40.1072 13.9203C40.1072 13.7243 40.0269 13.6589 39.841 13.6603C38.9851 13.6674 38.1282 13.6458 37.2727 13.6815C36.9739 13.6942 36.6587 13.7995 36.3892 13.9372C35.6972 14.2916 35.2312 14.9214 34.6853 15.4516C34.0488 16.0701 33.4371 16.7145 32.8113 17.3448C31.9773 18.1847 31.1387 19.0204 30.3042 19.8598M36.0834 14.826C36.1067 14.7978 36.1301 14.7677 36.1511 14.7385C36.1282 14.7653 36.1044 14.7954 36.0834 14.8236V14.826ZM35.5613 15.296C35.5522 15.3082 35.541 15.3185 35.5281 15.3265C35.5403 15.3185 35.5508 15.3081 35.559 15.296H35.5613ZM39.544 17.4768L39.4973 17.4477C39.5115 17.4587 39.5263 17.4687 39.5417 17.4778L39.544 17.4768ZM35.1046 15.4802C35.1205 15.4492 35.1359 15.4177 35.1513 15.3862C35.1359 15.4172 35.1205 15.4487 35.1046 15.4802C35.049 15.5192 34.9874 15.5526 34.9337 15.5935C34.9851 15.5535 35.0467 15.5202 35.1023 15.4812L35.1046 15.4802ZM23.3838 27.4185C23.5066 27.2437 23.6098 27.0501 23.7574 26.8978C23.6117 27.0501 23.5085 27.2437 23.3838 27.4195C23.4599 27.4275 23.5356 27.435 23.6084 27.4416L23.3843 27.4204C23.3278 27.4359 23.2582 27.4378 23.212 27.4674C23.2549 27.4392 23.3245 27.4373 23.381 27.4204L23.3838 27.4185ZM22.2164 28.4996C22.2323 28.4526 22.2477 28.4056 22.2631 28.3586C22.2472 28.4056 22.2318 28.4526 22.2164 28.4996C22.1809 28.5235 22.144 28.5466 22.1071 28.5673C22.1412 28.5475 22.1781 28.5259 22.2131 28.5019L22.2164 28.4996ZM19.6014 31.1316C19.5477 31.1664 19.4907 31.1979 19.4356 31.2313C19.4875 31.2007 19.5444 31.1692 19.5981 31.1345L19.6014 31.1316ZM14.1846 36.7718C14.208 36.7248 14.2313 36.6778 14.2542 36.6308C14.2308 36.6783 14.207 36.7253 14.1841 36.7723L14.1846 36.7718ZM24.4578 32.7767L24.2425 33.039L24.4569 32.78L24.4578 32.7767ZM28.3682 28.8587C28.3755 28.8597 28.3827 28.8614 28.3897 28.8638C28.3826 28.8623 28.3754 28.8612 28.3682 28.8605V28.8587ZM28.7987 28.4535C28.7856 28.4563 28.7726 28.4587 28.759 28.4606C28.7455 28.4624 28.7193 28.4676 28.7007 28.4723C28.7193 28.4676 28.7394 28.4643 28.759 28.4606C28.7786 28.4568 28.7852 28.4568 28.7983 28.454L28.7987 28.4535ZM29.9661 27.1248C29.9914 27.1023 30.0182 27.0817 30.0464 27.0632C30.0184 27.0825 29.9917 27.1037 29.9666 27.1267L29.9661 27.1248ZM34.3556 22.8599C34.371 22.8444 34.3864 22.8284 34.4023 22.8129C34.3869 22.8298 34.3715 22.8458 34.3556 22.8599ZM35.8032 21.4029C35.8186 21.3869 35.8345 21.3714 35.8499 21.3559C35.8349 21.3728 35.8191 21.3883 35.8032 21.4029ZM39.7999 16.7967C39.8279 16.6731 39.9512 16.5815 40.004 16.4677C39.9517 16.5829 39.8284 16.6745 39.8004 16.7967H39.7999Z" fill="#F0001C"/>
<path d="M40.1706 19.5734L40.1561 19.4884C40.1545 19.4789 40.1509 19.4698 40.1457 19.4618C40.1405 19.4537 40.1337 19.4467 40.1258 19.4414C40.1118 19.4312 40.0947 19.4265 40.0775 19.428C40.0603 19.4296 40.0443 19.4373 40.0324 19.4498C36.6407 22.8781 33.2427 26.3006 29.8386 29.7173C26.496 33.0811 23.1549 36.4455 19.7736 39.8526C19.7522 39.874 19.7376 39.9014 19.7316 39.9311C19.7256 39.9609 19.7285 39.9918 19.7399 40.0199C19.7514 40.048 19.7708 40.0721 19.7959 40.0891C19.8209 40.1061 19.8504 40.1152 19.8805 40.1154C21.2501 40.121 22.6198 40.1393 23.9898 40.1205C24.5016 40.1126 25.0116 40.058 25.5135 39.9574C26.5523 39.7557 27.5089 39.25 28.2635 38.5037C29.8386 36.9573 31.3861 35.3828 32.942 33.8167C34.7674 31.9799 36.5979 30.1473 38.4116 28.2988C39.536 27.1524 40.1346 25.7607 40.1636 24.1448C40.1884 22.6299 40.1711 21.1151 40.1725 19.5998C40.1726 19.591 40.1719 19.5822 40.1706 19.5734Z" fill="#F28500"/>
<path d="M34.2089 13.6699C32.6525 13.6732 31.0961 13.6727 29.5392 13.6831C28.1019 13.6925 26.8593 14.2118 25.8395 15.2205C24.1024 16.9384 22.3839 18.677 20.6646 20.4118C18.9672 22.124 17.2501 23.8194 15.5896 25.5678C14.6174 26.592 14.0547 27.8643 13.9865 29.2852C13.9141 30.8404 13.9543 32.4013 13.9473 33.9599C13.9475 33.9978 13.9497 34.0356 13.9538 34.0732C13.9562 34.0971 13.9652 34.1198 13.9799 34.1387C13.9945 34.1577 14.0142 34.172 14.0366 34.1801C14.0591 34.1883 14.0834 34.1898 14.1066 34.1846C14.1299 34.1794 14.1512 34.1676 14.1682 34.1507L34.2967 13.8842C34.3141 13.8667 34.326 13.8444 34.3308 13.8201C34.3357 13.7957 34.3333 13.7705 34.3239 13.7476C34.3145 13.7246 34.2985 13.705 34.2781 13.6912C34.2576 13.6774 34.2335 13.67 34.2089 13.6699Z" fill="#F28500"/>
<path d="M14.2793 24.385C13.9669 24.0691 13.6587 23.7486 13.3454 23.4332C12.3181 22.3963 11.2907 21.3603 10.2634 20.325L6.89708 16.9381C6.02541 16.0667 5.14939 15.1998 4.26901 14.3375C3.83473 13.9145 3.31873 13.6738 2.6958 13.6795C1.87908 13.6856 1.06143 13.6715 0.244708 13.6602C0.0761338 13.6579 -0.00138225 13.7251 1.86425e-05 13.8952C0.008424 14.7253 -0.00325011 15.5558 0.0294374 16.3863C0.0499838 16.9127 0.220893 17.4076 0.594464 17.7963C1.49882 18.7345 2.4094 19.6662 3.32621 20.5915C4.73644 22.017 6.15507 23.4337 7.56624 24.8578C9.1038 26.4098 10.6395 27.9636 12.1733 29.5194C12.1955 29.5417 12.2237 29.557 12.2544 29.5635C12.2851 29.57 12.317 29.5675 12.3463 29.5561C12.3755 29.5448 12.4009 29.5252 12.4194 29.4996C12.4378 29.4741 12.4485 29.4438 12.4502 29.4122C12.5436 27.66 13.0722 26.0827 14.2831 24.7784C14.4077 24.6407 14.4087 24.5161 14.2793 24.385Z" fill="#F0001C"/>
<path d="M12.1642 31.7957C11.9683 31.4871 11.7439 31.1977 11.4941 30.9314C9.97882 29.3888 8.45091 27.8599 6.92814 26.3253C5.83856 25.2286 4.75084 24.1306 3.665 23.0314C2.53557 21.8899 1.40613 20.7471 0.276703 19.6031C0.275224 19.6013 0.273494 19.5997 0.271567 19.5984C0.220654 19.5548 0.167503 19.5138 0.112332 19.4758C0.102778 19.4691 0.0917638 19.4649 0.0802317 19.4634C0.0686995 19.462 0.0569931 19.4634 0.0461147 19.4675C0.0352362 19.4716 0.0255098 19.4783 0.017768 19.487C0.0100262 19.4958 0.00449961 19.5063 0.00166145 19.5176C0.000748268 19.524 0.000748268 19.5305 0.00166145 19.5369C0.00819894 21.0376 0.020807 22.5384 0.0222079 24.0391C0.0222079 25.7128 0.618054 27.1389 1.78173 28.3233C2.89451 29.457 4.02316 30.5817 5.14574 31.713C6.46133 33.0356 7.77615 34.3586 9.09019 35.6818C10.1002 36.7027 11.1033 37.7301 12.111 38.7529C12.1423 38.7842 12.1756 38.8135 12.2104 38.8408C12.2301 38.8568 12.2539 38.8669 12.279 38.8698C12.3041 38.8728 12.3296 38.8685 12.3524 38.8575C12.3752 38.8464 12.3944 38.8291 12.4078 38.8075C12.4212 38.7859 12.4282 38.7609 12.428 38.7355C12.4196 36.7614 12.408 34.7874 12.4033 32.8133C12.4024 32.4491 12.3636 32.0965 12.1642 31.7957Z" fill="#F28500"/>
<path d="M6.91531 14.8724C9.70931 17.6856 12.5021 20.5 15.2936 23.3157C15.4804 23.5037 15.521 23.5037 15.7054 23.311C16.1817 22.8175 16.6548 22.3198 17.1386 21.8333C17.7157 21.2533 18.2988 20.6786 18.8878 20.1093C19.0372 19.9645 19.0573 19.8536 18.8948 19.7046C18.6767 19.5044 18.4745 19.2858 18.2672 19.0762C16.9733 17.7785 15.6989 16.4592 14.3783 15.1911C13.4972 14.3451 12.4297 13.8088 11.1997 13.7058C10.2555 13.6269 9.30523 13.665 8.35776 13.625C7.58774 13.625 6.81678 13.625 6.04722 13.6292C6.03976 13.6288 6.03227 13.6288 6.02481 13.6292C5.99658 13.6343 5.97013 13.6466 5.94797 13.6649C5.92581 13.6832 5.90869 13.707 5.89824 13.7338C5.88779 13.7607 5.88437 13.7898 5.8883 13.8184C5.89223 13.847 5.90337 13.8741 5.92068 13.8971C5.92755 13.9066 5.9352 13.9154 5.94356 13.9235C6.26296 14.2454 6.59637 14.5514 6.91531 14.8724Z" fill="#F28500"/>
<path d="M11.3814 12.1729C12.9551 12.3679 14.3209 12.9982 15.444 14.138C15.5374 14.232 15.628 14.3237 15.7242 14.42C15.7532 14.4489 15.7901 14.4685 15.8302 14.4764C15.8704 14.4842 15.9119 14.48 15.9496 14.4642C15.9873 14.4484 16.0195 14.4217 16.0422 14.3875C16.0649 14.3533 16.0771 14.3131 16.0772 14.272V4.3547C16.0781 4.3267 16.0707 4.29906 16.056 4.2753C16.0413 4.25154 16.0198 4.23274 15.9944 4.2213C15.969 4.20985 15.9408 4.20628 15.9134 4.21103C15.886 4.21579 15.8606 4.22866 15.8404 4.248C15.4832 4.59675 15.1264 4.9455 14.7772 5.30224C14.0244 6.06977 13.2544 6.82179 12.532 7.61753C11.4696 8.78692 11.0167 10.2026 11.0186 11.7724C11.019 12.1264 11.0288 12.1292 11.3814 12.1729Z" fill="#F0001C"/>
<path d="M17.535 6.81505C17.5415 7.69116 17.5448 8.57431 17.5457 9.45089C17.5457 10.4807 17.5243 11.4922 17.535 12.5224C17.5411 13.1015 17.5485 13.6928 17.535 14.2713C17.5238 14.5269 17.528 14.7829 17.5476 15.0379C17.5574 15.1413 17.5616 15.2447 17.5644 15.3486C17.5789 15.8971 17.8567 16.3826 18.2359 16.7873C18.7907 17.38 19.3566 17.96 19.9301 18.5358C19.9977 18.602 20.0754 18.6569 20.1603 18.6984C20.1782 18.7077 20.1983 18.7119 20.2184 18.7107C20.2386 18.7095 20.258 18.7028 20.2747 18.6913C20.2799 18.6878 20.2841 18.6829 20.2868 18.6772L20.326 18.6378L20.4302 18.5372C20.4731 18.4949 20.4512 18.4902 20.4904 18.4455C20.6151 18.2984 21.2791 17.6756 21.38 17.5741C22.574 16.3159 21.5201 17.3687 21.9296 16.9711C21.9386 16.9625 21.9472 16.9534 21.9553 16.9438C21.9702 16.9255 22.0912 16.7248 22.1028 16.7037C22.1939 16.5382 22.1673 16.5453 22.278 16.3939C22.5002 16.0908 22.6483 15.8553 22.6483 15.5009C22.6515 11.6623 22.5418 7.71372 22.5418 3.87513C22.5418 3.59312 22.5679 3.31111 22.5259 3.03615C22.4465 2.51538 22.157 2.09613 21.7965 1.72717C21.3057 1.22613 20.807 0.73215 20.3116 0.234406C20.1677 0.0896424 20.0454 0.0934025 19.8974 0.248507C19.3879 0.776801 18.7701 1.27736 18.263 1.80707C18.023 2.05712 17.7297 2.37108 17.6373 2.71654C17.485 3.28526 17.5191 3.8615 17.5247 4.44196C17.5317 5.23346 17.5294 6.02402 17.535 6.81505Z" fill="#F28500"/>
<path d="M29.2448 11.5977C29.221 10.0284 28.7456 8.62021 27.6641 7.4682C26.9291 6.68469 26.1469 5.94536 25.3821 5.19005C25.0272 4.83895 24.6648 4.49631 24.302 4.15321C24.2814 4.13469 24.256 4.12267 24.2287 4.11867C24.2014 4.11466 24.1736 4.11884 24.1487 4.13068C24.1237 4.14252 24.1028 4.16149 24.0886 4.18523C24.0743 4.20897 24.0673 4.23641 24.0685 4.26413L24.2291 14.1814C24.2301 14.2224 24.2431 14.2622 24.2664 14.2959C24.2898 14.3295 24.3224 14.3554 24.3604 14.3705C24.3983 14.3855 24.4398 14.389 24.4796 14.3804C24.5195 14.3719 24.556 14.3517 24.5845 14.3224C24.6802 14.2237 24.7713 14.1302 24.8614 14.0357C25.9616 12.8757 27.3158 12.2233 28.888 12.0024C29.2396 11.9531 29.2495 11.9498 29.2448 11.5977Z" fill="#F0001C"/>
</g>
<defs>
<clipPath id="clip0_6607_24125">
<rect width="40.1766" height="40" fill="white" transform="translate(0 0.128906)"/>
</clipPath>
</defs>
</svg>
