<svg width="49" height="48" viewBox="0 0 49 48" fill="none" xmlns="http://www.w3.org/2000/svg">
<g clip-path="url(#clip0_6523_2478)">
<path d="M28.185 31.9161C27.1646 32.9443 26.138 33.9669 25.1164 34.9945C24.3785 35.7367 23.6472 36.4863 22.9086 37.2286C22.0378 38.1028 21.1603 38.9697 20.2912 39.8456C19.4019 40.7412 18.525 41.6504 17.6318 42.541C16.9464 43.2252 16.5155 43.9962 16.5604 45.0125C16.5957 45.8021 16.5536 46.5968 16.5469 47.3904C16.5461 47.5303 16.5617 47.6699 16.5934 47.8061C16.5992 47.8311 16.6105 47.8544 16.6265 47.8743C16.6416 47.8933 16.6606 47.9087 16.6821 47.9196C16.7037 47.9305 16.7273 47.9366 16.7514 47.9375L17.7421 47.9697L18.4706 47.9776H19.7006C19.8491 47.973 19.9962 47.9466 20.1371 47.8992L20.8392 47.6623L20.8292 47.6657H20.8342L21.0628 47.5529L21.4663 47.2618H21.4859L21.4937 47.2438C21.5421 47.2195 21.5876 47.1898 21.6293 47.1552L21.6422 47.1445C22.1219 46.6764 22.6027 46.2094 23.0767 45.7345C24.0876 44.7226 25.0963 43.7074 26.1027 42.6888C26.6742 42.1112 27.2391 41.5263 27.8067 40.9448H27.8235L27.8291 40.9285C27.9507 40.8157 28.0774 40.7102 28.1934 40.5901C28.889 39.8813 29.5831 39.171 30.2757 38.4592H30.2902V38.4451L30.3496 38.3887L30.3541 38.3848C30.4398 38.2945 30.5261 38.2049 30.6124 38.1146L30.6309 38.105L31.3034 37.4248L31.9635 36.748L32.0918 36.6352L33.0763 35.6386H33.0931V35.6217L33.3655 35.3397L33.4344 35.2833L34.0418 34.6628L34.104 34.6064L34.8616 33.8484L35.8787 32.8208L35.9566 32.7474L36.2132 32.475H36.2289L36.2339 32.4598L37.567 31.1062L37.6382 31.0453L37.6869 30.999L37.6931 30.9922L38.6782 29.9962L38.7583 29.9234C38.8452 29.8337 38.9315 29.7435 39.0178 29.6538L39.0335 29.6437L39.238 29.4271L39.2739 29.3933C39.3663 29.316 39.465 29.2449 39.549 29.1597C39.9508 28.7537 40.3453 28.3414 40.747 27.9364C41.8737 26.8005 43.0017 25.6666 44.131 24.5348C44.9032 23.7593 45.6844 22.9928 46.4515 22.2122C46.7569 21.9014 47.0354 21.563 47.3262 21.2376L47.3425 21.2314V21.2145L47.6193 20.8473C47.9369 20.472 48.1131 19.9962 48.1169 19.5032C48.1426 18.523 48.1213 17.536 48.1286 16.5489C48.1286 16.3137 48.0323 16.2353 47.8092 16.237C46.7821 16.2455 45.7538 16.2195 44.7273 16.2624C44.3686 16.2776 43.9904 16.404 43.6671 16.5692C42.8366 16.9945 42.2774 17.7503 41.6223 18.3865C40.8586 19.1287 40.1245 19.902 39.3736 20.6583C38.3728 21.6662 37.3664 22.6691 36.3651 23.6764M43.3 17.6358C43.3281 17.6019 43.3561 17.5658 43.3813 17.5309C43.3538 17.563 43.3253 17.5991 43.3 17.633V17.6358ZM42.6736 18.1998C42.6627 18.2144 42.6492 18.2269 42.6338 18.2365C42.6483 18.2268 42.6609 18.2143 42.6708 18.1998H42.6736ZM47.4528 20.8168L47.3968 20.7819C47.4138 20.795 47.4316 20.8071 47.45 20.818L47.4528 20.8168ZM42.1255 18.4209C42.1446 18.3837 42.1631 18.3459 42.1816 18.3081C42.1631 18.3453 42.1446 18.3831 42.1255 18.4209C42.0588 18.4677 41.9849 18.5078 41.9204 18.5568C41.9821 18.5089 42.056 18.4688 42.1227 18.422L42.1255 18.4209ZM28.0606 32.7469C28.2079 32.5371 28.3318 32.3047 28.5088 32.122C28.334 32.3047 28.2102 32.5371 28.0606 32.748C28.1519 32.7576 28.2427 32.7666 28.3301 32.7745L28.0611 32.7491C27.9933 32.7678 27.9098 32.77 27.8544 32.8055C27.9059 32.7717 27.9894 32.7694 28.0572 32.7491L28.0606 32.7469ZM26.6597 34.0441C26.6787 33.9877 26.6972 33.9313 26.7157 33.8749C26.6967 33.9313 26.6782 33.9877 26.6597 34.0441C26.6171 34.0729 26.5728 34.1005 26.5285 34.1253C26.5695 34.1016 26.6137 34.0757 26.6557 34.0469L26.6597 34.0441ZM23.5217 37.2026C23.4572 37.2443 23.3889 37.2821 23.3227 37.3222C23.3849 37.2855 23.4533 37.2477 23.5177 37.206L23.5217 37.2026ZM17.0215 43.9708C17.0495 43.9144 17.0776 43.858 17.105 43.8016C17.077 43.8586 17.0484 43.915 17.021 43.9714L17.0215 43.9708ZM29.3494 39.1767L29.0911 39.4914L29.3483 39.1806L29.3494 39.1767ZM34.0418 34.475C34.0506 34.4763 34.0592 34.4784 34.0676 34.4812C34.0591 34.4794 34.0505 34.478 34.0418 34.4773V34.475ZM34.5585 33.9888C34.5428 33.9922 34.5271 33.9951 34.5108 33.9973C34.4946 33.9996 34.4632 34.0058 34.4408 34.0114C34.4632 34.0058 34.4873 34.0018 34.5108 33.9973C34.5344 33.9928 34.5422 33.9928 34.5579 33.9894L34.5585 33.9888ZM35.9594 32.3944C35.9896 32.3674 36.0219 32.3427 36.0557 32.3205C36.0221 32.3436 35.9901 32.3691 35.9599 32.3966L35.9594 32.3944ZM41.2267 27.2765C41.2452 27.2579 41.2637 27.2387 41.2827 27.2201C41.2643 27.2404 41.2458 27.2596 41.2267 27.2765ZM42.9638 25.5281C42.9823 25.5089 43.0014 25.4903 43.0199 25.4717C43.0019 25.492 42.9829 25.5106 42.9638 25.5281ZM47.7599 20.0007C47.7935 19.8524 47.9415 19.7424 48.0048 19.6059C47.942 19.7441 47.7941 19.8541 47.7605 20.0007H47.7599Z" fill="#006A6A"/>
<path d="M48.2043 23.3335L48.187 23.2315C48.185 23.2201 48.1807 23.2092 48.1745 23.1995C48.1682 23.1898 48.1601 23.1815 48.1505 23.1751C48.1338 23.1629 48.1132 23.1572 48.0926 23.159C48.072 23.1609 48.0528 23.1702 48.0385 23.1852C43.9684 27.2991 39.8909 31.4061 35.8059 35.5061C31.7948 39.5428 27.7855 43.58 23.7279 47.6685C23.7022 47.6942 23.6847 47.727 23.6775 47.7628C23.6703 47.7985 23.6738 47.8356 23.6875 47.8693C23.7012 47.9031 23.7246 47.9319 23.7546 47.9523C23.7847 47.9727 23.82 47.9837 23.8563 47.9838C25.4998 47.9906 27.1433 48.0126 28.7874 47.99C29.4015 47.9805 30.0135 47.915 30.6158 47.7943C31.8624 47.5522 33.0103 46.9454 33.9158 46.0498C35.8059 44.1942 37.6629 42.3048 39.53 40.4255C41.7204 38.2213 43.917 36.0222 46.0935 33.8039C47.4428 32.4283 48.1612 30.7582 48.1959 28.8192C48.2256 27.0013 48.2049 25.1835 48.2066 23.3651C48.2067 23.3546 48.2059 23.344 48.2043 23.3335Z" fill="#04A3A3"/>
<path d="M41.0512 16.2476C39.1836 16.2515 37.3159 16.2509 35.4477 16.2634C33.7229 16.2746 32.2318 16.8979 31.0079 18.1082C28.9234 20.1697 26.8613 22.256 24.7981 24.3378C22.7612 26.3925 20.7007 28.4269 18.7081 30.525C17.5414 31.754 16.8662 33.2808 16.7844 34.9858C16.6975 36.8522 16.7457 38.7253 16.7373 40.5955C16.7376 40.641 16.7402 40.6863 16.7452 40.7315C16.748 40.7601 16.7588 40.7874 16.7764 40.8101C16.794 40.8328 16.8176 40.8501 16.8446 40.8598C16.8715 40.8696 16.9006 40.8714 16.9285 40.8652C16.9565 40.8589 16.9821 40.8448 17.0024 40.8245L41.1566 16.5047C41.1775 16.4837 41.1918 16.4569 41.1976 16.4277C41.2034 16.3985 41.2005 16.3683 41.1892 16.3407C41.1779 16.3132 41.1588 16.2897 41.1343 16.2731C41.1097 16.2565 41.0808 16.2476 41.0512 16.2476Z" fill="#04A3A3"/>
<path d="M17.1352 29.1071C16.7603 28.7281 16.3905 28.3434 16.0145 27.9649C14.7817 26.7207 13.5489 25.4774 12.3161 24.2351L8.2765 20.1708C7.2305 19.1251 6.17927 18.0849 5.12281 17.0501C4.60167 16.5425 3.98248 16.2537 3.23496 16.2605C2.2549 16.2678 1.27371 16.2509 0.293649 16.2374C0.0913606 16.2346 -0.0016587 16.3152 2.23709e-05 16.5194C0.0101088 17.5154 -0.00390013 18.512 0.0353249 19.5087C0.0599806 20.1404 0.265071 20.7343 0.713357 21.2007C1.79858 22.3265 2.89128 23.4445 3.99145 24.5549C5.68372 26.2656 7.38609 27.9655 9.07949 29.6745C10.9246 31.5369 12.7674 33.4015 14.608 35.2684C14.6346 35.2951 14.6684 35.3135 14.7053 35.3213C14.7421 35.3291 14.7804 35.3261 14.8155 35.3125C14.8507 35.2989 14.8811 35.2753 14.9033 35.2447C14.9254 35.214 14.9382 35.1776 14.9403 35.1398C15.0523 33.0371 15.6867 31.1443 17.1397 29.5792C17.2893 29.4139 17.2904 29.2644 17.1352 29.1071Z" fill="#006A6A"/>
<path d="M14.5969 38.0011C14.3617 37.6307 14.0925 37.2835 13.7927 36.9639C11.9744 35.1128 10.1409 33.278 8.31358 31.4365C7.00608 30.1205 5.70082 28.8029 4.3978 27.4839C3.04248 26.1141 1.68717 24.7428 0.331849 23.37C0.330073 23.3678 0.327997 23.3659 0.325685 23.3643C0.264589 23.3119 0.200808 23.2628 0.134603 23.2171C0.123139 23.2091 0.109921 23.204 0.0960827 23.2023C0.0822441 23.2006 0.0681964 23.2023 0.0551423 23.2072C0.0420882 23.2121 0.0304164 23.2202 0.0211263 23.2306C0.0118361 23.2411 0.00520422 23.2537 0.00179842 23.2673C0.000702609 23.275 0.000702609 23.2828 0.00179842 23.2904C0.00964342 25.0913 0.0247731 26.8922 0.0264541 28.6931C0.0264541 30.7016 0.74147 32.4128 2.13788 33.8341C3.47321 35.1945 4.82759 36.5442 6.17469 37.9018C7.7534 39.4889 9.33118 41.0765 10.908 42.6644C12.1201 43.8894 13.3237 45.1223 14.533 46.3496C14.5706 46.3872 14.6105 46.4224 14.6523 46.4551C14.6759 46.4743 14.7044 46.4864 14.7346 46.49C14.7647 46.4935 14.7953 46.4884 14.8226 46.4751C14.85 46.4619 14.8731 46.4411 14.8891 46.4152C14.9052 46.3893 14.9136 46.3593 14.9135 46.3288C14.9034 43.9599 14.8894 41.591 14.8838 39.2222C14.8826 38.7851 14.8361 38.362 14.5969 38.0011Z" fill="#04A3A3"/>
<path d="M8.29779 17.6927C11.6506 21.0685 15.0019 24.4458 18.3517 27.8247C18.5759 28.0503 18.6246 28.0503 18.8459 27.819C19.4175 27.2268 19.9852 26.6295 20.5657 26.0458C21.2583 25.3498 21.958 24.6602 22.6648 23.977C22.8441 23.8032 22.8682 23.6701 22.6732 23.4913C22.4115 23.2511 22.1689 22.9888 21.9201 22.7373C20.3673 21.18 18.8381 19.5968 17.2534 18.0751C16.196 17.0599 14.915 16.4163 13.4391 16.2928C12.306 16.1981 11.1657 16.2437 10.0287 16.1958C9.1047 16.1958 8.17955 16.1958 7.25608 16.2009C7.24713 16.2003 7.23814 16.2003 7.22919 16.2009C7.19532 16.207 7.16357 16.2217 7.13698 16.2437C7.11039 16.2657 7.08984 16.2942 7.0773 16.3264C7.06477 16.3587 7.06066 16.3936 7.06537 16.4279C7.07009 16.4622 7.08346 16.4947 7.10423 16.5224C7.11247 16.5337 7.12166 16.5442 7.13168 16.554C7.51497 16.9403 7.91506 17.3075 8.29779 17.6927Z" fill="#04A3A3"/>
<path d="M13.6581 14.4537C15.5465 14.6877 17.1855 15.4441 18.5332 16.8118C18.6452 16.9246 18.7539 17.0346 18.8694 17.1502C18.9043 17.1849 18.9486 17.2084 18.9967 17.2179C19.0448 17.2273 19.0946 17.2222 19.1399 17.2032C19.1852 17.1842 19.2238 17.1522 19.2511 17.1112C19.2783 17.0701 19.2929 17.0219 19.293 16.9726V5.07183C19.2941 5.03823 19.2853 5.00506 19.2676 4.97655C19.2499 4.94804 19.2242 4.92548 19.1937 4.91175C19.1632 4.89801 19.1294 4.89372 19.0965 4.89943C19.0635 4.90514 19.0331 4.92058 19.0089 4.9438C18.5802 5.3623 18.1521 5.78079 17.733 6.20888C16.8297 7.12992 15.9057 8.03234 15.0388 8.98722C13.764 10.3905 13.2204 12.0893 13.2227 13.9731C13.2232 14.3978 13.235 14.4012 13.6581 14.4537Z" fill="#006A6A"/>
<path d="M21.0424 8.02338C21.0502 9.0747 21.0542 10.1345 21.0553 11.1864C21.0553 12.4221 21.0295 13.6359 21.0424 14.8722C21.0497 15.5671 21.0586 16.2766 21.0424 16.9709C21.029 17.2776 21.034 17.5848 21.0575 17.8908C21.0693 18.0149 21.0743 18.139 21.0777 18.2636C21.0951 18.9218 21.4285 19.5045 21.8835 19.9901C22.5492 20.7013 23.2283 21.3973 23.9165 22.0882C23.9976 22.1677 24.0909 22.2336 24.1927 22.2834C24.2142 22.2945 24.2384 22.2996 24.2625 22.2981C24.2867 22.2967 24.31 22.2886 24.33 22.2749C24.3363 22.2707 24.3413 22.2648 24.3446 22.258L24.3916 22.2106L24.5166 22.0899C24.5682 22.0392 24.5418 22.0335 24.5889 21.9799C24.7385 21.8034 25.5353 21.0561 25.6564 20.9343C27.0892 19.4244 25.8245 20.6878 26.3159 20.2106C26.3268 20.2003 26.337 20.1894 26.3467 20.1779C26.3647 20.1559 26.5098 19.9151 26.5238 19.8897C26.6331 19.6912 26.6011 19.6996 26.7339 19.518C27.0007 19.1542 27.1783 18.8716 27.1783 18.4464C27.1822 13.8401 27.0505 9.10178 27.0505 4.49546C27.0505 4.15705 27.0819 3.81864 27.0315 3.4887C26.9362 2.86377 26.5888 2.36066 26.1562 1.91791C25.5673 1.31667 24.9688 0.723892 24.3743 0.1266C24.2017 -0.0471166 24.0549 -0.0426045 23.8772 0.143521C23.2659 0.777474 22.5245 1.37815 21.916 2.0138C21.628 2.31385 21.2761 2.69061 21.1651 3.10517C20.9824 3.78762 21.0233 4.47911 21.0301 5.17567C21.0385 6.12547 21.0357 7.07414 21.0424 8.02338Z" fill="#04A3A3"/>
<path d="M35.0945 13.7623C35.0659 11.8791 34.4955 10.1893 33.1977 8.80687C32.3157 7.86665 31.3771 6.97946 30.4592 6.07308C30.0334 5.65176 29.5985 5.2406 29.1631 4.82887C29.1385 4.80664 29.1079 4.79223 29.0752 4.78742C29.0425 4.78261 29.0091 4.78762 28.9792 4.80183C28.9493 4.81604 28.9242 4.83881 28.9071 4.8673C28.89 4.89578 28.8816 4.92872 28.883 4.96197L29.0757 16.8627C29.0769 16.9119 29.0925 16.9597 29.1205 17C29.1485 17.0404 29.1877 17.0716 29.2332 17.0896C29.2787 17.1077 29.3285 17.1118 29.3763 17.1016C29.4242 17.0913 29.4679 17.0671 29.5022 17.0319C29.617 16.9135 29.7263 16.8012 29.8344 16.6879C31.1546 15.2959 32.7797 14.513 34.6664 14.2479C35.0884 14.1887 35.1001 14.1848 35.0945 13.7623Z" fill="#006A6A"/>
</g>
<defs>
<clipPath id="clip0_6523_2478">
<rect width="48.2119" height="48" fill="white"/>
</clipPath>
</defs>
</svg>
