<svg width="49" height="48" viewBox="0 0 49 48" fill="none" xmlns="http://www.w3.org/2000/svg">
<g clip-path="url(#clip0_6545_55656)">
<path d="M28.185 31.9162C27.1646 32.9444 26.138 33.967 25.1164 34.9946C24.3785 35.7369 23.6472 36.4864 22.9086 37.2287C22.0378 38.1029 21.1603 38.9698 20.2912 39.8457C19.4019 40.7414 18.525 41.6506 17.6318 42.5411C16.9464 43.2253 16.5155 43.9963 16.5604 45.0126C16.5957 45.8023 16.5536 46.597 16.5469 47.3905C16.5461 47.5305 16.5617 47.67 16.5934 47.8062C16.5992 47.8312 16.6105 47.8545 16.6265 47.8745C16.6416 47.8934 16.6606 47.9088 16.6821 47.9197C16.7037 47.9306 16.7273 47.9367 16.7514 47.9376L17.7421 47.9698L18.4706 47.9777H19.7006C19.8491 47.9731 19.9962 47.9467 20.1371 47.8993L20.8392 47.6624L20.8292 47.6658H20.8342L21.0628 47.553L21.4663 47.2619H21.4859L21.4937 47.2439C21.5421 47.2196 21.5876 47.1899 21.6293 47.1553L21.6422 47.1446C22.1219 46.6765 22.6027 46.2095 23.0767 45.7346C24.0876 44.7227 25.0963 43.7075 26.1027 42.6889C26.6742 42.1114 27.2391 41.5265 27.8067 40.945H27.8235L27.8291 40.9286C27.9507 40.8158 28.0774 40.7103 28.1934 40.5902C28.889 39.8814 29.5831 39.1711 30.2757 38.4594H30.2902V38.4453L30.3496 38.3889L30.3541 38.3849C30.4398 38.2947 30.5261 38.205 30.6124 38.1147L30.6309 38.1052L31.3034 37.4249L31.9635 36.7481L32.0918 36.6353L33.0763 35.6387H33.0931V35.6218L33.3655 35.3398L33.4344 35.2834L34.0418 34.663L34.104 34.6066L34.8616 33.8485L35.8787 32.8209L35.9566 32.7476L36.2132 32.4752H36.2289L36.2339 32.4599L37.567 31.1063L37.6382 31.0454L37.6869 30.9991L37.6931 30.9924L38.6782 29.9963L38.7583 29.9235C38.8452 29.8339 38.9315 29.7436 39.0178 29.6539L39.0335 29.6438L39.238 29.4272L39.2739 29.3934C39.3663 29.3161 39.465 29.245 39.549 29.1599C39.9508 28.7538 40.3453 28.3415 40.747 27.9365C41.8737 26.8006 43.0017 25.6667 44.131 24.5349C44.9032 23.7594 45.6844 22.9929 46.4515 22.2123C46.7569 21.9016 47.0354 21.5631 47.3262 21.2377L47.3425 21.2315V21.2146L47.6193 20.8474C47.9369 20.4722 48.1131 19.9963 48.1169 19.5034C48.1426 18.5231 48.1213 17.5361 48.1286 16.5491C48.1286 16.3139 48.0323 16.2355 47.8092 16.2372C46.7821 16.2456 45.7538 16.2197 44.7273 16.2625C44.3686 16.2778 43.9904 16.4041 43.6671 16.5694C42.8366 16.9946 42.2774 17.7504 41.6223 18.3866C40.8586 19.1289 40.1245 19.9021 39.3736 20.6585C38.3728 21.6664 37.3664 22.6692 36.3651 23.6765M43.3 17.6359C43.3281 17.6021 43.3561 17.566 43.3813 17.531C43.3538 17.5632 43.3253 17.5992 43.3 17.6331V17.6359ZM42.6736 18.1999C42.6627 18.2145 42.6492 18.227 42.6338 18.2366C42.6483 18.2269 42.6609 18.2144 42.6708 18.1999H42.6736ZM47.4528 20.817L47.3968 20.782C47.4138 20.7951 47.4316 20.8072 47.45 20.8181L47.4528 20.817ZM42.1255 18.421C42.1446 18.3838 42.1631 18.346 42.1816 18.3082C42.1631 18.3454 42.1446 18.3832 42.1255 18.421C42.0588 18.4678 41.9849 18.5079 41.9204 18.5569C41.9821 18.509 42.056 18.469 42.1227 18.4221L42.1255 18.421ZM28.0606 32.747C28.2079 32.5372 28.3318 32.3048 28.5088 32.1221C28.334 32.3048 28.2102 32.5372 28.0606 32.7481C28.1519 32.7577 28.2427 32.7668 28.3301 32.7746L28.0611 32.7493C27.9933 32.7679 27.9098 32.7701 27.8544 32.8057C27.9059 32.7718 27.9894 32.7696 28.0572 32.7493L28.0606 32.747ZM26.6597 34.0442C26.6787 33.9878 26.6972 33.9314 26.7157 33.875C26.6967 33.9314 26.6782 33.9878 26.6597 34.0442C26.6171 34.073 26.5728 34.1006 26.5285 34.1255C26.5695 34.1018 26.6137 34.0758 26.6557 34.0471L26.6597 34.0442ZM23.5217 37.2027C23.4572 37.2445 23.3889 37.2823 23.3227 37.3223C23.3849 37.2856 23.4533 37.2478 23.5177 37.2061L23.5217 37.2027ZM17.0215 43.9709C17.0495 43.9145 17.0776 43.8581 17.105 43.8017C17.077 43.8587 17.0484 43.9151 17.021 43.9715L17.0215 43.9709ZM29.3494 39.1768L29.0911 39.4915L29.3483 39.1807L29.3494 39.1768ZM34.0418 34.4752C34.0506 34.4764 34.0592 34.4785 34.0676 34.4814C34.0591 34.4795 34.0505 34.4782 34.0418 34.4774V34.4752ZM34.5585 33.989C34.5428 33.9924 34.5271 33.9952 34.5108 33.9974C34.4946 33.9997 34.4632 34.0059 34.4408 34.0115C34.4632 34.0059 34.4873 34.0019 34.5108 33.9974C34.5344 33.9929 34.5422 33.9929 34.5579 33.9895L34.5585 33.989ZM35.9594 32.3945C35.9896 32.3675 36.0219 32.3428 36.0557 32.3206C36.0221 32.3437 35.9901 32.3692 35.9599 32.3968L35.9594 32.3945ZM41.2267 27.2766C41.2452 27.258 41.2637 27.2388 41.2827 27.2202C41.2643 27.2405 41.2458 27.2597 41.2267 27.2766ZM42.9638 25.5282C42.9823 25.509 43.0014 25.4904 43.0199 25.4718C43.0019 25.4921 42.9829 25.5107 42.9638 25.5282ZM47.7599 20.0008C47.7935 19.8525 47.9415 19.7425 48.0048 19.606C47.942 19.7442 47.7941 19.8542 47.7605 20.0008H47.7599Z" fill="#F0001C"/>
<path d="M48.2043 23.3335L48.187 23.2315C48.185 23.2201 48.1807 23.2092 48.1745 23.1995C48.1682 23.1898 48.1601 23.1815 48.1505 23.1751C48.1338 23.1629 48.1132 23.1572 48.0926 23.159C48.072 23.1609 48.0528 23.1702 48.0385 23.1852C43.9684 27.2991 39.8909 31.4061 35.8059 35.5061C31.7948 39.5428 27.7855 43.58 23.7279 47.6685C23.7022 47.6942 23.6847 47.727 23.6775 47.7628C23.6703 47.7985 23.6738 47.8356 23.6875 47.8693C23.7012 47.9031 23.7246 47.9319 23.7546 47.9523C23.7847 47.9727 23.82 47.9837 23.8563 47.9838C25.4998 47.9906 27.1433 48.0126 28.7874 47.99C29.4015 47.9805 30.0135 47.915 30.6158 47.7943C31.8624 47.5522 33.0103 46.9454 33.9158 46.0498C35.8059 44.1942 37.6629 42.3048 39.53 40.4255C41.7204 38.2213 43.917 36.0222 46.0935 33.8039C47.4428 32.4283 48.1612 30.7582 48.1959 28.8192C48.2256 27.0013 48.2049 25.1835 48.2066 23.3651C48.2067 23.3546 48.2059 23.344 48.2043 23.3335Z" fill="#F28500"/>
<path d="M41.0512 16.2478C39.1836 16.2518 37.3159 16.2512 35.4477 16.2636C33.7229 16.2749 32.2318 16.8981 31.0079 18.1085C28.9234 20.17 26.8613 22.2563 24.7981 24.338C22.7612 26.3927 20.7007 28.4272 18.7081 30.5253C17.5414 31.7543 16.8662 33.2811 16.7844 34.9861C16.6975 36.8524 16.7457 38.7255 16.7373 40.5958C16.7376 40.6412 16.7402 40.6866 16.7452 40.7317C16.748 40.7604 16.7588 40.7876 16.7764 40.8104C16.794 40.8331 16.8176 40.8503 16.8446 40.8601C16.8715 40.8698 16.9006 40.8717 16.9285 40.8654C16.9565 40.8592 16.9821 40.8451 17.0024 40.8248L41.1566 16.505C41.1775 16.484 41.1918 16.4572 41.1976 16.428C41.2034 16.3988 41.2005 16.3685 41.1892 16.341C41.1779 16.3135 41.1588 16.2899 41.1343 16.2733C41.1097 16.2568 41.0808 16.2479 41.0512 16.2478Z" fill="#F28500"/>
<path d="M17.1352 29.1073C16.7603 28.7283 16.3905 28.3436 16.0145 27.9652C14.7817 26.721 13.5489 25.4777 12.3161 24.2354L8.2765 20.1711C7.2305 19.1254 6.17927 18.0851 5.12281 17.0504C4.60167 16.5428 3.98248 16.254 3.23496 16.2607C2.2549 16.2681 1.27371 16.2512 0.293649 16.2376C0.0913606 16.2348 -0.0016587 16.3155 2.23709e-05 16.5196C0.0101088 17.5157 -0.00390013 18.5123 0.0353249 19.5089C0.0599806 20.1406 0.265071 20.7345 0.713357 21.201C1.79858 22.3267 2.89128 23.4448 3.99145 24.5552C5.68372 26.2658 7.38609 27.9658 9.07949 29.6747C10.9246 31.5371 12.7674 33.4017 14.608 35.2686C14.6346 35.2953 14.6684 35.3137 14.7053 35.3216C14.7421 35.3294 14.7804 35.3263 14.8155 35.3127C14.8507 35.2991 14.8811 35.2756 14.9033 35.2449C14.9254 35.2143 14.9382 35.1779 14.9403 35.14C15.0523 33.0374 15.6867 31.1445 17.1397 29.5794C17.2893 29.4141 17.2904 29.2647 17.1352 29.1073Z" fill="#F0001C"/>
<path d="M14.5969 38.0013C14.3617 37.631 14.0925 37.2837 13.7927 36.9641C11.9744 35.113 10.1409 33.2783 8.31358 31.4367C7.00608 30.1207 5.70082 28.8032 4.3978 27.4841C3.04248 26.1143 1.68717 24.743 0.331849 23.3702C0.330073 23.368 0.327997 23.3661 0.325685 23.3646C0.264589 23.3122 0.200808 23.263 0.134603 23.2174C0.123139 23.2094 0.109921 23.2043 0.0960827 23.2026C0.0822441 23.2008 0.0681964 23.2025 0.0551423 23.2074C0.0420882 23.2124 0.0304164 23.2204 0.0211263 23.2309C0.0118361 23.2414 0.00520422 23.2539 0.00179842 23.2675C0.000702609 23.2752 0.000702609 23.283 0.00179842 23.2907C0.00964342 25.0916 0.0247731 26.8925 0.0264541 28.6934C0.0264541 30.7018 0.74147 32.4131 2.13788 33.8344C3.47321 35.1948 4.82759 36.5445 6.17469 37.9021C7.7534 39.4892 9.33118 41.0767 10.908 42.6646C12.1201 43.8896 13.3237 45.1226 14.533 46.3499C14.5706 46.3874 14.6105 46.4226 14.6523 46.4553C14.6759 46.4746 14.7044 46.4867 14.7346 46.4902C14.7647 46.4938 14.7953 46.4886 14.8226 46.4754C14.85 46.4621 14.8731 46.4414 14.8891 46.4154C14.9052 46.3895 14.9136 46.3596 14.9135 46.329C14.9034 43.9601 14.8894 41.5913 14.8838 39.2224C14.8826 38.7853 14.8361 38.3623 14.5969 38.0013Z" fill="#F28500"/>
<path d="M8.29779 17.6928C11.6506 21.0686 15.0019 24.446 18.3517 27.8248C18.5759 28.0504 18.6246 28.0504 18.8459 27.8192C19.4175 27.2269 19.9852 26.6296 20.5657 26.0459C21.2583 25.3499 21.958 24.6603 22.6648 23.9771C22.8441 23.8034 22.8682 23.6703 22.6732 23.4915C22.4115 23.2512 22.1689 22.9889 21.9201 22.7374C20.3673 21.1801 18.8381 19.5969 17.2534 18.0752C16.196 17.06 14.915 16.4165 13.4391 16.2929C12.306 16.1982 11.1657 16.2439 10.0287 16.1959C9.1047 16.1959 8.17955 16.1959 7.25608 16.201C7.24713 16.2004 7.23814 16.2004 7.22919 16.201C7.19532 16.2071 7.16357 16.2219 7.13698 16.2438C7.11039 16.2658 7.08984 16.2943 7.0773 16.3265C7.06477 16.3588 7.06066 16.3937 7.06537 16.428C7.07009 16.4624 7.08346 16.4949 7.10423 16.5225C7.11247 16.5338 7.12166 16.5443 7.13168 16.5541C7.51497 16.9404 7.91506 17.3076 8.29779 17.6928Z" fill="#F28500"/>
<path d="M13.6581 14.4537C15.5465 14.6877 17.1855 15.4441 18.5332 16.8118C18.6452 16.9246 18.7539 17.0346 18.8694 17.1502C18.9043 17.1849 18.9486 17.2084 18.9967 17.2179C19.0448 17.2273 19.0946 17.2222 19.1399 17.2032C19.1852 17.1842 19.2238 17.1522 19.2511 17.1112C19.2783 17.0701 19.2929 17.0219 19.293 16.9726V5.07183C19.2941 5.03823 19.2853 5.00506 19.2676 4.97655C19.2499 4.94804 19.2242 4.92548 19.1937 4.91175C19.1632 4.89801 19.1294 4.89372 19.0965 4.89943C19.0635 4.90514 19.0331 4.92058 19.0089 4.9438C18.5802 5.3623 18.1521 5.78079 17.733 6.20888C16.8297 7.12992 15.9057 8.03234 15.0388 8.98722C13.764 10.3905 13.2204 12.0893 13.2227 13.9731C13.2232 14.3978 13.235 14.4012 13.6581 14.4537Z" fill="#F0001C"/>
<path d="M21.0424 8.02338C21.0502 9.0747 21.0542 10.1345 21.0553 11.1864C21.0553 12.4221 21.0295 13.6359 21.0424 14.8722C21.0497 15.5671 21.0586 16.2766 21.0424 16.9709C21.029 17.2776 21.034 17.5848 21.0575 17.8908C21.0693 18.0149 21.0743 18.139 21.0777 18.2636C21.0951 18.9218 21.4285 19.5045 21.8835 19.9901C22.5492 20.7013 23.2283 21.3973 23.9165 22.0882C23.9976 22.1677 24.0909 22.2336 24.1927 22.2834C24.2142 22.2945 24.2384 22.2996 24.2625 22.2981C24.2867 22.2967 24.31 22.2886 24.33 22.2749C24.3363 22.2707 24.3413 22.2648 24.3446 22.258L24.3916 22.2106L24.5166 22.0899C24.5682 22.0392 24.5418 22.0335 24.5889 21.9799C24.7385 21.8034 25.5353 21.0561 25.6564 20.9343C27.0892 19.4244 25.8245 20.6878 26.3159 20.2106C26.3268 20.2003 26.337 20.1894 26.3467 20.1779C26.3647 20.1559 26.5098 19.9151 26.5238 19.8897C26.6331 19.6912 26.6011 19.6996 26.7339 19.518C27.0007 19.1542 27.1783 18.8716 27.1783 18.4464C27.1822 13.8401 27.0505 9.10178 27.0505 4.49546C27.0505 4.15705 27.0819 3.81864 27.0315 3.4887C26.9362 2.86377 26.5888 2.36066 26.1562 1.91791C25.5673 1.31667 24.9688 0.723892 24.3743 0.1266C24.2017 -0.0471166 24.0549 -0.0426045 23.8772 0.143521C23.2659 0.777474 22.5245 1.37815 21.916 2.0138C21.628 2.31385 21.2761 2.69061 21.1651 3.10517C20.9824 3.78762 21.0233 4.47911 21.0301 5.17567C21.0385 6.12547 21.0357 7.07414 21.0424 8.02338Z" fill="#F28500"/>
<path d="M35.0945 13.7623C35.0659 11.8791 34.4955 10.1893 33.1977 8.80687C32.3157 7.86665 31.3771 6.97946 30.4592 6.07308C30.0334 5.65176 29.5985 5.2406 29.1631 4.82887C29.1385 4.80664 29.1079 4.79223 29.0752 4.78742C29.0425 4.78261 29.0091 4.78762 28.9792 4.80183C28.9493 4.81604 28.9242 4.83881 28.9071 4.8673C28.89 4.89578 28.8816 4.92872 28.883 4.96197L29.0757 16.8627C29.0769 16.9119 29.0925 16.9597 29.1205 17C29.1485 17.0404 29.1877 17.0716 29.2332 17.0896C29.2787 17.1077 29.3285 17.1118 29.3763 17.1016C29.4242 17.0913 29.4679 17.0671 29.5022 17.0319C29.617 16.9135 29.7263 16.8012 29.8344 16.6879C31.1546 15.2959 32.7797 14.513 34.6664 14.2479C35.0884 14.1887 35.1001 14.1848 35.0945 13.7623Z" fill="#F0001C"/>
</g>
<defs>
<clipPath id="clip0_6545_55656">
<rect width="48.2119" height="48" fill="white"/>
</clipPath>
</defs>
</svg>
