<svg width="226" height="30" viewBox="0 0 226 30" fill="none" xmlns="http://www.w3.org/2000/svg">
<path d="M6.2344 28.9779L9.87673 5.86828H0.550781L1.39132 0.741699H26.2472L25.4466 5.86828H16.1207L12.4384 28.9779H6.2344Z" fill="#161C2D"/>
<path d="M24.2793 28.9779L28.7622 0.741699H34.8061L33.0449 12.0362C34.4858 9.95352 36.6339 8.91218 39.489 8.91218C41.6237 8.91218 43.2514 9.57971 44.3721 10.9148C45.5195 12.2498 45.8664 14.3725 45.4128 17.2829L43.5716 28.9779H37.5278L39.3289 17.4031C39.7559 14.8665 38.942 13.5982 36.8874 13.5982C35.5265 13.5982 34.4325 14.0388 33.6053 14.9199C32.7781 15.7743 32.2444 16.9625 32.0043 18.4845L30.3232 28.9779H24.2793Z" fill="#161C2D"/>
<path d="M58.7704 29.4185C56.7157 29.4185 54.9279 29.0447 53.407 28.2971C51.886 27.5227 50.7119 26.468 49.8847 25.133C49.0575 23.7713 48.6439 22.1825 48.6439 20.3669C48.6439 18.124 49.1109 16.1481 50.0448 14.4393C51.0054 12.7037 52.3129 11.3553 53.9673 10.3941C55.6484 9.40615 57.5563 8.91218 59.691 8.91218C61.879 8.91218 63.6268 9.3928 64.9343 10.354C66.2418 11.2886 67.1491 12.5569 67.6561 14.1589C68.163 15.7343 68.2965 17.4832 68.0563 19.4056L67.8962 20.447H54.2475C54.2742 21.8621 54.7278 22.9569 55.6084 23.7312C56.4889 24.5055 57.7431 24.8927 59.3708 24.8927C60.4915 24.8927 61.5722 24.7325 62.6128 24.4121C63.6802 24.0917 64.6275 23.6244 65.4546 23.0103L66.7755 26.9754C65.8149 27.723 64.6275 28.3238 63.2132 28.7777C61.799 29.2049 60.318 29.4185 58.7704 29.4185ZM59.6509 12.9173C58.21 12.9173 57.0893 13.3579 56.2888 14.239C55.4883 15.0934 54.9546 16.1214 54.6878 17.323H63.4133C63.4934 16.068 63.2266 15.0267 62.6128 14.199C62.0258 13.3445 61.0385 12.9173 59.6509 12.9173Z" fill="#161C2D"/>
<path d="M81.711 28.9779L86.1938 0.741699H92.3978L90.5966 12.0762H103.685L105.526 0.741699H111.73L107.247 28.9779H101.043L102.884 17.2429H89.7561L87.9149 28.9779H81.711Z" fill="#161C2D"/>
<path d="M123.108 29.4185C121.054 29.4185 119.266 29.0447 117.745 28.2971C116.224 27.5227 115.05 26.468 114.223 25.133C113.395 23.7713 112.982 22.1825 112.982 20.3669C112.982 18.124 113.449 16.1481 114.383 14.4393C115.343 12.7037 116.651 11.3553 118.305 10.3941C119.986 9.40615 121.894 8.91218 124.029 8.91218C126.217 8.91218 127.965 9.3928 129.272 10.354C130.58 11.2886 131.487 12.5569 131.994 14.1589C132.501 15.7343 132.634 17.4832 132.394 19.4056L132.234 20.447H118.585C118.612 21.8621 119.066 22.9569 119.946 23.7312C120.827 24.5055 122.081 24.8927 123.709 24.8927C124.829 24.8927 125.91 24.7325 126.951 24.4121C128.018 24.0917 128.965 23.6244 129.793 23.0103L131.113 26.9754C130.153 27.723 128.965 28.3238 127.551 28.7777C126.137 29.2049 124.656 29.4185 123.108 29.4185ZM123.989 12.9173C122.548 12.9173 121.427 13.3579 120.627 14.239C119.826 15.0934 119.293 16.1214 119.026 17.323H127.751C127.831 16.068 127.564 15.0267 126.951 14.199C126.364 13.3445 125.376 12.9173 123.989 12.9173Z" fill="#161C2D"/>
<path d="M141.193 29.4185C139.965 29.4185 138.845 29.1381 137.831 28.5774C136.817 27.99 136.016 27.229 135.429 26.2945C134.842 25.36 134.549 24.3453 134.549 23.2506C134.549 21.1679 135.429 19.6593 137.19 18.7248C138.978 17.7635 141.767 17.2829 145.556 17.2829H148.277L148.357 16.7623C148.544 15.6675 148.344 14.8264 147.757 14.239C147.197 13.6516 146.236 13.3579 144.875 13.3579C142.527 13.3579 140.259 14.0121 138.071 15.3204L136.83 11.2352C137.871 10.5409 139.192 9.98022 140.793 9.55301C142.42 9.12579 144.061 8.91218 145.716 8.91218C147.957 8.91218 149.718 9.32605 150.999 10.1538C152.28 10.9815 153.147 12.1029 153.601 13.5181C154.054 14.9065 154.134 16.4685 153.841 18.2041L152.16 28.9779H146.516L146.957 26.0942C146.316 27.2424 145.489 28.0835 144.475 28.6175C143.461 29.1515 142.367 29.4185 141.193 29.4185ZM143.234 25.3733C144.382 25.3733 145.342 25.0262 146.116 24.332C146.917 23.611 147.41 22.6498 147.597 21.4483L147.797 20.4069H145.676C143.728 20.4069 142.354 20.5938 141.553 20.9677C140.753 21.3148 140.352 21.9422 140.352 22.8501C140.352 23.6511 140.619 24.2786 141.153 24.7325C141.713 25.1597 142.407 25.3733 143.234 25.3733Z" fill="#161C2D"/>
<path d="M164.153 29.4185C161.698 29.4185 159.937 28.751 158.87 27.4159C157.802 26.0542 157.469 24.0917 157.869 21.5284L161.151 0.741699H167.195L163.913 21.4483C163.62 23.5042 164.393 24.5322 166.235 24.5322C166.501 24.5322 166.782 24.5189 167.075 24.4922C167.369 24.4655 167.662 24.4388 167.956 24.4121L167.155 29.018C166.275 29.285 165.274 29.4185 164.153 29.4185Z" fill="#161C2D"/>
<path d="M180.489 29.4185C178.434 29.4185 176.646 29.0447 175.125 28.2971C173.604 27.5227 172.43 26.468 171.603 25.133C170.776 23.7713 170.362 22.1825 170.362 20.3669C170.362 18.124 170.829 16.1481 171.763 14.4393C172.724 12.7037 174.031 11.3553 175.686 10.3941C177.367 9.40615 179.274 8.91218 181.409 8.91218C183.597 8.91218 185.345 9.3928 186.653 10.354C187.96 11.2886 188.867 12.5569 189.374 14.1589C189.881 15.7343 190.015 17.4832 189.775 19.4056L189.614 20.447H175.966C175.992 21.8621 176.446 22.9569 177.327 23.7312C178.207 24.5055 179.461 24.8927 181.089 24.8927C182.21 24.8927 183.29 24.7325 184.331 24.4121C185.398 24.0917 186.346 23.6244 187.173 23.0103L188.494 26.9754C187.533 27.723 186.346 28.3238 184.931 28.7777C183.517 29.2049 182.036 29.4185 180.489 29.4185ZM181.369 12.9173C179.928 12.9173 178.808 13.3579 178.007 14.239C177.206 15.0934 176.673 16.1214 176.406 17.323H185.132C185.212 16.068 184.945 15.0267 184.331 14.199C183.744 13.3445 182.757 12.9173 181.369 12.9173Z" fill="#161C2D"/>
<path d="M191.769 28.9779L194.891 9.3127H200.815L200.254 12.677C200.868 11.5823 201.709 10.7145 202.776 10.0737C203.843 9.40615 205.111 9.01899 206.578 8.91218L208.42 8.79203L208.219 13.8786L204.377 14.2791C202.776 14.4393 201.615 14.9065 200.895 15.6809C200.201 16.4552 199.734 17.6033 199.494 19.1253L197.933 28.9779H191.769Z" fill="#161C2D"/>
<path d="M216.434 29.4185C214.726 29.4185 213.112 29.2182 211.591 28.8177C210.07 28.4172 208.789 27.8431 207.748 27.0955L209.509 23.2105C210.47 23.8514 211.564 24.3587 212.791 24.7325C214.019 25.0796 215.22 25.2532 216.394 25.2532C217.541 25.2532 218.395 25.0529 218.955 24.6524C219.542 24.2519 219.836 23.7446 219.836 23.1304C219.836 22.2493 219.209 21.6886 217.955 21.4483L214.312 20.7674C212.738 20.5004 211.524 19.9263 210.67 19.0452C209.816 18.1374 209.389 17.0026 209.389 15.6408C209.389 14.4393 209.736 13.3312 210.43 12.3166C211.15 11.2752 212.204 10.4475 213.592 9.83337C214.979 9.21924 216.687 8.91218 218.715 8.91218C219.969 8.91218 221.25 9.09909 222.558 9.4729C223.892 9.82002 225.039 10.354 226 11.075L224.319 14.8798C223.438 14.2657 222.478 13.8118 221.437 13.5181C220.423 13.1977 219.409 13.0375 218.395 13.0375C217.194 13.0375 216.287 13.2511 215.673 13.6783C215.086 14.1055 214.793 14.6529 214.793 15.3204C214.793 15.6942 214.913 16.028 215.153 16.3217C215.42 16.5887 215.847 16.7756 216.434 16.8824L220.036 17.5633C223.505 18.2041 225.239 19.913 225.239 22.6899C225.239 24.8526 224.425 26.5214 222.798 27.6963C221.197 28.8444 219.075 29.4185 216.434 29.4185Z" fill="#161C2D"/>
</svg>
