<svg width="51" height="50" viewBox="0 0 51 50" fill="none" xmlns="http://www.w3.org/2000/svg">
<g clip-path="url(#clip0_6523_429)">
<path d="M29.574 33.2457C28.5033 34.3167 27.4261 35.3819 26.3543 36.4523C25.5799 37.2255 24.8126 38.0063 24.0376 38.7795C23.1239 39.6901 22.2031 40.5931 21.2912 41.5056C20.3581 42.4385 19.4379 43.3856 18.5007 44.3133C17.7816 45.0259 17.3294 45.8291 17.3764 46.8878C17.4135 47.7103 17.3694 48.5381 17.3623 49.3647C17.3615 49.5105 17.3779 49.6558 17.4111 49.7977C17.4172 49.8238 17.429 49.8481 17.4458 49.8688C17.4617 49.8886 17.4816 49.9047 17.5042 49.916C17.5268 49.9274 17.5516 49.9337 17.5769 49.9346L18.6165 49.9681L19.3809 49.9764H20.6715C20.8273 49.9716 20.9816 49.9441 21.1295 49.8947L21.8662 49.6479L21.8557 49.6515H21.8609L22.1008 49.534L22.5242 49.2308H22.5448L22.553 49.212C22.6037 49.1867 22.6515 49.1557 22.6953 49.1198L22.7088 49.1086C23.2121 48.621 23.7166 48.1345 24.214 47.6398C25.2747 46.5858 26.3331 45.5283 27.3891 44.4672C27.9888 43.8656 28.5815 43.2563 29.1771 42.6506H29.1948L29.2007 42.6336C29.3282 42.5161 29.4611 42.4062 29.5828 42.2811C30.3127 41.5428 31.041 40.8029 31.7678 40.0614H31.7831V40.0467L31.8454 39.988L31.8501 39.9839C31.94 39.8899 32.0306 39.7965 32.1211 39.7025L32.1405 39.6925L32.8461 38.9839L33.5388 38.2789L33.6734 38.1614L34.7065 37.1233H34.7241V37.1056L35.0099 36.8119L35.0822 36.7531L35.7196 36.1069L35.7848 36.0481L36.5798 35.2585L37.6469 34.188L37.7287 34.1117L37.998 33.8279H38.0144L38.0197 33.812L39.4185 32.402L39.4932 32.3385L39.5443 32.2904L39.5508 32.2833L40.5845 31.2458L40.6686 31.17C40.7597 31.0766 40.8502 30.9826 40.9408 30.8891L40.9573 30.8786L41.1719 30.653L41.2095 30.6177C41.3065 30.5372 41.41 30.4632 41.4982 30.3745C41.9198 29.9515 42.3337 29.522 42.7553 29.1002C43.9375 27.9169 45.1211 26.7358 46.3061 25.5568C47.1163 24.749 47.9359 23.9506 48.7409 23.1375C49.0613 22.8137 49.3536 22.4612 49.6587 22.1222L49.6758 22.1158V22.0981L49.9662 21.7157C50.2995 21.3248 50.4844 20.8291 50.4884 20.3156C50.5154 19.2945 50.4931 18.2664 50.5007 17.2382C50.5007 16.9932 50.3996 16.9115 50.1656 16.9133C49.0878 16.9221 48.0089 16.8951 46.9317 16.9397C46.5554 16.9556 46.1585 17.0872 45.8192 17.2594C44.9479 17.7023 44.3611 18.4896 43.6737 19.1523C42.8723 19.9255 42.102 20.731 41.3142 21.5188C40.264 22.5687 39.208 23.6133 38.1573 24.6626M45.4341 18.3703C45.4635 18.3351 45.4929 18.2975 45.5194 18.2611C45.4906 18.2946 45.4606 18.3322 45.4341 18.3674V18.3703ZM44.7768 18.9579C44.7653 18.9731 44.7512 18.986 44.735 18.9961C44.7503 18.986 44.7635 18.973 44.7738 18.9579H44.7768ZM49.7916 21.6839L49.7328 21.6475C49.7506 21.6612 49.7693 21.6738 49.7887 21.6851L49.7916 21.6839ZM44.2017 19.1882C44.2217 19.1494 44.2411 19.11 44.2605 19.0707C44.2411 19.1094 44.2217 19.1488 44.2017 19.1882C44.1317 19.2369 44.0541 19.2786 43.9865 19.3298C44.0512 19.2798 44.1288 19.2381 44.1988 19.1893L44.2017 19.1882ZM29.4435 34.1111C29.5981 33.8925 29.7281 33.6505 29.9139 33.4601C29.7304 33.6505 29.6005 33.8925 29.4435 34.1122C29.5393 34.1222 29.6346 34.1316 29.7263 34.1399L29.4441 34.1134C29.3729 34.1328 29.2853 34.1352 29.2271 34.1722C29.2812 34.1369 29.3688 34.1346 29.44 34.1134L29.4435 34.1111ZM27.9736 35.4624C27.9935 35.4036 28.0129 35.3449 28.0323 35.2861C28.0124 35.3449 27.993 35.4036 27.9736 35.4624C27.9289 35.4923 27.8824 35.5211 27.836 35.547C27.8789 35.5223 27.9253 35.4953 27.9694 35.4653L27.9736 35.4624ZM24.6809 38.7524C24.6133 38.7959 24.5415 38.8353 24.4722 38.877C24.5374 38.8388 24.6091 38.7994 24.6768 38.756L24.6809 38.7524ZM17.8604 45.8026C17.8898 45.7439 17.9191 45.6851 17.948 45.6264C17.9186 45.6857 17.8886 45.7445 17.8598 45.8032L17.8604 45.8026ZM30.7958 40.8088L30.5248 41.1366L30.7947 40.8129L30.7958 40.8088ZM35.7196 35.9112C35.7288 35.9125 35.7378 35.9147 35.7466 35.9177C35.7377 35.9157 35.7287 35.9144 35.7196 35.9136V35.9112ZM36.2617 35.4048C36.2452 35.4083 36.2287 35.4112 36.2117 35.4136C36.1946 35.4159 36.1617 35.4224 36.1382 35.4283C36.1617 35.4224 36.187 35.4183 36.2117 35.4136C36.2364 35.4089 36.2446 35.4089 36.2611 35.4054L36.2617 35.4048ZM37.7316 33.7439C37.7634 33.7158 37.7972 33.6901 37.8327 33.6669C37.7975 33.691 37.7639 33.7175 37.7322 33.7462L37.7316 33.7439ZM43.2586 28.4128C43.278 28.3934 43.2974 28.3734 43.3174 28.354C43.298 28.3752 43.2786 28.3951 43.2586 28.4128ZM45.0813 26.5915C45.1007 26.5715 45.1207 26.5521 45.1401 26.5327C45.1213 26.5539 45.1013 26.5732 45.0813 26.5915ZM50.1138 20.8338C50.1491 20.6793 50.3043 20.5647 50.3708 20.4225C50.3049 20.5665 50.1497 20.681 50.1144 20.8338H50.1138Z" fill="#F0001C"/>
<path d="M50.5804 24.3052L50.5622 24.1988C50.5601 24.187 50.5557 24.1757 50.5491 24.1656C50.5425 24.1555 50.534 24.1468 50.524 24.1401C50.5064 24.1274 50.4848 24.1215 50.4632 24.1234C50.4416 24.1254 50.4214 24.135 50.4064 24.1507C46.1357 28.436 41.8572 32.7141 37.5708 36.985C33.3621 41.1898 29.1551 45.3952 24.8976 49.6541C24.8706 49.6809 24.8522 49.7151 24.8447 49.7523C24.8371 49.7895 24.8408 49.8281 24.8552 49.8633C24.8696 49.8984 24.8941 49.9285 24.9256 49.9497C24.9571 49.971 24.9942 49.9824 25.0322 49.9826C26.7568 49.9896 28.4813 50.0125 30.2064 49.989C30.8508 49.9791 31.493 49.9109 32.125 49.7852C33.433 49.533 34.6374 48.9009 35.5876 47.968C37.5708 46.0351 39.5194 44.0669 41.4785 42.1093C43.7769 39.8133 46.0818 37.5225 48.3655 35.2118C49.7814 33.7789 50.5351 32.0392 50.5716 30.0194C50.6028 28.1258 50.581 26.2322 50.5828 24.3381C50.5829 24.3271 50.5821 24.3161 50.5804 24.3052Z" fill="#F28500"/>
<path d="M43.0741 16.9248C41.1144 16.9289 39.1547 16.9283 37.1944 16.9413C35.3846 16.953 33.82 17.6022 32.5358 18.863C30.3486 21.0104 28.1848 23.1836 26.0199 25.3521C23.8826 27.4925 21.7206 29.6116 19.6298 31.7972C18.4056 33.0774 17.6971 34.6678 17.6112 36.4438C17.5201 38.3879 17.5707 40.3391 17.5618 42.2873C17.5621 42.3346 17.5648 42.3819 17.5701 42.4289C17.573 42.4587 17.5844 42.4871 17.6028 42.5108C17.6213 42.5345 17.6461 42.5524 17.6744 42.5626C17.7026 42.5727 17.7332 42.5746 17.7625 42.5681C17.7918 42.5616 17.8187 42.547 17.84 42.5258L43.1847 17.1927C43.2067 17.1708 43.2216 17.1429 43.2277 17.1125C43.2338 17.0821 43.2308 17.0505 43.2189 17.0219C43.2071 16.9932 43.187 16.9687 43.1613 16.9514C43.1355 16.9341 43.1052 16.9249 43.0741 16.9248Z" fill="#F28500"/>
<path d="M17.9798 30.3201C17.5864 29.9253 17.1983 29.5246 16.8038 29.1304C15.5103 27.8343 14.2167 26.5392 12.9232 25.2451L8.68444 21.0115C7.58688 19.9222 6.48384 18.8386 5.37531 17.7607C4.82849 17.232 4.17877 16.9312 3.39441 16.9382C2.36604 16.9459 1.33649 16.9282 0.308123 16.9141C0.0958637 16.9112 -0.00174046 16.9952 2.34736e-05 17.2079C0.0106071 18.2454 -0.00409236 19.2836 0.037066 20.3217C0.062937 20.9797 0.278136 21.5984 0.748518 22.0843C1.88723 23.257 3.03379 24.4216 4.18818 25.5782C5.96387 27.3602 7.75014 29.1309 9.52701 30.9111C11.463 32.8511 13.3967 34.7934 15.328 36.7381C15.356 36.7659 15.3914 36.7851 15.4301 36.7932C15.4687 36.8014 15.5089 36.7982 15.5458 36.784C15.5826 36.7699 15.6146 36.7453 15.6378 36.7134C15.6611 36.6815 15.6745 36.6436 15.6767 36.6041C15.7943 34.4139 16.4598 32.4422 17.9845 30.8118C18.1415 30.6397 18.1426 30.484 17.9798 30.3201Z" fill="#F0001C"/>
<path d="M15.3163 39.585C15.0695 39.1992 14.787 38.8375 14.4725 38.5046C12.5645 36.5763 10.6407 34.6651 8.7233 32.7469C7.35135 31.376 5.98176 30.0036 4.61452 28.6296C3.1924 27.2027 1.77028 25.7743 0.348157 24.3443C0.346294 24.342 0.344116 24.34 0.341689 24.3384C0.277583 24.2838 0.210658 24.2326 0.141189 24.185C0.12916 24.1767 0.115291 24.1714 0.10077 24.1696C0.0862497 24.1678 0.0715097 24.1696 0.0578121 24.1747C0.0441145 24.1799 0.0318675 24.1882 0.0221194 24.1991C0.0123713 24.21 0.0054126 24.2231 0.00183893 24.2373C0.000689106 24.2453 0.000689106 24.2534 0.00183893 24.2614C0.0100706 26.1374 0.025946 28.0133 0.0277099 29.8892C0.0277099 31.9814 0.777968 33.7639 2.24321 35.2444C3.64435 36.6615 5.06549 38.0674 6.47899 39.4816C8.13552 41.1349 9.79106 42.7885 11.4456 44.4426C12.7174 45.7187 13.9804 47.003 15.2492 48.2814C15.2887 48.3205 15.3306 48.3572 15.3745 48.3913C15.3992 48.4113 15.4292 48.4239 15.4608 48.4276C15.4924 48.4313 15.5245 48.4259 15.5532 48.4121C15.5819 48.3984 15.6061 48.3767 15.623 48.3497C15.6398 48.3227 15.6487 48.2915 15.6485 48.2597C15.6379 45.7921 15.6232 43.3245 15.6173 40.857C15.6161 40.4016 15.5673 39.961 15.3163 39.585Z" fill="#F28500"/>
<path d="M8.70726 18.4304C12.2253 21.9468 15.7418 25.4649 19.2567 28.9845C19.4919 29.2195 19.5431 29.2195 19.7753 28.9786C20.3751 28.3617 20.9707 27.7396 21.5798 27.1315C22.3066 26.4065 23.0408 25.6881 23.7824 24.9765C23.9705 24.7955 23.9958 24.6569 23.7912 24.4706C23.5166 24.2203 23.262 23.9471 23.001 23.6851C21.3717 22.063 19.7671 20.4138 18.1043 18.8287C16.9948 17.7712 15.6507 17.1008 14.1019 16.9721C12.9131 16.8734 11.7165 16.921 10.5235 16.8711C9.55394 16.8711 8.58319 16.8711 7.61421 16.8764C7.60481 16.8758 7.59538 16.8758 7.58599 16.8764C7.55045 16.8827 7.51713 16.8981 7.48923 16.921C7.46133 16.9439 7.43977 16.9736 7.42662 17.0072C7.41346 17.0407 7.40915 17.0772 7.4141 17.1129C7.41905 17.1486 7.43308 17.1825 7.45487 17.2113C7.46352 17.223 7.47316 17.234 7.48368 17.2442C7.88585 17.6466 8.30567 18.0291 8.70726 18.4304Z" fill="#F28500"/>
<path d="M14.3319 15.0564C16.3133 15.3003 18.0332 16.0881 19.4473 17.5128C19.5649 17.6304 19.6789 17.7449 19.8 17.8654C19.8367 17.9015 19.8831 17.926 19.9336 17.9358C19.9841 17.9456 20.0364 17.9403 20.0839 17.9206C20.1314 17.9008 20.172 17.8674 20.2006 17.8247C20.2291 17.7819 20.2445 17.7317 20.2446 17.6803V5.2837C20.2457 5.24871 20.2364 5.21416 20.2179 5.18446C20.1993 5.15476 20.1723 5.13126 20.1403 5.11695C20.1084 5.10264 20.0728 5.09818 20.0383 5.10412C20.0038 5.11007 19.9718 5.12616 19.9465 5.15034C19.4967 5.58627 19.0474 6.02221 18.6076 6.46813C17.6598 7.42755 16.6902 8.36757 15.7806 9.36224C14.443 10.824 13.8727 12.5936 13.875 14.5559C13.8756 14.9983 13.8879 15.0018 14.3319 15.0564Z" fill="#F0001C"/>
<path d="M22.0805 8.35769C22.0888 9.45282 22.0929 10.5568 22.0941 11.6525C22.0941 12.9397 22.067 14.2041 22.0805 15.4919C22.0882 16.2157 22.0976 16.9548 22.0805 17.678C22.0664 17.9975 22.0717 18.3175 22.0964 18.6363C22.1088 18.7655 22.114 18.8948 22.1176 19.0246C22.1358 19.7103 22.4856 20.3172 22.9631 20.823C23.6616 21.5639 24.3742 22.2889 25.0963 23.0086C25.1814 23.0913 25.2793 23.16 25.3861 23.2118C25.4087 23.2235 25.434 23.2288 25.4594 23.2272C25.4847 23.2257 25.5092 23.2173 25.5302 23.203C25.5368 23.1986 25.542 23.1925 25.5455 23.1854L25.5949 23.1361L25.726 23.0103C25.7801 22.9575 25.7524 22.9516 25.8018 22.8958C25.9588 22.7119 26.7949 21.9334 26.9219 21.8065C28.4254 20.2337 27.0983 21.5498 27.614 21.0527C27.6254 21.042 27.6362 21.0306 27.6463 21.0187C27.6651 20.9957 27.8174 20.7449 27.8321 20.7184C27.9468 20.5116 27.9133 20.5204 28.0526 20.3313C28.3325 19.9523 28.5189 19.658 28.5189 19.215C28.523 14.4167 28.3848 9.48102 28.3848 4.68277C28.3848 4.33026 28.4177 3.97775 28.3648 3.63406C28.2649 2.98309 27.9003 2.45903 27.4464 1.99783C26.8284 1.37153 26.2005 0.754054 25.5766 0.131875C25.3955 -0.0490798 25.2415 -0.0443797 25.0551 0.149501C24.4136 0.809869 23.6357 1.43557 22.9972 2.0977C22.695 2.41026 22.3257 2.80272 22.2093 3.23455C22.0176 3.94544 22.0605 4.66574 22.0676 5.39132C22.0764 6.38069 22.0735 7.3689 22.0805 8.35769Z" fill="#F28500"/>
<path d="M36.8245 14.336C36.7945 12.3743 36.196 10.6141 34.8342 9.17412C33.9087 8.19473 32.9239 7.27057 31.9608 6.32643C31.5139 5.88756 31.0576 5.45926 30.6008 5.03037C30.5749 5.00723 30.5428 4.99221 30.5085 4.9872C30.4742 4.98219 30.4391 4.98741 30.4077 5.00221C30.3764 5.01702 30.35 5.04074 30.3321 5.07041C30.3141 5.10008 30.3053 5.13438 30.3068 5.16903L30.5091 17.5656C30.5103 17.6169 30.5266 17.6666 30.556 17.7087C30.5854 17.7507 30.6266 17.7832 30.6743 17.802C30.722 17.8208 30.7743 17.8251 30.8245 17.8144C30.8747 17.8037 30.9206 17.7785 30.9565 17.7419C31.077 17.6185 31.1917 17.5016 31.3052 17.3835C32.6905 15.9335 34.3956 15.118 36.3753 14.8419C36.818 14.7802 36.8304 14.7761 36.8245 14.336Z" fill="#F0001C"/>
</g>
<defs>
<clipPath id="clip0_6523_429">
<rect width="50.5882" height="50" fill="white"/>
</clipPath>
</defs>
</svg>
