<svg width="177" height="23" viewBox="0 0 177 23" fill="none" xmlns="http://www.w3.org/2000/svg">
<path d="M5.2628 22.4494L8.10911 4.34687H0.821289L1.47813 0.331055H20.9019L20.2763 4.34687H12.9885L10.1109 22.4494H5.2628Z" fill="#232323"/>
<path d="M19.3641 22.4494L22.8673 0.331055H27.5903L26.2141 9.17841C27.3401 7.54698 29.0187 6.73127 31.2499 6.73127C32.918 6.73127 34.19 7.25416 35.0658 8.29995C35.9624 9.34573 36.2335 11.0085 35.879 13.2883L34.4402 22.4494H29.7172L31.1247 13.3825C31.4584 11.3955 30.8224 10.402 29.2168 10.402C28.1533 10.402 27.2984 10.7471 26.652 11.4373C26.0055 12.1066 25.5885 13.0374 25.4008 14.2296L24.0871 22.4494H19.3641Z" fill="#232323"/>
<path d="M46.3174 22.7945C44.7118 22.7945 43.3147 22.5017 42.1261 21.9161C40.9375 21.3095 40.0201 20.4834 39.3736 19.4376C38.7272 18.3709 38.404 17.1264 38.404 15.7041C38.404 13.9472 38.7689 12.3994 39.4988 11.0608C40.2494 9.7013 41.2712 8.64506 42.564 7.89209C43.8777 7.11821 45.3686 6.73127 47.0368 6.73127C48.7467 6.73127 50.1125 7.10775 51.1342 7.86072C52.156 8.59277 52.865 9.58627 53.2612 10.8412C53.6574 12.0752 53.7616 13.4452 53.5739 14.9511L53.4488 15.7669H42.783C42.8038 16.8754 43.1583 17.7329 43.8464 18.3395C44.5345 18.9461 45.5146 19.2493 46.7866 19.2493C47.6624 19.2493 48.5069 19.1238 49.3201 18.8728C50.1542 18.6219 50.8944 18.2558 51.5409 17.7748L52.573 20.8808C51.8224 21.4664 50.8944 21.937 49.7893 22.2926C48.6841 22.6272 47.5268 22.7945 46.3174 22.7945ZM47.0055 9.86863C45.8795 9.86863 45.0037 10.2137 44.3782 10.904C43.7526 11.5733 43.3355 12.3785 43.127 13.3197H49.9457C50.0082 12.3367 49.7997 11.521 49.3201 10.8726C48.8614 10.2033 48.0898 9.86863 47.0055 9.86863Z" fill="#232323"/>
<path d="M64.2445 22.4494L67.7476 0.331055H72.5957L71.1882 9.20978H81.4162L82.855 0.331055H87.7031L84.2 22.4494H79.3518L80.7906 13.257H70.5314L69.0926 22.4494H64.2445Z" fill="#232323"/>
<path d="M96.5947 22.7945C94.9891 22.7945 93.592 22.5017 92.4034 21.9161C91.2148 21.3095 90.2973 20.4834 89.6509 19.4376C89.0045 18.3709 88.6813 17.1264 88.6813 15.7041C88.6813 13.9472 89.0462 12.3994 89.776 11.0608C90.5267 9.7013 91.5485 8.64506 92.8413 7.89209C94.155 7.11821 95.6459 6.73127 97.3141 6.73127C99.024 6.73127 100.39 7.10775 101.412 7.86072C102.433 8.59277 103.142 9.58627 103.538 10.8412C103.935 12.0752 104.039 13.4452 103.851 14.9511L103.726 15.7669H93.0602C93.0811 16.8754 93.4356 17.7329 94.1237 18.3395C94.8118 18.9461 95.7919 19.2493 97.0639 19.2493C97.9396 19.2493 98.7842 19.1238 99.5974 18.8728C100.431 18.6219 101.172 18.2558 101.818 17.7748L102.85 20.8808C102.1 21.4664 101.172 21.937 100.067 22.2926C98.9614 22.6272 97.8041 22.7945 96.5947 22.7945ZM97.2828 9.86863C96.1568 9.86863 95.281 10.2137 94.6554 10.904C94.0299 11.5733 93.6128 12.3785 93.4043 13.3197H100.223C100.286 12.3367 100.077 11.521 99.5974 10.8726C99.1386 10.2033 98.3671 9.86863 97.2828 9.86863Z" fill="#232323"/>
<path d="M110.727 22.7945C109.768 22.7945 108.892 22.5749 108.1 22.1357C107.307 21.6756 106.682 21.0795 106.223 20.3474C105.764 19.6154 105.535 18.8206 105.535 17.963C105.535 16.3316 106.223 15.1498 107.599 14.4178C108.996 13.6648 111.175 13.2883 114.136 13.2883H116.263L116.326 12.8805C116.472 12.0229 116.315 11.3641 115.857 10.904C115.419 10.4438 114.668 10.2137 113.605 10.2137C111.77 10.2137 109.997 10.7262 108.287 11.751L107.318 8.55094C108.131 8.00713 109.163 7.5679 110.414 7.23325C111.686 6.89859 112.969 6.73127 114.261 6.73127C116.013 6.73127 117.389 7.05546 118.39 7.70385C119.391 8.35224 120.069 9.2307 120.423 10.3392C120.778 11.4268 120.84 12.6504 120.611 14.0099L119.297 22.4494H114.887L115.231 20.1905C114.731 21.0899 114.084 21.7488 113.292 22.1671C112.499 22.5854 111.645 22.7945 110.727 22.7945ZM112.322 19.6258C113.219 19.6258 113.97 19.3539 114.574 18.8101C115.2 18.2454 115.586 17.4924 115.732 16.5512L115.888 15.7355H114.23C112.708 15.7355 111.634 15.8819 111.009 16.1747C110.383 16.4466 110.07 16.9381 110.07 17.6493C110.07 18.2768 110.279 18.7683 110.696 19.1238C111.134 19.4585 111.676 19.6258 112.322 19.6258Z" fill="#232323"/>
<path d="M128.67 22.7945C126.751 22.7945 125.375 22.2717 124.541 21.2259C123.707 20.1592 123.446 18.6219 123.759 16.6139L126.324 0.331055H131.047L128.482 16.5512C128.252 18.1617 128.857 18.967 130.296 18.967C130.504 18.967 130.723 18.9565 130.953 18.9356C131.182 18.9147 131.412 18.8938 131.641 18.8728L131.015 22.4808C130.327 22.69 129.545 22.7945 128.67 22.7945Z" fill="#232323"/>
<path d="M141.435 22.7945C139.829 22.7945 138.432 22.5017 137.244 21.9161C136.055 21.3095 135.138 20.4834 134.491 19.4376C133.845 18.3709 133.522 17.1264 133.522 15.7041C133.522 13.9472 133.886 12.3994 134.616 11.0608C135.367 9.7013 136.389 8.64506 137.682 7.89209C138.995 7.11821 140.486 6.73127 142.154 6.73127C143.864 6.73127 145.23 7.10775 146.252 7.86072C147.274 8.59277 147.983 9.58627 148.379 10.8412C148.775 12.0752 148.879 13.4452 148.691 14.9511L148.566 15.7669H137.9C137.921 16.8754 138.276 17.7329 138.964 18.3395C139.652 18.9461 140.632 19.2493 141.904 19.2493C142.78 19.2493 143.624 19.1238 144.438 18.8728C145.272 18.6219 146.012 18.2558 146.658 17.7748L147.691 20.8808C146.94 21.4664 146.012 21.937 144.907 22.2926C143.802 22.6272 142.644 22.7945 141.435 22.7945ZM142.123 9.86863C140.997 9.86863 140.121 10.2137 139.496 10.904C138.87 11.5733 138.453 12.3785 138.245 13.3197H145.063C145.126 12.3367 144.917 11.521 144.438 10.8726C143.979 10.2033 143.207 9.86863 142.123 9.86863Z" fill="#232323"/>
<path d="M150.25 22.4494L152.69 7.045H157.319L156.881 9.68039C157.361 8.82284 158.017 8.14308 158.852 7.6411C159.686 7.11821 160.676 6.81493 161.823 6.73127L163.262 6.63715L163.105 10.6216L160.103 10.9353C158.852 11.0608 157.944 11.4268 157.381 12.0334C156.839 12.64 156.474 13.5393 156.287 14.7315L155.067 22.4494H150.25Z" fill="#232323"/>
<path d="M169.524 22.7945C168.19 22.7945 166.928 22.6377 165.74 22.3239C164.551 22.0102 163.55 21.5605 162.737 20.9749L164.113 17.9316C164.864 18.4336 165.719 18.831 166.678 19.1238C167.637 19.3957 168.576 19.5317 169.493 19.5317C170.39 19.5317 171.057 19.3748 171.495 19.0611C171.954 18.7474 172.183 18.35 172.183 17.8689C172.183 17.1787 171.693 16.7394 170.713 16.5512L167.867 16.0179C166.636 15.8087 165.688 15.359 165.02 14.6688C164.353 13.9577 164.02 13.0687 164.02 12.002C164.02 11.0608 164.291 10.1928 164.833 9.39802C165.396 8.58231 166.219 7.93392 167.304 7.45286C168.388 6.9718 169.723 6.73127 171.307 6.73127C172.287 6.73127 173.288 6.87768 174.31 7.1705C175.353 7.4424 176.249 7.86072 177 8.42544L175.686 11.4059C174.998 10.9249 174.247 10.5693 173.434 10.3392C172.642 10.0882 171.849 9.96275 171.057 9.96275C170.119 9.96275 169.41 10.1301 168.93 10.4647C168.471 10.7994 168.242 11.2281 168.242 11.751C168.242 12.0439 168.336 12.3053 168.524 12.5354C168.732 12.7445 169.066 12.8909 169.524 12.9746L172.34 13.508C175.05 14.0099 176.406 15.3485 176.406 17.5238C176.406 19.218 175.77 20.5252 174.498 21.4455C173.247 22.3449 171.589 22.7945 169.524 22.7945Z" fill="#232323"/>
</svg>
