<svg width="51" height="50" viewBox="0 0 51 50" fill="none" xmlns="http://www.w3.org/2000/svg">
<g clip-path="url(#clip0_6523_1170)">
<path d="M29.574 33.2462C28.5033 34.3172 27.4261 35.3824 26.3543 36.4528C25.5799 37.226 24.8126 38.0068 24.0376 38.78C23.1239 39.6906 22.2031 40.5936 21.2912 41.506C20.3581 42.439 19.4379 43.3861 18.5007 44.3138C17.7816 45.0264 17.3294 45.8296 17.3764 46.8883C17.4135 47.7108 17.3694 48.5386 17.3623 49.3652C17.3615 49.511 17.3779 49.6563 17.4111 49.7982C17.4172 49.8243 17.429 49.8486 17.4458 49.8693C17.4617 49.8891 17.4816 49.9051 17.5042 49.9165C17.5268 49.9279 17.5516 49.9342 17.5769 49.9351L18.6165 49.9686L19.3809 49.9768H20.6715C20.8273 49.9721 20.9816 49.9446 21.1295 49.8952L21.8662 49.6484L21.8557 49.6519H21.8609L22.1008 49.5344L22.5242 49.2313H22.5448L22.553 49.2125C22.6037 49.1872 22.6515 49.1562 22.6953 49.1202L22.7088 49.1091C23.2121 48.6214 23.7166 48.135 24.214 47.6403C25.2747 46.5863 26.3331 45.5288 27.3891 44.4677C27.9888 43.8661 28.5815 43.2568 29.1771 42.6511H29.1948L29.2007 42.6341C29.3282 42.5166 29.4611 42.4067 29.5828 42.2816C30.3127 41.5432 31.041 40.8034 31.7678 40.0619H31.7831V40.0472L31.8454 39.9885L31.8501 39.9844C31.94 39.8904 32.0306 39.797 32.1211 39.703L32.1405 39.693L32.8461 38.9844L33.5388 38.2794L33.6734 38.1619L34.7065 37.1238H34.7241V37.1061L35.0099 36.8124L35.0822 36.7536L35.7196 36.1074L35.7848 36.0486L36.5798 35.259L37.6469 34.1885L37.7287 34.1122L37.998 33.8284H38.0144L38.0197 33.8125L39.4185 32.4025L39.4932 32.339L39.5443 32.2909L39.5508 32.2838L40.5845 31.2462L40.6686 31.1705C40.7597 31.077 40.8502 30.983 40.9408 30.8896L40.9573 30.8791L41.1719 30.6534L41.2095 30.6182C41.3065 30.5377 41.41 30.4637 41.4982 30.375C41.9198 29.9519 42.3337 29.5225 42.7553 29.1006C43.9375 27.9174 45.1211 26.7363 46.3061 25.5573C47.1163 24.7495 47.9359 23.9511 48.7409 23.1379C49.0613 22.8142 49.3536 22.4617 49.6587 22.1227L49.6758 22.1162V22.0986L49.9662 21.7162C50.2995 21.3253 50.4844 20.8296 50.4884 20.3161C50.5154 19.295 50.4931 18.2668 50.5007 17.2387C50.5007 16.9937 50.3996 16.912 50.1656 16.9138C49.0878 16.9226 48.0089 16.8956 46.9317 16.9402C46.5554 16.9561 46.1585 17.0877 45.8192 17.2598C44.9479 17.7028 44.3611 18.4901 43.6737 19.1528C42.8723 19.926 42.102 20.7315 41.3142 21.5193C40.264 22.5692 39.208 23.6138 38.1573 24.6631M45.4341 18.3708C45.4635 18.3356 45.4929 18.298 45.5194 18.2616C45.4906 18.295 45.4606 18.3326 45.4341 18.3679V18.3708ZM44.7768 18.9584C44.7653 18.9736 44.7512 18.9865 44.735 18.9965C44.7503 18.9864 44.7635 18.9735 44.7738 18.9584H44.7768ZM49.7916 21.6844L49.7328 21.648C49.7506 21.6617 49.7693 21.6743 49.7887 21.6856L49.7916 21.6844ZM44.2017 19.1887C44.2217 19.1499 44.2411 19.1105 44.2605 19.0712C44.2411 19.1099 44.2217 19.1493 44.2017 19.1887C44.1317 19.2374 44.0541 19.2791 43.9865 19.3302C44.0512 19.2803 44.1288 19.2386 44.1988 19.1898L44.2017 19.1887ZM29.4435 34.1116C29.5981 33.893 29.7281 33.651 29.9139 33.4606C29.7304 33.651 29.6005 33.893 29.4435 34.1127C29.5393 34.1227 29.6346 34.1321 29.7263 34.1404L29.4441 34.1139C29.3729 34.1333 29.2853 34.1357 29.2271 34.1727C29.2812 34.1374 29.3688 34.1351 29.44 34.1139L29.4435 34.1116ZM27.9736 35.4628C27.9935 35.4041 28.0129 35.3453 28.0323 35.2866C28.0124 35.3453 27.993 35.4041 27.9736 35.4628C27.9289 35.4928 27.8824 35.5216 27.836 35.5475C27.8789 35.5228 27.9253 35.4958 27.9694 35.4658L27.9736 35.4628ZM24.6809 38.7529C24.6133 38.7964 24.5415 38.8358 24.4722 38.8775C24.5374 38.8393 24.6091 38.7999 24.6768 38.7565L24.6809 38.7529ZM17.8604 45.8031C17.8898 45.7444 17.9191 45.6856 17.948 45.6269C17.9186 45.6862 17.8886 45.745 17.8598 45.8037L17.8604 45.8031ZM30.7958 40.8092L30.5248 41.1371L30.7947 40.8134L30.7958 40.8092ZM35.7196 35.9117C35.7288 35.913 35.7378 35.9152 35.7466 35.9182C35.7377 35.9162 35.7287 35.9149 35.7196 35.9141V35.9117ZM36.2617 35.4053C36.2452 35.4088 36.2287 35.4117 36.2117 35.4141C36.1946 35.4164 36.1617 35.4229 36.1382 35.4288C36.1617 35.4229 36.187 35.4188 36.2117 35.4141C36.2364 35.4094 36.2446 35.4094 36.2611 35.4059L36.2617 35.4053ZM37.7316 33.7444C37.7634 33.7163 37.7972 33.6905 37.8327 33.6674C37.7975 33.6915 37.7639 33.718 37.7322 33.7467L37.7316 33.7444ZM43.2586 28.4132C43.278 28.3939 43.2974 28.3739 43.3174 28.3545C43.298 28.3756 43.2786 28.3956 43.2586 28.4132ZM45.0813 26.5919C45.1007 26.572 45.1207 26.5526 45.1401 26.5332C45.1213 26.5543 45.1013 26.5737 45.0813 26.5919ZM50.1138 20.8343C50.1491 20.6798 50.3043 20.5652 50.3708 20.423C50.3049 20.567 50.1497 20.6815 50.1144 20.8343H50.1138Z" fill="#006A6A"/>
<path d="M50.5804 24.3062L50.5622 24.1998C50.5601 24.188 50.5557 24.1766 50.5491 24.1665C50.5425 24.1564 50.534 24.1478 50.524 24.1411C50.5064 24.1284 50.4848 24.1224 50.4632 24.1244C50.4416 24.1263 50.4214 24.136 50.4064 24.1516C46.1357 28.437 41.8572 32.7151 37.5708 36.9859C33.3621 41.1908 29.1551 45.3962 24.8976 49.6551C24.8706 49.6819 24.8522 49.716 24.8447 49.7533C24.8371 49.7905 24.8408 49.8291 24.8552 49.8643C24.8696 49.8994 24.8941 49.9295 24.9256 49.9507C24.9571 49.972 24.9942 49.9834 25.0322 49.9835C26.7568 49.9906 28.4813 50.0135 30.2064 49.99C30.8508 49.9801 31.493 49.9118 32.125 49.7861C33.433 49.534 34.6374 48.9019 35.5876 47.969C37.5708 46.036 39.5194 44.0679 41.4785 42.1102C43.7769 39.8142 46.0818 37.5235 48.3655 35.2128C49.7814 33.7799 50.5351 32.0402 50.5716 30.0203C50.6028 28.1268 50.581 26.2332 50.5828 24.3391C50.5829 24.3281 50.5821 24.317 50.5804 24.3062Z" fill="#04A3A3"/>
<path d="M43.0741 16.9248C41.1144 16.9289 39.1547 16.9283 37.1944 16.9413C35.3846 16.953 33.82 17.6022 32.5358 18.863C30.3486 21.0104 28.1848 23.1836 26.0199 25.3521C23.8826 27.4925 21.7206 29.6116 19.6298 31.7972C18.4056 33.0774 17.6971 34.6678 17.6112 36.4438C17.5201 38.3879 17.5707 40.3391 17.5618 42.2873C17.5621 42.3346 17.5648 42.3819 17.5701 42.4289C17.573 42.4587 17.5844 42.4871 17.6028 42.5108C17.6213 42.5345 17.6461 42.5524 17.6744 42.5626C17.7026 42.5727 17.7332 42.5746 17.7625 42.5681C17.7918 42.5616 17.8187 42.547 17.84 42.5258L43.1847 17.1927C43.2067 17.1708 43.2216 17.1429 43.2277 17.1125C43.2338 17.0821 43.2308 17.0505 43.2189 17.0219C43.2071 16.9932 43.187 16.9687 43.1613 16.9514C43.1355 16.9341 43.1052 16.9249 43.0741 16.9248Z" fill="#04A3A3"/>
<path d="M17.9798 30.3201C17.5864 29.9253 17.1983 29.5246 16.8038 29.1304C15.5103 27.8343 14.2167 26.5392 12.9232 25.2451L8.68444 21.0115C7.58688 19.9222 6.48384 18.8386 5.37531 17.7607C4.82849 17.232 4.17877 16.9312 3.39441 16.9382C2.36604 16.9459 1.33649 16.9282 0.308123 16.9141C0.0958637 16.9112 -0.00174046 16.9952 2.34736e-05 17.2079C0.0106071 18.2454 -0.00409236 19.2836 0.037066 20.3217C0.062937 20.9797 0.278136 21.5984 0.748518 22.0843C1.88723 23.257 3.03379 24.4216 4.18818 25.5782C5.96387 27.3602 7.75014 29.1309 9.52701 30.9111C11.463 32.8511 13.3967 34.7934 15.328 36.7381C15.356 36.7659 15.3914 36.7851 15.4301 36.7932C15.4687 36.8014 15.5089 36.7982 15.5458 36.784C15.5826 36.7699 15.6146 36.7453 15.6378 36.7134C15.6611 36.6815 15.6745 36.6436 15.6767 36.6041C15.7943 34.4139 16.4598 32.4422 17.9845 30.8118C18.1415 30.6397 18.1426 30.484 17.9798 30.3201Z" fill="#006A6A"/>
<path d="M15.3163 39.5845C15.0695 39.1987 14.787 38.837 14.4725 38.5041C12.5645 36.5758 10.6407 34.6647 8.7233 32.7464C7.35135 31.3755 5.98176 30.0031 4.61452 28.6291C3.1924 27.2022 1.77028 25.7738 0.348157 24.3438C0.346294 24.3415 0.344116 24.3395 0.341689 24.3379C0.277583 24.2833 0.210658 24.2321 0.141189 24.1845C0.12916 24.1762 0.115291 24.1709 0.10077 24.1691C0.0862497 24.1673 0.0715097 24.1691 0.0578121 24.1742C0.0441145 24.1794 0.0318675 24.1878 0.0221194 24.1987C0.0123713 24.2096 0.0054126 24.2227 0.00183893 24.2368C0.000689106 24.2448 0.000689106 24.2529 0.00183893 24.2609C0.0100706 26.1369 0.025946 28.0128 0.0277099 29.8887C0.0277099 31.9809 0.777968 33.7634 2.24321 35.2439C3.64435 36.661 5.06549 38.067 6.47899 39.4811C8.13552 41.1344 9.79106 42.788 11.4456 44.4421C12.7174 45.7182 13.9804 47.0025 15.2492 48.2809C15.2887 48.32 15.3306 48.3567 15.3745 48.3908C15.3992 48.4108 15.4292 48.4234 15.4608 48.4271C15.4924 48.4308 15.5245 48.4254 15.5532 48.4117C15.5819 48.3979 15.6061 48.3762 15.623 48.3492C15.6398 48.3222 15.6487 48.291 15.6485 48.2592C15.6379 45.7916 15.6232 43.3241 15.6173 40.8565C15.6161 40.4012 15.5673 39.9605 15.3163 39.5845Z" fill="#04A3A3"/>
<path d="M8.70726 18.4299C12.2253 21.9464 15.7418 25.4644 19.2567 28.984C19.4919 29.219 19.5431 29.219 19.7753 28.9781C20.3751 28.3612 20.9707 27.7391 21.5798 27.131C22.3066 26.406 23.0408 25.6877 23.7824 24.976C23.9705 24.795 23.9958 24.6564 23.7912 24.4701C23.5166 24.2198 23.262 23.9466 23.001 23.6846C21.3717 22.0625 19.7671 20.4133 18.1043 18.8282C16.9948 17.7707 15.6507 17.1003 14.1019 16.9717C12.9131 16.873 11.7165 16.9205 10.5235 16.8706C9.55394 16.8706 8.58319 16.8706 7.61421 16.8759C7.60481 16.8753 7.59538 16.8753 7.58599 16.8759C7.55045 16.8823 7.51713 16.8976 7.48923 16.9205C7.46133 16.9434 7.43977 16.9731 7.42662 17.0067C7.41346 17.0403 7.40915 17.0767 7.4141 17.1124C7.41905 17.1481 7.43308 17.182 7.45487 17.2108C7.46352 17.2225 7.47316 17.2335 7.48368 17.2437C7.88585 17.6461 8.30567 18.0286 8.70726 18.4299Z" fill="#04A3A3"/>
<path d="M14.3319 15.056C16.3133 15.2998 18.0332 16.0876 19.4473 17.5124C19.5649 17.6299 19.6789 17.7444 19.8 17.8649C19.8367 17.901 19.8831 17.9255 19.9336 17.9353C19.9841 17.9451 20.0364 17.9398 20.0839 17.9201C20.1314 17.9003 20.172 17.8669 20.2006 17.8242C20.2291 17.7814 20.2445 17.7312 20.2446 17.6798V5.28321C20.2457 5.24822 20.2364 5.21367 20.2179 5.18397C20.1993 5.15427 20.1723 5.13077 20.1403 5.11646C20.1084 5.10215 20.0728 5.09769 20.0383 5.10363C20.0038 5.10958 19.9718 5.12567 19.9465 5.14985C19.4967 5.58579 19.0474 6.02172 18.6076 6.46765C17.6598 7.42706 16.6902 8.36709 15.7806 9.36175C14.443 10.8235 13.8727 12.5931 13.875 14.5554C13.8756 14.9978 13.8879 15.0013 14.3319 15.056Z" fill="#006A6A"/>
<path d="M22.0805 8.35769C22.0888 9.45282 22.0929 10.5568 22.0941 11.6525C22.0941 12.9397 22.067 14.2041 22.0805 15.4919C22.0882 16.2157 22.0976 16.9548 22.0805 17.678C22.0664 17.9975 22.0717 18.3175 22.0964 18.6363C22.1088 18.7655 22.114 18.8948 22.1176 19.0246C22.1358 19.7103 22.4856 20.3172 22.9631 20.823C23.6616 21.5639 24.3742 22.2889 25.0963 23.0086C25.1814 23.0913 25.2793 23.16 25.3861 23.2118C25.4087 23.2235 25.434 23.2288 25.4594 23.2272C25.4847 23.2257 25.5092 23.2173 25.5302 23.203C25.5368 23.1986 25.542 23.1925 25.5455 23.1854L25.5949 23.1361L25.726 23.0103C25.7801 22.9575 25.7524 22.9516 25.8018 22.8958C25.9588 22.7119 26.7949 21.9334 26.9219 21.8065C28.4254 20.2337 27.0983 21.5498 27.614 21.0527C27.6254 21.042 27.6362 21.0306 27.6463 21.0187C27.6651 20.9957 27.8174 20.7449 27.8321 20.7184C27.9468 20.5116 27.9133 20.5204 28.0526 20.3313C28.3325 19.9523 28.5189 19.658 28.5189 19.215C28.523 14.4167 28.3848 9.48102 28.3848 4.68277C28.3848 4.33026 28.4177 3.97775 28.3648 3.63406C28.2649 2.98309 27.9003 2.45903 27.4464 1.99783C26.8284 1.37153 26.2005 0.754054 25.5766 0.131875C25.3955 -0.0490798 25.2415 -0.0443797 25.0551 0.149501C24.4136 0.809869 23.6357 1.43557 22.9972 2.0977C22.695 2.41026 22.3257 2.80272 22.2093 3.23455C22.0176 3.94544 22.0605 4.66574 22.0676 5.39132C22.0764 6.38069 22.0735 7.3689 22.0805 8.35769Z" fill="#04A3A3"/>
<path d="M36.8245 14.3356C36.7945 12.3738 36.196 10.6136 34.8342 9.17364C33.9087 8.19425 32.9239 7.27008 31.9608 6.32595C31.5139 5.88707 31.0576 5.45877 30.6008 5.02989C30.5749 5.00674 30.5428 4.99172 30.5085 4.98671C30.4742 4.9817 30.4391 4.98693 30.4077 5.00173C30.3764 5.01653 30.35 5.04025 30.3321 5.06992C30.3141 5.09959 30.3053 5.1339 30.3068 5.16854L30.5091 17.5651C30.5103 17.6164 30.5266 17.6662 30.556 17.7082C30.5854 17.7502 30.6266 17.7827 30.6743 17.8015C30.722 17.8203 30.7743 17.8246 30.8245 17.8139C30.8747 17.8032 30.9206 17.778 30.9565 17.7414C31.077 17.618 31.1917 17.5011 31.3052 17.383C32.6905 15.933 34.3956 15.1175 36.3753 14.8414C36.818 14.7797 36.8304 14.7756 36.8245 14.3356Z" fill="#006A6A"/>
</g>
<defs>
<clipPath id="clip0_6523_1170">
<rect width="50.5882" height="50" fill="white"/>
</clipPath>
</defs>
</svg>
