<svg width="61" height="60" viewBox="0 0 61 60" fill="none" xmlns="http://www.w3.org/2000/svg">
<g clip-path="url(#clip0_6823_42846)">
<path d="M35.4659 39.895C34.1819 41.1802 32.8901 42.4584 31.6047 43.743C30.676 44.6708 29.7559 45.6078 28.8265 46.5356C27.7308 47.6283 26.6265 48.712 25.5329 49.8069C24.4139 50.9264 23.3104 52.0629 22.1864 53.1761C21.3241 54.0313 20.7818 54.9951 20.8382 56.2655C20.8827 57.2526 20.8298 58.2459 20.8213 59.2379C20.8203 59.4128 20.8399 59.5872 20.8799 59.7575C20.8871 59.7887 20.9013 59.8179 20.9215 59.8428C20.9405 59.8665 20.9643 59.8858 20.9915 59.8994C21.0186 59.913 21.0484 59.9207 21.0787 59.9218L22.3253 59.962L23.242 59.9718H24.7897C24.9766 59.9662 25.1617 59.9331 25.339 59.8738L26.2225 59.5777L26.2098 59.5819H26.2162L26.5039 59.4409L27.0115 59.0772H27.0362L27.0461 59.0546C27.1069 59.0242 27.1642 58.9871 27.2167 58.9439L27.2329 58.9305C27.8365 58.3453 28.4415 57.7616 29.038 57.168C30.3101 55.9032 31.5793 54.6341 32.8457 53.3609C33.5649 52.6389 34.2756 51.9078 34.9899 51.1809H35.0111L35.0181 51.1605C35.1711 51.0195 35.3305 50.8876 35.4765 50.7375C36.3517 49.8515 37.2251 48.9637 38.0967 48.0739H38.115V48.0563L38.1897 47.9858L38.1954 47.9809C38.3033 47.8681 38.4119 47.756 38.5204 47.6432L38.5437 47.6312L39.3899 46.7809L40.2205 45.9349L40.3819 45.7939L41.6208 44.5481H41.642V44.527L41.9847 44.1745L42.0714 44.104L42.8358 43.3284L42.914 43.2579L43.8673 42.3104L45.1471 41.0258L45.2451 40.9342L45.5681 40.5937H45.5878L45.5942 40.5746L47.2716 38.8826L47.3612 38.8064L47.4225 38.7486L47.4303 38.7402L48.6699 37.4951L48.7707 37.4042C48.88 37.2921 48.9886 37.1793 49.0972 37.0672L49.1169 37.0545L49.3743 36.7837L49.4194 36.7414C49.5358 36.6449 49.6599 36.556 49.7656 36.4496C50.2712 35.9419 50.7676 35.4266 51.2732 34.9204C52.6909 33.5005 54.1103 32.0831 55.5314 30.6684C56.503 29.699 57.4859 28.7409 58.4513 27.7651C58.8355 27.3767 59.186 26.9537 59.5519 26.5469L59.5724 26.5391V26.518L59.9207 26.059C60.3204 25.5899 60.5421 24.9951 60.5469 24.3789C60.5793 23.1536 60.5525 21.9198 60.5617 20.686C60.5617 20.392 60.4404 20.294 60.1598 20.2962C58.8673 20.3067 57.5734 20.2743 56.2816 20.3279C55.8303 20.3469 55.3544 20.5048 54.9475 20.7114C53.9025 21.243 53.1988 22.1877 52.3746 22.983C51.4135 23.9108 50.4898 24.8774 49.5449 25.8228C48.2856 27.0827 47.0192 28.3362 45.7592 29.5954M54.4857 22.0446C54.5209 22.0023 54.5562 21.9572 54.5879 21.9135C54.5534 21.9537 54.5174 21.9988 54.4857 22.0411V22.0446ZM53.6974 22.7496C53.6837 22.7679 53.6667 22.7834 53.6473 22.7955C53.6656 22.7833 53.6814 22.7678 53.6938 22.7496H53.6974ZM59.7113 26.0209L59.6408 25.9772C59.6621 25.9937 59.6845 26.0087 59.7078 26.0223L59.7113 26.0209ZM53.0078 23.026C53.0317 22.9795 53.055 22.9322 53.0783 22.885C53.055 22.9315 53.0317 22.9788 53.0078 23.026C52.9239 23.0845 52.8308 23.1346 52.7497 23.1959C52.8272 23.136 52.9203 23.0859 53.0042 23.0274L53.0078 23.026ZM35.3093 40.9335C35.4948 40.6712 35.6506 40.3808 35.8734 40.1523C35.6534 40.3808 35.4976 40.6712 35.3093 40.9349C35.4243 40.9469 35.5385 40.9582 35.6485 40.968L35.3101 40.9363C35.2247 40.9596 35.1197 40.9624 35.0499 41.0068C35.1147 40.9645 35.2198 40.9617 35.3051 40.9363L35.3093 40.9335ZM33.5466 42.555C33.5705 42.4845 33.5938 42.414 33.6171 42.3435C33.5931 42.414 33.5698 42.4845 33.5466 42.555C33.493 42.591 33.4373 42.6255 33.3816 42.6566C33.433 42.6269 33.4887 42.5945 33.5416 42.5586L33.5466 42.555ZM29.5979 46.5031C29.5168 46.5553 29.4308 46.6025 29.3476 46.6526C29.4259 46.6068 29.5119 46.5595 29.593 46.5074L29.5979 46.5031ZM21.4186 54.9634C21.4538 54.8929 21.4891 54.8224 21.5236 54.7519C21.4884 54.8231 21.4524 54.8936 21.4179 54.9641L21.4186 54.9634ZM36.9311 48.9707L36.6061 49.3641L36.9297 48.9756L36.9311 48.9707ZM42.8358 43.0937C42.8468 43.0952 42.8576 43.0978 42.8682 43.1014C42.8575 43.0991 42.8467 43.0974 42.8358 43.0965V43.0937ZM43.4859 42.4859C43.4661 42.4902 43.4464 42.4937 43.4259 42.4965C43.4055 42.4993 43.366 42.5071 43.3378 42.5141C43.366 42.5071 43.3963 42.5022 43.4259 42.4965C43.4556 42.4909 43.4654 42.4909 43.4852 42.4866L43.4859 42.4859ZM45.2487 40.4928C45.2868 40.4591 45.3273 40.4283 45.3699 40.4005C45.3276 40.4294 45.2873 40.4612 45.2494 40.4957L45.2487 40.4928ZM51.8768 34.0955C51.9 34.0722 51.9233 34.0483 51.9473 34.025C51.924 34.0504 51.9007 34.0744 51.8768 34.0955ZM54.0626 31.9099C54.0859 31.886 54.1099 31.8627 54.1331 31.8394C54.1106 31.8648 54.0866 31.8881 54.0626 31.9099ZM60.0977 25.0008C60.14 24.8153 60.3262 24.6779 60.4058 24.5072C60.3269 24.68 60.1407 24.8175 60.0984 25.0008H60.0977Z" fill="#006A6A"/>
<path d="M60.6566 29.1668L60.6348 29.0392C60.6323 29.025 60.6269 29.0114 60.619 28.9993C60.6112 28.9872 60.6009 28.9768 60.5889 28.9687C60.5678 28.9535 60.542 28.9463 60.516 28.9487C60.4901 28.951 60.4659 28.9626 60.4479 28.9814C55.3264 34.1238 50.1955 39.2575 45.0552 44.3825C40.008 49.4284 34.9629 54.4749 29.8571 59.5856C29.8248 59.6177 29.8027 59.6587 29.7937 59.7033C29.7846 59.748 29.789 59.7944 29.8063 59.8365C29.8236 59.8787 29.8529 59.9148 29.8907 59.9403C29.9285 59.9658 29.973 59.9795 30.0186 59.9797C32.0867 59.9881 34.1548 60.0156 36.2236 59.9874C36.9964 59.9755 37.7665 59.8936 38.5244 59.7428C40.093 59.4402 41.5374 58.6816 42.6769 57.5622C45.0552 55.2427 47.392 52.8808 49.7414 50.5317C52.4977 47.7765 55.2618 45.0276 58.0004 42.2548C59.6984 40.5352 60.6023 38.4477 60.646 36.0238C60.6834 33.7515 60.6573 31.4793 60.6594 29.2063C60.6596 29.1931 60.6586 29.1799 60.6566 29.1668Z" fill="#04A3A3"/>
<path d="M51.6551 20.3096C49.305 20.3145 46.9548 20.3138 44.604 20.3293C42.4336 20.3434 40.5573 21.1225 39.0173 22.6354C36.3943 25.2123 33.7995 27.8201 31.2032 30.4224C28.6401 32.9908 26.0474 35.5338 23.54 38.1564C22.072 39.6927 21.2223 41.6011 21.1194 43.7324C21.0101 46.0653 21.0707 48.4067 21.0601 50.7445C21.0604 50.8013 21.0637 50.858 21.07 50.9145C21.0735 50.9503 21.0872 50.9844 21.1093 51.0128C21.1314 51.0412 21.1612 51.0627 21.1951 51.0749C21.229 51.0871 21.2656 51.0894 21.3007 51.0816C21.3359 51.0738 21.3681 51.0562 21.3937 51.0308L51.7877 20.6311C51.814 20.6048 51.832 20.5713 51.8393 20.5348C51.8466 20.4983 51.8429 20.4605 51.8288 20.4261C51.8146 20.3917 51.7905 20.3622 51.7596 20.3415C51.7287 20.3208 51.6923 20.3097 51.6551 20.3096Z" fill="#04A3A3"/>
<path d="M21.5618 36.3846C21.09 35.9108 20.6247 35.43 20.1515 34.9569C18.6003 33.4016 17.049 31.8475 15.4978 30.2946L10.4146 25.2143C9.09837 23.9071 7.77558 22.6069 6.4462 21.3134C5.79044 20.6789 5.01129 20.3179 4.07066 20.3264C2.83742 20.3355 1.60276 20.3144 0.369509 20.2975C0.114962 20.2939 -0.0020872 20.3947 2.81501e-05 20.65C0.0127202 21.895 -0.00490766 23.1408 0.0444505 24.3866C0.0754756 25.1762 0.333548 25.9186 0.897641 26.5016C2.26322 27.9088 3.63819 29.3064 5.02257 30.6944C7.15202 32.8327 9.29416 34.9576 11.425 37.0938C13.7467 39.4218 16.0656 41.7526 18.3817 44.0862C18.4153 44.1196 18.4578 44.1426 18.5041 44.1524C18.5505 44.1622 18.5987 44.1583 18.6429 44.1413C18.6871 44.1243 18.7254 44.0949 18.7533 44.0566C18.7811 44.0183 18.7973 43.9728 18.7998 43.9255C18.9409 41.2972 19.739 38.9311 21.5674 36.9747C21.7557 36.7681 21.7571 36.5813 21.5618 36.3846Z" fill="#006A6A"/>
<path d="M18.3675 47.5017C18.0716 47.0388 17.7328 46.6047 17.3556 46.2052C15.0675 43.8913 12.7604 41.5979 10.461 39.296C8.81572 37.6509 7.17328 36.004 5.53365 34.3552C3.82821 32.643 2.12276 30.9288 0.417324 29.2128C0.41509 29.2101 0.412478 29.2077 0.409568 29.2058C0.332689 29.1403 0.252431 29.0788 0.169123 29.0218C0.154697 29.0118 0.138065 29.0054 0.120652 29.0033C0.103238 29.0011 0.0855616 29.0032 0.0691351 29.0094C0.0527087 29.0155 0.0380217 29.0256 0.0263316 29.0387C0.0146415 29.0518 0.00629637 29.0675 0.00201074 29.0845C0.000631838 29.0941 0.000631838 29.1038 0.00201074 29.1134C0.0118824 31.3645 0.0309205 33.6157 0.0330358 35.8668C0.0330358 38.3774 0.932764 40.5164 2.68991 42.293C4.3702 43.9935 6.07447 45.6806 7.76957 47.3776C9.75611 49.3616 11.7415 51.3459 13.7257 53.3308C15.2508 54.8621 16.7654 56.4033 18.2871 57.9374C18.3344 57.9843 18.3846 58.0284 18.4373 58.0692C18.4669 58.0933 18.5028 58.1084 18.5408 58.1128C18.5787 58.1173 18.6171 58.1108 18.6516 58.0943C18.686 58.0777 18.715 58.0518 18.7352 58.0194C18.7555 57.987 18.7661 57.9495 18.7659 57.9113C18.7532 54.9502 18.7355 51.9892 18.7285 49.0281C18.7271 48.4817 18.6685 47.9529 18.3675 47.5017Z" fill="#04A3A3"/>
<path d="M10.4418 22.1162C14.6608 26.336 18.8779 30.5577 23.093 34.7812C23.3751 35.0632 23.4364 35.0632 23.7149 34.7742C24.4342 34.0339 25.1484 33.2873 25.8789 32.5576C26.7505 31.6876 27.6309 30.8256 28.5203 29.9716C28.746 29.7544 28.7763 29.588 28.5309 29.3645C28.2016 29.0642 27.8963 28.7364 27.5832 28.4219C25.6293 26.4754 23.7051 24.4964 21.711 22.5942C20.3805 21.3252 18.7686 20.5208 16.9113 20.3664C15.4855 20.2479 14.0506 20.305 12.6199 20.2451C11.4572 20.2451 10.2931 20.2451 9.13103 20.2515C9.11976 20.2508 9.10846 20.2508 9.09719 20.2515C9.05457 20.2591 9.01462 20.2775 8.98116 20.305C8.9477 20.3325 8.92185 20.3681 8.90607 20.4084C8.8903 20.4487 8.88513 20.4924 8.89106 20.5353C8.89699 20.5782 8.91382 20.6188 8.93995 20.6533C8.95032 20.6674 8.96188 20.6807 8.9745 20.6928C9.4568 21.1757 9.96025 21.6347 10.4418 22.1162Z" fill="#04A3A3"/>
<path d="M17.1866 18.067C19.5628 18.3595 21.6253 19.305 23.3211 21.0146C23.4621 21.1556 23.5989 21.2931 23.7441 21.4376C23.788 21.481 23.8438 21.5104 23.9043 21.5222C23.9649 21.534 24.0276 21.5276 24.0845 21.5039C24.1415 21.4802 24.1902 21.4401 24.2244 21.3888C24.2587 21.3375 24.2771 21.2773 24.2772 21.2156V6.33966C24.2786 6.29767 24.2675 6.25621 24.2452 6.22057C24.2229 6.18493 24.1906 6.15673 24.1522 6.13956C24.1139 6.12239 24.0713 6.11703 24.0299 6.12417C23.9884 6.1313 23.9501 6.15061 23.9197 6.17962C23.3803 6.70275 22.8416 7.22587 22.3142 7.76098C21.1775 8.91228 20.0148 10.0403 18.924 11.2339C17.3198 12.988 16.6359 15.1115 16.6387 17.4663C16.6394 17.9972 16.6542 18.0014 17.1866 18.067Z" fill="#006A6A"/>
<path d="M26.4785 10.0292C26.4883 11.3434 26.4933 12.6681 26.4947 13.983C26.4947 15.5277 26.4622 17.0449 26.4785 18.5903C26.4876 19.4589 26.4989 20.3458 26.4785 21.2136C26.4616 21.597 26.4679 21.981 26.4975 22.3635C26.5123 22.5186 26.5187 22.6737 26.5229 22.8296C26.5447 23.6523 26.9643 24.3806 27.5368 24.9876C28.3745 25.8766 29.2291 26.7466 30.095 27.6103C30.1971 27.7096 30.3145 27.792 30.4426 27.8542C30.4697 27.8682 30.5 27.8745 30.5305 27.8727C30.5609 27.8708 30.5902 27.8608 30.6154 27.8436C30.6233 27.8383 30.6296 27.831 30.6337 27.8225L30.6929 27.7633L30.8502 27.6124C30.9151 27.5489 30.8819 27.5419 30.9411 27.4749C31.1294 27.2543 32.1321 26.3201 32.2844 26.1678C34.0874 24.2805 32.4959 25.8597 33.1143 25.2633C33.1279 25.2503 33.1409 25.2367 33.1531 25.2224C33.1757 25.1949 33.3583 24.8938 33.3759 24.8621C33.5134 24.614 33.4732 24.6245 33.6403 24.3975C33.976 23.9428 34.1995 23.5896 34.1995 23.058C34.2044 17.3001 34.0387 11.3772 34.0387 5.61933C34.0387 5.19632 34.0782 4.77331 34.0147 4.36087C33.8949 3.57971 33.4577 2.95083 32.9133 2.39739C32.1723 1.64584 31.4192 0.904865 30.6711 0.15825C30.4539 -0.0588957 30.2692 -0.0532556 30.0456 0.179401C29.2764 0.971842 28.3435 1.72269 27.5777 2.51724C27.2153 2.89231 26.7725 3.36327 26.6329 3.88146C26.403 4.73453 26.4545 5.59888 26.4629 6.46958C26.4735 7.65683 26.47 8.84268 26.4785 10.0292Z" fill="#04A3A3"/>
<path d="M44.1611 17.2028C44.1252 14.8487 43.4074 12.7365 41.7743 11.0085C40.6645 9.83319 39.4834 8.7242 38.3284 7.59123C37.7925 7.06458 37.2453 6.55062 36.6975 6.03596C36.6665 6.00818 36.628 5.99016 36.5868 5.98415C36.5456 5.97814 36.5036 5.98441 36.466 6.00217C36.4283 6.01993 36.3968 6.04839 36.3752 6.084C36.3537 6.11961 36.3432 6.16077 36.3449 6.20234L36.5875 21.0782C36.589 21.1398 36.6086 21.1995 36.6438 21.2499C36.679 21.3004 36.7284 21.3393 36.7856 21.3619C36.8429 21.3845 36.9055 21.3897 36.9657 21.3768C37.0259 21.364 37.081 21.3337 37.1241 21.2898C37.2686 21.1417 37.4061 21.0014 37.5422 20.8597C39.2035 19.1197 41.2483 18.1411 43.6224 17.8098C44.1534 17.7358 44.1682 17.7308 44.1611 17.2028Z" fill="#006A6A"/>
</g>
<defs>
<clipPath id="clip0_6823_42846">
<rect width="60.6666" height="60" fill="white"/>
</clipPath>
</defs>
</svg>
