<svg width="189" height="25" viewBox="0 0 189 25" fill="none" xmlns="http://www.w3.org/2000/svg">
<path d="M5.5734 23.6484L8.61063 4.39031H0.833984L1.53488 0.118164H22.2615L21.594 4.39031H13.8173L10.7467 23.6484H5.5734Z" fill="#232323"/>
<path d="M20.6206 23.6484L24.3587 0.118164H29.3985L27.93 9.53024C29.1315 7.79468 30.9227 6.9269 33.3035 6.9269C35.0836 6.9269 36.4409 7.48317 37.3754 8.59571C38.3322 9.70825 38.6214 11.4772 38.2432 13.9025L36.7079 23.6484H31.6681L33.17 14.0026C33.526 11.8888 32.8474 10.8319 31.1341 10.8319C29.9993 10.8319 29.087 11.1991 28.3972 11.9333C27.7074 12.6454 27.2624 13.6355 27.0622 14.9038L25.6604 23.6484H20.6206Z" fill="#232323"/>
<path d="M49.3817 24.0155C47.6684 24.0155 46.1776 23.704 44.9093 23.081C43.641 22.4357 42.662 21.5568 41.9722 20.4442C41.2824 19.3095 40.9375 17.9855 40.9375 16.4725C40.9375 14.6034 41.3269 12.9569 42.1057 11.5328C42.9067 10.0865 43.997 8.96285 45.3766 8.16182C46.7784 7.33854 48.3693 6.9269 50.1493 6.9269C51.9739 6.9269 53.4313 7.32741 54.5216 8.12844C55.6119 8.90722 56.3684 9.96413 56.7912 11.2992C57.214 12.612 57.3252 14.0694 57.125 15.6715L56.9915 16.5392H45.6102C45.6324 17.7185 46.0107 18.6308 46.745 19.2761C47.4793 19.9214 48.525 20.244 49.8823 20.244C50.8169 20.244 51.718 20.1105 52.5858 19.8435C53.4758 19.5765 54.2657 19.1871 54.9555 18.6753L56.0569 21.9796C55.2559 22.6026 54.2657 23.1032 53.0865 23.4815C51.9072 23.8375 50.6722 24.0155 49.3817 24.0155ZM50.116 10.2645C48.9144 10.2645 47.9799 10.6317 47.3124 11.3659C46.6449 12.078 46.1998 12.9346 45.9773 13.9359H53.2533C53.3201 12.8901 53.0976 12.0223 52.5858 11.3326C52.0963 10.6205 51.273 10.2645 50.116 10.2645Z" fill="#232323"/>
<path d="M68.5112 23.6484L72.2493 0.118164H77.4226L75.9207 9.56362H86.8347L88.37 0.118164H93.5433L89.8052 23.6484H84.6319L86.1672 13.8691H75.2198L73.6845 23.6484H68.5112Z" fill="#232323"/>
<path d="M103.031 24.0155C101.318 24.0155 99.8272 23.704 98.5589 23.081C97.2906 22.4357 96.3115 21.5568 95.6218 20.4442C94.932 19.3095 94.5871 17.9855 94.5871 16.4725C94.5871 14.6034 94.9765 12.9569 95.7553 11.5328C96.5563 10.0865 97.6466 8.96285 99.0261 8.16182C100.428 7.33854 102.019 6.9269 103.799 6.9269C105.623 6.9269 107.081 7.32741 108.171 8.12844C109.261 8.90722 110.018 9.96413 110.441 11.2992C110.864 12.612 110.975 14.0694 110.775 15.6715L110.641 16.5392H99.2598C99.282 17.7185 99.6603 18.6308 100.395 19.2761C101.129 19.9214 102.175 20.244 103.532 20.244C104.466 20.244 105.368 20.1105 106.235 19.8435C107.125 19.5765 107.915 19.1871 108.605 18.6753L109.707 21.9796C108.905 22.6026 107.915 23.1032 106.736 23.4815C105.557 23.8375 104.322 24.0155 103.031 24.0155ZM103.766 10.2645C102.564 10.2645 101.629 10.6317 100.962 11.3659C100.294 12.078 99.8494 12.9346 99.6269 13.9359H106.903C106.97 12.8901 106.747 12.0223 106.235 11.3326C105.746 10.6205 104.923 10.2645 103.766 10.2645Z" fill="#232323"/>
<path d="M118.112 24.0155C117.088 24.0155 116.153 23.7819 115.308 23.3146C114.462 22.8251 113.795 22.1909 113.305 21.4122C112.816 20.6334 112.571 19.7878 112.571 18.8756C112.571 17.14 113.305 15.8828 114.774 15.1041C116.265 14.303 118.59 13.9025 121.75 13.9025H124.019L124.086 13.4686C124.242 12.5563 124.075 11.8554 123.585 11.3659C123.118 10.8764 122.317 10.6317 121.182 10.6317C119.224 10.6317 117.333 11.1768 115.508 12.2671L114.474 8.86272C115.341 8.2842 116.443 7.81693 117.778 7.46092C119.135 7.10491 120.504 6.9269 121.883 6.9269C123.752 6.9269 125.221 7.27179 126.289 7.96156C127.357 8.65134 128.08 9.58587 128.458 10.7652C128.836 11.9222 128.903 13.2239 128.658 14.6702L127.257 23.6484H122.551L122.918 21.2453C122.384 22.2021 121.694 22.903 120.848 23.348C120.003 23.793 119.091 24.0155 118.112 24.0155ZM119.814 20.6445C120.771 20.6445 121.572 20.3552 122.217 19.7767C122.884 19.176 123.296 18.3749 123.452 17.3736L123.619 16.5059H121.85C120.225 16.5059 119.079 16.6616 118.412 16.9731C117.744 17.2624 117.411 17.7853 117.411 18.5418C117.411 19.2093 117.633 19.7322 118.078 20.1105C118.545 20.4665 119.124 20.6445 119.814 20.6445Z" fill="#232323"/>
<path d="M137.257 24.0155C135.21 24.0155 133.742 23.4592 132.852 22.3467C131.962 21.2119 131.684 19.5765 132.017 17.4404L134.754 0.118164H139.794L137.057 17.3736C136.812 19.087 137.458 19.9436 138.993 19.9436C139.216 19.9436 139.449 19.9325 139.694 19.9102C139.939 19.888 140.183 19.8657 140.428 19.8435L139.761 23.6817C139.026 23.9042 138.192 24.0155 137.257 24.0155Z" fill="#232323"/>
<path d="M150.879 24.0155C149.166 24.0155 147.675 23.704 146.407 23.081C145.138 22.4357 144.159 21.5568 143.47 20.4442C142.78 19.3095 142.435 17.9855 142.435 16.4725C142.435 14.6034 142.824 12.9569 143.603 11.5328C144.404 10.0865 145.494 8.96285 146.874 8.16182C148.276 7.33854 149.867 6.9269 151.647 6.9269C153.471 6.9269 154.929 7.32741 156.019 8.12844C157.109 8.90722 157.866 9.96413 158.289 11.2992C158.711 12.612 158.823 14.0694 158.622 15.6715L158.489 16.5392H147.108C147.13 17.7185 147.508 18.6308 148.242 19.2761C148.977 19.9214 150.022 20.244 151.38 20.244C152.314 20.244 153.215 20.1105 154.083 19.8435C154.973 19.5765 155.763 19.1871 156.453 18.6753L157.554 21.9796C156.753 22.6026 155.763 23.1032 154.584 23.4815C153.405 23.8375 152.17 24.0155 150.879 24.0155ZM151.613 10.2645C150.412 10.2645 149.477 10.6317 148.81 11.3659C148.142 12.078 147.697 12.9346 147.475 13.9359H154.751C154.818 12.8901 154.595 12.0223 154.083 11.3326C153.594 10.6205 152.77 10.2645 151.613 10.2645Z" fill="#232323"/>
<path d="M160.285 23.6484L162.889 7.26066H167.828L167.361 10.0643C167.873 9.15198 168.574 8.42883 169.464 7.89481C170.354 7.33854 171.411 7.0159 172.635 6.9269L174.17 6.82677L174.003 11.0655L170.799 11.3993C169.464 11.5328 168.496 11.9222 167.895 12.5675C167.317 13.2127 166.927 14.1695 166.727 15.4378L165.425 23.6484H160.285Z" fill="#232323"/>
<path d="M180.853 24.0155C179.429 24.0155 178.083 23.8486 176.814 23.5149C175.546 23.1811 174.478 22.7027 173.61 22.0797L175.079 18.8422C175.88 19.3762 176.792 19.799 177.816 20.1105C178.839 20.3997 179.84 20.5444 180.819 20.5444C181.776 20.5444 182.488 20.3775 182.955 20.0437C183.445 19.71 183.69 19.2872 183.69 18.7754C183.69 18.0412 183.167 17.5739 182.121 17.3736L179.084 16.8062C177.771 16.5837 176.759 16.1053 176.047 15.3711C175.335 14.6145 174.979 13.6689 174.979 12.5341C174.979 11.5328 175.268 10.6094 175.846 9.76388C176.447 8.8961 177.326 8.20632 178.483 7.69455C179.64 7.18278 181.064 6.9269 182.755 6.9269C183.801 6.9269 184.869 7.08266 185.959 7.39417C187.072 7.68343 188.029 8.12844 188.83 8.72921L187.428 11.8999C186.694 11.3882 185.893 11.0099 185.025 10.7652C184.179 10.4982 183.334 10.3646 182.488 10.3646C181.487 10.3646 180.73 10.5427 180.219 10.8987C179.729 11.2547 179.484 11.7108 179.484 12.2671C179.484 12.5786 179.584 12.8567 179.785 13.1015C180.007 13.324 180.363 13.4798 180.853 13.5688L183.857 14.1362C186.749 14.6702 188.195 16.0942 188.195 18.4083C188.195 20.2106 187.517 21.6013 186.16 22.5803C184.825 23.5371 183.056 24.0155 180.853 24.0155Z" fill="#232323"/>
</svg>
