<svg width="25" height="25" viewBox="0 0 25 25" fill="none" xmlns="http://www.w3.org/2000/svg">
<path d="M17.3498 7.94532C17.4316 8.48266 17.514 9.01358 17.5929 9.54449C17.614 9.68817 17.6315 9.8336 17.6426 9.97845C17.6567 10.1586 17.6007 10.3373 17.4861 10.4772C17.3715 10.617 17.2074 10.7072 17.0278 10.729C16.8483 10.7504 16.6675 10.7008 16.524 10.591C16.3805 10.4811 16.2855 10.3196 16.2594 10.1408C16.1471 9.41483 16.0408 8.68767 15.9303 7.95058H9.1076C8.83936 9.07957 8.70963 10.2319 8.66346 11.4334H8.89722C10.0853 11.4334 11.2739 11.4304 12.462 11.4334C13.0107 11.4334 13.359 11.959 13.1282 12.4298C12.9885 12.713 12.7483 12.8339 12.4339 12.8334C11.2605 12.8299 10.087 12.8334 8.913 12.8334H8.66288C8.69572 14.0115 8.84448 15.1835 9.10701 16.3325C9.51258 16.3325 9.91172 16.3325 10.3114 16.3325C10.779 16.3325 11.0951 16.6163 11.0974 17.0281C11.0998 17.4399 10.7813 17.729 10.3196 17.7319C10.059 17.7319 9.79835 17.7319 9.51258 17.7319C9.73044 18.3958 10.0258 19.0318 10.3927 19.6266C10.6808 20.0868 11.0139 20.5085 11.4522 20.8368C11.7632 21.0826 12.1451 21.2217 12.5415 21.2334C12.9248 21.2421 13.2053 21.5599 13.1983 21.957C13.1963 22.1373 13.1228 22.3094 12.994 22.4355C12.8651 22.5617 12.6914 22.6316 12.5111 22.6299C10.0818 22.6135 7.8944 21.8753 5.99222 20.3637C3.79258 18.6173 2.48588 16.3337 2.09902 13.557C1.32879 8.03819 5.04492 2.87857 10.5207 1.82199C16.167 0.733299 21.6492 4.40473 22.7794 10.0526C22.912 10.7132 22.9459 11.396 22.9939 12.0694C23.0254 12.5098 22.7087 12.8287 22.3037 12.8322C21.8987 12.8357 21.6053 12.5215 21.6024 12.0729C21.5926 10.6911 21.2687 9.32964 20.6551 8.09134C20.6084 7.9973 20.5692 7.92722 20.4366 7.9278C19.4378 7.93539 18.4385 7.93189 17.4398 7.93247C17.4096 7.9349 17.3795 7.93919 17.3498 7.94532ZM15.4903 6.52313C15.2209 5.72529 14.896 4.97302 14.4022 4.30952C14.18 4.00361 13.9216 3.72571 13.6325 3.4819C12.8874 2.87156 12.1102 2.8809 11.3698 3.50001C10.4155 4.29083 9.93977 5.37953 9.51083 6.52313H15.4903ZM7.62033 7.93422C6.60232 7.93422 5.56912 7.93422 4.53534 7.94065C4.4769 7.94065 4.39041 8.02125 4.36002 8.08491C3.9921 8.80492 3.72881 9.5737 3.57811 10.368C3.51266 10.7132 3.47233 11.0636 3.41915 11.4193H7.21242C7.34917 10.2483 7.48358 9.1006 7.62033 7.93422ZM7.21301 12.845H3.44954C3.44455 12.8763 3.44201 12.908 3.44194 12.9397C3.53789 14.0882 3.85793 15.2069 4.38398 16.2326C4.41203 16.2875 4.52073 16.3284 4.59261 16.329C5.20446 16.3366 5.81632 16.3337 6.42759 16.3337H7.61916C7.483 15.1649 7.34917 14.0132 7.21301 12.845ZM9.36823 3.61682C7.75181 4.20089 6.42174 5.16459 5.33595 6.53013H8.03816C8.36192 5.5051 8.77917 4.52271 9.36823 3.61682ZM19.6675 6.52663C18.6085 5.18011 17.1932 4.15709 15.582 3.5736C16.2249 4.5192 16.6415 5.50101 16.9659 6.52663H19.6675ZM9.36356 20.6715C9.3694 20.6417 9.37291 20.6341 9.37057 20.6306C8.81474 19.7665 8.37668 18.8321 8.06797 17.8522C8.04985 17.7938 7.93181 17.7354 7.85934 17.7354C7.23229 17.7266 6.60583 17.7301 5.97878 17.7301H5.33127C6.37641 19.0654 7.77253 20.0838 9.36356 20.6715Z" fill="#262626"/>
<path d="M17.3981 11.4336C20.4831 11.4336 23 13.9416 23 17.0184C23.0008 17.7561 22.8559 18.4867 22.5737 19.1684C22.2914 19.85 21.8773 20.4693 21.3552 20.9907C20.8331 21.5121 20.2131 21.9254 19.5309 22.2069C18.8486 22.4885 18.1175 22.6327 17.3794 22.6313C14.3154 22.6313 11.8031 20.1151 11.8008 17.0447C11.7995 16.3089 11.9432 15.58 12.2239 14.8998C12.5045 14.2195 12.9165 13.6012 13.4363 13.0801C13.956 12.559 14.5735 12.1454 15.2533 11.8629C15.933 11.5804 16.6619 11.4345 17.3981 11.4336ZM17.408 12.8353C15.0927 12.84 13.2004 14.7143 13.2004 17.0044C13.1967 17.5611 13.3038 18.1129 13.5155 18.6278C13.7271 19.1428 14.0391 19.6105 14.4332 20.0039C14.8273 20.3972 15.2958 20.7084 15.8113 20.9192C16.3268 21.13 16.8791 21.2363 17.4361 21.2319C19.7286 21.2254 21.5987 19.3331 21.5987 17.0196C21.5998 14.7219 19.7035 12.8289 17.408 12.8336V12.8353Z" fill="#262626"/>
<path d="M18.1006 15.6408C18.1006 16.0852 18.0971 16.5297 18.1006 16.9748C18.1044 17.0841 18.085 17.193 18.0436 17.2943C18.0022 17.3956 17.9397 17.4869 17.8604 17.5623C17.5279 17.89 17.2024 18.2241 16.867 18.5506C16.559 18.8525 16.1347 18.8584 15.8525 18.5734C15.5702 18.2883 15.5807 17.8725 15.8846 17.5583C16.1131 17.3246 16.3521 17.0998 16.5759 16.8574C16.6454 16.7796 16.6866 16.6806 16.6928 16.5764C16.7022 15.7961 16.6928 15.0164 16.6998 14.2361C16.6988 14.1449 16.7159 14.0543 16.7499 13.9697C16.784 13.885 16.8345 13.8079 16.8984 13.7428C16.9624 13.6777 17.0386 13.6258 17.1226 13.5902C17.2067 13.5546 17.2969 13.5359 17.3882 13.5352C17.778 13.53 18.086 13.8354 18.0965 14.2419C18.1012 14.4172 18.0965 14.5924 18.0965 14.7676L18.1006 15.6408Z" fill="#262626"/>
</svg>
