<svg width="24" height="24" viewBox="0 0 24 24" fill="none" xmlns="http://www.w3.org/2000/svg">
<path d="M16.8498 7.81446C16.9316 8.3518 17.014 8.88272 17.0929 9.41363C17.114 9.55731 17.1315 9.70274 17.1426 9.84759C17.1567 10.0278 17.1007 10.2065 16.9861 10.3463C16.8715 10.4862 16.7074 10.5764 16.5278 10.5981C16.3483 10.6195 16.1675 10.57 16.024 10.4601C15.8805 10.3503 15.7855 10.1887 15.7594 10.01C15.6471 9.28397 15.5408 8.55681 15.4303 7.81972H8.6076C8.33936 8.94871 8.20963 10.1011 8.16346 11.3025H8.39722C9.58528 11.3025 10.7739 11.2996 11.962 11.3025C12.5107 11.3025 12.859 11.8282 12.6282 12.2989C12.4885 12.5822 12.2483 12.7031 11.9339 12.7025C10.7605 12.699 9.58703 12.7025 8.413 12.7025H8.16288C8.19572 13.8806 8.34448 15.0526 8.60701 16.2016C9.01258 16.2016 9.41172 16.2016 9.81144 16.2016C10.279 16.2016 10.5951 16.4855 10.5974 16.8972C10.5998 17.309 10.2813 17.5981 9.81962 17.601C9.55898 17.601 9.29835 17.601 9.01258 17.601C9.23044 18.265 9.52584 18.9009 9.89267 19.4957C10.1808 19.956 10.5139 20.3777 10.9522 20.7059C11.2632 20.9517 11.6451 21.0908 12.0415 21.1025C12.4248 21.1113 12.7053 21.429 12.6983 21.8262C12.6963 22.0064 12.6228 22.1785 12.494 22.3047C12.3651 22.4308 12.1914 22.5007 12.0111 22.499C9.58177 22.4826 7.3944 21.7444 5.49222 20.2328C3.29258 18.4865 1.98588 16.2028 1.59902 13.4262C0.828793 7.90733 4.54492 2.74771 10.0207 1.69113C15.667 0.602439 21.1492 4.27387 22.2794 9.92177C22.412 10.5823 22.4459 11.2651 22.4939 11.9385C22.5254 12.3789 22.2087 12.6978 21.8037 12.7013C21.3987 12.7048 21.1053 12.3906 21.1024 11.942C21.0926 10.5603 20.7687 9.19879 20.1551 7.96048C20.1084 7.86644 20.0692 7.79636 19.9366 7.79694C18.9378 7.80453 17.9385 7.80103 16.9398 7.80161C16.9096 7.80404 16.8795 7.80833 16.8498 7.81446ZM14.9903 6.39227C14.7209 5.59444 14.396 4.84216 13.9022 4.17866C13.68 3.87275 13.4216 3.59485 13.1325 3.35105C12.3874 2.7407 11.6102 2.75004 10.8698 3.36915C9.91546 4.15997 9.43977 5.24867 9.01083 6.39227H14.9903ZM7.12033 7.80337C6.10232 7.80337 5.06912 7.80337 4.03534 7.80979C3.9769 7.80979 3.89041 7.89039 3.86002 7.95405C3.4921 8.67406 3.22881 9.44284 3.07811 10.2372C3.01266 10.5823 2.97233 10.9328 2.91915 11.2885H6.71242C6.84917 10.1174 6.98358 8.96974 7.12033 7.80337ZM6.71301 12.7142H2.94954C2.94455 12.7455 2.94201 12.7771 2.94194 12.8088C3.03789 13.9574 3.35793 15.0761 3.88398 16.1017C3.91203 16.1567 4.02073 16.1975 4.09261 16.1981C4.70446 16.2057 5.31632 16.2028 5.92759 16.2028H7.11916C6.983 15.0341 6.84917 13.8823 6.71301 12.7142ZM8.86823 3.48596C7.25181 4.07003 5.92174 5.03373 4.83595 6.39928H7.53816C7.86192 5.37424 8.27917 4.39185 8.86823 3.48596ZM19.1675 6.39577C18.1085 5.04925 16.6932 4.02623 15.082 3.44274C15.7249 4.38834 16.1415 5.37015 16.4659 6.39577H19.1675ZM8.86356 20.5406C8.8694 20.5108 8.87291 20.5033 8.87057 20.4998C8.31474 19.6356 7.87668 18.7012 7.56797 17.7214C7.54985 17.663 7.43181 17.6045 7.35934 17.6045C6.73229 17.5958 6.10583 17.5993 5.47878 17.5993H4.83127C5.87641 18.9345 7.27253 19.9529 8.86356 20.5406Z" fill="#262626"/>
<path d="M16.8981 11.3027C19.9831 11.3027 22.5 13.8107 22.5 16.8876C22.5008 17.6253 22.3559 18.3559 22.0737 19.0375C21.7914 19.7191 21.3773 20.3384 20.8552 20.8598C20.3331 21.3812 19.7131 21.7945 19.0309 22.0761C18.3486 22.3576 17.6175 22.5018 16.8794 22.5004C13.8154 22.5004 11.3031 19.9843 11.3008 16.9138C11.2995 16.178 11.4432 15.4492 11.7239 14.7689C12.0045 14.0887 12.4165 13.4703 12.9363 12.9493C13.456 12.4282 14.0735 12.0146 14.7533 11.7321C15.433 11.4495 16.1619 11.3037 16.8981 11.3027ZM16.908 12.7045C14.5927 12.7092 12.7004 14.5834 12.7004 16.8735C12.6967 17.4302 12.8038 17.9821 13.0155 18.497C13.2271 19.0119 13.5391 19.4797 13.9332 19.873C14.3273 20.2664 14.7958 20.5775 15.3113 20.7883C15.8268 20.9991 16.3791 21.1054 16.9361 21.101C19.2286 21.0946 21.0987 19.2022 21.0987 16.8887C21.0998 14.591 19.2035 12.6981 16.908 12.7027V12.7045Z" fill="#262626"/>
<path d="M17.6006 15.5099C17.6006 15.9544 17.5971 16.3989 17.6006 16.8439C17.6044 16.9533 17.585 17.0622 17.5436 17.1634C17.5022 17.2647 17.4397 17.3561 17.3604 17.4315C17.0279 17.7591 16.7024 18.0932 16.367 18.4197C16.059 18.7217 15.6347 18.7275 15.3525 18.4425C15.0702 18.1575 15.0807 17.7416 15.3846 17.4274C15.6131 17.1938 15.8521 16.9689 16.0759 16.7265C16.1454 16.6487 16.1866 16.5497 16.1928 16.4456C16.2022 15.6653 16.1928 14.8856 16.1998 14.1052C16.1988 14.014 16.2159 13.9235 16.2499 13.8388C16.284 13.7542 16.3345 13.6771 16.3984 13.612C16.4624 13.5468 16.5386 13.495 16.6226 13.4594C16.7067 13.4237 16.7969 13.4051 16.8882 13.4044C17.278 13.3991 17.586 13.7046 17.5965 14.1111C17.6012 14.2863 17.5965 14.4615 17.5965 14.6367L17.6006 15.5099Z" fill="#262626"/>
</svg>
