<svg width="8" height="8" viewBox="0 0 8 8" fill="none" xmlns="http://www.w3.org/2000/svg">
<path d="M6.95724 5.90078L4.20255 2.10312C4.10255 1.96563 3.89786 1.96563 3.79864 2.10312L1.04317 5.90078C1.03639 5.91012 1.03233 5.92116 1.03144 5.93266C1.03054 5.94417 1.03286 5.9557 1.03811 5.96598C1.04337 5.97625 1.05137 5.98487 1.06123 5.99087C1.07109 5.99688 1.08241 6.00004 1.09395 6H1.67989C1.71974 6 1.75724 5.98047 1.78067 5.94844L4.00021 2.88906L6.21974 5.94844C6.24317 5.98047 6.28067 6 6.32052 6H6.90646C6.95724 6 6.98692 5.94219 6.95724 5.90078Z" fill="#8C8C8C"/>
</svg>
